SplineFontDB: 3.2
FontName: Veqilharxhi
FullName: Veqilharxhi
FamilyName: Veqilharxhi Regular
Weight: Regular
Copyright: Copyright (c) 2019--2021, W.A. Borici.
UComments: "2019-2-22: Created with FontForge (http://fontforge.org)"
Version: 1.0.4
ItalicAngle: 0
UnderlinePosition: -401
UnderlineWidth: 196
Ascent: 3277
Descent: 819
InvalidEm: 0
LayerCount: 2
Layer: 0 1 "Back" 1
Layer: 1 1 "Fore" 0
XUID: [1021 173 -2133813548 3420358]
StyleMap: 0x0000
FSType: 0
OS2Version: 0
OS2_WeightWidthSlopeOnly: 0
OS2_UseTypoMetrics: 1
CreationTime: 1550899400
ModificationTime: 1627876179
PfmFamily: 17
TTFWeight: 400
TTFWidth: 5
LineGap: 1475
VLineGap: 0
OS2TypoAscent: 0
OS2TypoAOffset: 1
OS2TypoDescent: 0
OS2TypoDOffset: 1
OS2TypoLinegap: 369
OS2WinAscent: 0
OS2WinAOffset: 1
OS2WinDescent: 0
OS2WinDOffset: 1
HheadAscent: 0
HheadAOffset: 1
HheadDescent: 0
HheadDOffset: 1
OS2Vendor: 'PfEd'
MarkAttachClasses: 1
DEI: 91125

StartChar: u10570
Encoding: 66928 66928 0
Width: 2936
VWidth: 0
Flags: W
HStem: 12 238<1847.49 2365.93> 94 70<886.802 1115.57> 3072 168<1672.65 1956.45>
VStem: 70 368<938.28 2056.14> 1384 238<2391.4 3039.47> 2216 135<1943.64 2775.99> 2519 352<454.701 1326.74>
LayerCount: 2
Fore
SplineSet
1360 348 m 1,0,1
 1327 402 1327 402 1327 444 c 128,-1,2
 1327 486 1327 486 1346.5 527.5 c 128,-1,3
 1366 569 1366 569 1388.5 569 c 128,-1,4
 1411 569 1411 569 1421 566.5 c 128,-1,5
 1431 564 1431 564 1444.5 558 c 128,-1,6
 1458 552 1458 552 1467 547 c 0,7,8
 1506 525 1506 525 1526 517 c 1,9,10
 1735 770 1735 770 1940 1352 c 0,11,12
 2017 1571 2017 1571 2032 1619 c 0,13,14
 2055 1692 2055 1692 2064 1717 c 128,-1,15
 2073 1742 2073 1742 2073 1744 c 0,16,17
 2006 1798 2006 1798 1947 1840 c 128,-1,18
 1888 1882 1888 1882 1817 1941 c 128,-1,19
 1746 2000 1746 2000 1688 2058 c 0,20,21
 1480 2266 1480 2266 1406 2574 c 0,22,23
 1384 2668 1384 2668 1384 2777 c 0,24,25
 1384 3112 1384 3112 1644 3206 c 0,26,27
 1740 3240 1740 3240 1814 3240 c 0,28,29
 1984 3240 1984 3240 2081 3154 c 0,30,31
 2162 3080 2162 3080 2188.5 3049 c 128,-1,32
 2215 3018 2215 3018 2230.5 3001 c 128,-1,33
 2246 2984 2246 2984 2261 2955.5 c 128,-1,34
 2276 2927 2276 2927 2284 2913 c 128,-1,35
 2292 2899 2292 2899 2301 2865 c 128,-1,36
 2310 2831 2310 2831 2314 2815.5 c 128,-1,37
 2318 2800 2318 2800 2324.5 2755.5 c 128,-1,38
 2331 2711 2331 2711 2333.5 2689 c 128,-1,39
 2336 2667 2336 2667 2343.5 2605 c 128,-1,40
 2351 2543 2351 2543 2351 2378 c 128,-1,41
 2351 2213 2351 2213 2277 1946 c 1,42,43
 2296 1937 2296 1937 2351 1916 c 0,44,45
 2473 1869 2473 1869 2583.5 1774 c 128,-1,46
 2694 1679 2694 1679 2782.5 1458.5 c 128,-1,47
 2871 1238 2871 1238 2871 982 c 0,48,49
 2871 407 2871 407 2646 143 c 0,50,51
 2532 12 2532 12 2232 12 c 0,52,53
 2044 12 2044 12 1846.5 66 c 128,-1,54
 1649 120 1649 120 1511 209 c 0,55,56
 1510 210 1510 210 1509 210 c 0,57,58
 1334 94 1334 94 1102 94 c 2,59,-1
 1049 94 l 2,60,61
 611 94 611 94 358 436 c 0,62,63
 70 824 70 824 70 1540 c 2,64,-1
 70 1561 l 2,65,66
 70 2402 70 2402 492 2794 c 0,67,68
 698 2986 698 2986 1016 3109 c 0,69,70
 1114 3146 1114 3146 1145 3146 c 128,-1,71
 1176 3146 1176 3146 1176 3129 c 0,72,73
 1176 3056 1176 3056 804 2570 c 2,74,-1
 680 2408 l 1,75,76
 613 2276 613 2276 544 2105 c 0,77,78
 438 1838 438 1838 438 1532 c 0,79,80
 438 1356 438 1356 500 1040 c 2,81,-1
 520 938 l 1,82,83
 581 634 581 634 735 365 c 0,84,85
 877 188 877 188 957 164 c 1,86,87
 1158 164 1158 164 1360 348 c 1,0,1
2159 2015 m 1,88,89
 2216 2239 2216 2239 2216 2367.5 c 128,-1,90
 2216 2496 2216 2496 2204 2580 c 128,-1,91
 2192 2664 2192 2664 2160 2752 c 0,92,93
 2096 2930 2096 2930 1913 3060 c 0,94,95
 1895 3072 1895 3072 1822 3072 c 128,-1,96
 1749 3072 1749 3072 1745 3068 c 0,97,98
 1622 2993 1622 2993 1622 2716 c 2,99,-1
 1622 2654 l 2,100,101
 1622 2539 1622 2539 1697 2410.5 c 128,-1,102
 1772 2282 1772 2282 1857 2218.5 c 128,-1,103
 1942 2155 1942 2155 1993.5 2120 c 128,-1,104
 2045 2085 2045 2085 2092 2056.5 c 128,-1,105
 2139 2028 2139 2028 2159 2015 c 1,88,89
2202 1631 m 1,106,107
 2167 1441 2167 1441 2140 1372 c 0,108,109
 2061 1171 2061 1171 2020 1054 c 2,110,-1
 1999 995 l 1,111,112
 1871 647 1871 647 1765 475 c 1,113,114
 1724 430 1724 430 1712 410 c 1,115,116
 1985 250 1985 250 2171 250 c 0,117,118
 2280 250 2280 250 2333 302 c 0,119,120
 2423 388 2423 388 2471 559 c 128,-1,121
 2519 730 2519 730 2519 913 c 2,122,-1
 2519 975 l 2,123,124
 2519 1304 2519 1304 2216 1618 c 0,125,126
 2209 1624 2209 1624 2202 1631 c 1,106,107
EndSplineSet
EndChar

StartChar: u10571
Encoding: 66929 66929 1
Width: 2170
VWidth: 0
Flags: W
HStem: -815 151<1658.51 1911.7> 729 62<252.187 344.019> 1921 184<545 876.515> 3158 107<755.173 1097.97>
VStem: 66 73<982.675 1508.7> 393 201<1847.38 2977.94> 401 222<1184.99 2367.22> 1135 401<-402.311 -197 74 871.946 891.519 899.953> 1200 373<109.735 1459.09> 2036 69<-456.736 -321.396>
LayerCount: 2
Fore
SplineSet
401 2036 m 2,0,-1
 393 2372 l 1,1,2
 393 2678 393 2678 444.5 2869.5 c 128,-1,3
 496 3061 496 3061 626.5 3163 c 128,-1,4
 757 3265 757 3265 942 3265 c 0,5,6
 1072 3266 1072 3266 1161 3160 c 0,7,8
 1195 3120 1195 3120 1249 3052 c 128,-1,9
 1303 2984 1303 2984 1325 2962.5 c 0,10,11
 1347 2942 1347 2942 1340 2934 c 0,12,13
 1329 2922 1329 2922 1313 2922 c 0,14,15
 1256 2922 1256 2922 1136 3070 c 0,16,17
 1065 3157 1065 3157 943 3157.5 c 128,-1,18
 821 3158 821 3158 734 3092 c 128,-1,19
 647 3026 647 3026 620.5 2882.5 c 128,-1,20
 594 2739 594 2739 594 2589 c 128,-1,21
 594 2439 594 2439 604 2288 c 128,-1,22
 614 2137 614 2137 618 2061 c 1,23,24
 733 2105 733 2105 851 2105 c 128,-1,25
 969 2105 969 2105 1155 2023 c 1,26,27
 1328 1957 1328 1957 1400 1812 c 0,28,29
 1468 1676 1468 1676 1489 1573.5 c 128,-1,30
 1510 1471 1510 1471 1519.5 1419.5 c 128,-1,31
 1529 1368 1529 1368 1530 1362 c 128,-1,32
 1531 1356 1531 1356 1533 1347 c 0,33,34
 1573 1167 1573 1167 1573 885 c 1,35,-1
 1536 74 l 1,36,37
 1536 -409 1536 -409 1627 -552 c 0,38,39
 1679 -633 1679 -633 1769 -659 c 0,40,41
 1784 -664 1784 -664 1809 -664 c 128,-1,42
 1834 -664 1834 -664 1869 -636 c 128,-1,43
 1904 -608 1904 -608 1927 -574 c 128,-1,44
 1950 -540 1950 -540 1983 -488 c 128,-1,45
 2016 -436 2016 -436 2030 -418 c 128,-1,46
 2044 -400 2044 -400 2042.5 -387 c 128,-1,47
 2041 -374 2041 -374 2037.5 -360 c 128,-1,48
 2034 -346 2034 -346 2030 -334 c 0,49,50
 2022 -309 2022 -309 2044 -311 c 0,51,52
 2080 -314 2080 -314 2102 -356 c 128,-1,53
 2124 -398 2124 -398 2102.5 -430.5 c 128,-1,54
 2081 -463 2081 -463 2048 -526.5 c 128,-1,55
 2015 -590 2015 -590 1990 -633.5 c 0,56,57
 1966 -676 1966 -676 1932 -722 c 0,58,59
 1864 -814 1864 -814 1769 -815 c 1,60,61
 1748 -815 1748 -815 1716 -807 c 0,62,63
 1135 -672 1135 -672 1135 119 c 0,64,65
 1135 259 1135 259 1167.5 516.5 c 128,-1,66
 1200 774 1200 774 1200 965 c 0,67,68
 1200 1184 1200 1184 1092 1518 c 0,69,70
 1023 1731 1023 1731 902 1817 c 0,71,72
 772 1909 772 1909 623 1920 c 1,73,-1
 623 1610 l 2,74,75
 623 1235 623 1235 541 958 c 0,76,77
 515 863 515 863 447.5 796 c 128,-1,78
 380 729 380 729 295 729 c 0,79,80
 190 729 190 729 146 801 c 0,81,82
 99 877 99 877 91.5 978 c 128,-1,83
 84 1079 84 1079 75 1162.5 c 128,-1,84
 66 1246 66 1246 66 1344 c 128,-1,85
 66 1442 66 1442 91 1548.5 c 0,86,87
 116 1656 116 1656 138 1702 c 0,88,89
 212 1859 212 1859 400 1961 c 1,90,91
 401 2002 401 2002 401 2036 c 2,0,-1
369 987 m 1,92,-1
 365 1171 l 1,93,94
 365 1320 365 1320 379 1538.5 c 128,-1,95
 393 1757 393 1757 397 1873 c 1,96,97
 379 1860 379 1860 322 1795 c 0,98,99
 187 1641 187 1641 147 1372 c 0,100,101
 139 1314 139 1314 139 1226 c 128,-1,102
 139 1138 139 1138 171 1001 c 128,-1,103
 203 864 203 864 246.5 827.5 c 128,-1,104
 290 791 290 791 307 791 c 0,105,106
 369 791 369 791 369 987 c 1,92,-1
EndSplineSet
EndChar

StartChar: u10573
Encoding: 66931 66931 2
Width: 1867
VWidth: 0
Flags: W
HStem: -811 283<1213.81 1496.82> 1110 168<690.5 1314.86> 1208 95<1079.41 1255.52> 1966 193<296.215 585.361> 2413 397<529.359 671.988> 3035 238<507.196 990.529>
VStem: 66 159<2239.75 2702.8> 524 303<1204 1478.75> 672 266<-121.854 646.08> 672 200<2246.04 2411.22> 1339 349<2172.29 2737.43> 1675 133<-341.833 -181.033>
LayerCount: 2
Fore
SplineSet
606 2413 m 1,0,-1
 561 2408 l 1,1,2
 426 2408 426 2408 426 2511 c 0,3,4
 426 2568 426 2568 468.5 2639.5 c 128,-1,5
 511 2711 511 2711 570.5 2760.5 c 128,-1,6
 630 2810 630 2810 668 2810 c 128,-1,7
 706 2810 706 2810 725 2785 c 1,8,9
 872 2491 872 2491 872 2310 c 0,10,11
 872 2209 872 2209 813 2129 c 0,12,13
 693 1966 693 1966 463 1966 c 0,14,15
 304 1966 304 1966 185 2097.5 c 128,-1,16
 66 2229 66 2229 66 2404 c 0,17,18
 66 2978 66 2978 569 3215 c 0,19,20
 685 3273 685 3273 862.5 3273 c 128,-1,21
 1040 3273 1040 3273 1227 3191.5 c 128,-1,22
 1414 3110 1414 3110 1505 2990.5 c 128,-1,23
 1596 2871 1596 2871 1642 2716.5 c 128,-1,24
 1688 2562 1688 2562 1688 2486 c 0,25,26
 1688 2308 1688 2308 1561 2105 c 0,27,28
 1457 1938 1457 1938 1261 1792 c 0,29,30
 1042 1629 1042 1629 963.5 1537.5 c 128,-1,31
 885 1446 885 1446 856 1381 c 128,-1,32
 827 1316 827 1316 827 1311 c 0,33,34
 827 1278 827 1278 905 1278 c 1,35,-1
 1180 1303 l 1,36,-1
 1479 1343 l 1,37,38
 1528 1343 1528 1343 1528 1327 c 128,-1,39
 1528 1311 1528 1311 1503 1283 c 128,-1,40
 1478 1255 1478 1255 1419 1185 c 128,-1,41
 1360 1115 1360 1115 1329.5 1079 c 128,-1,42
 1299 1043 1299 1043 1249 981 c 128,-1,43
 1199 919 1199 919 1172.5 881.5 c 128,-1,44
 1146 844 1146 844 1107.5 787.5 c 128,-1,45
 1069 731 1069 731 1048.5 690 c 128,-1,46
 1028 649 1028 649 1003 594.5 c 128,-1,47
 978 540 978 540 966 492 c 0,48,49
 938 374 938 374 938 279 c 0,50,51
 938 58 938 58 1081 -254 c 1,52,53
 1142 -370 1142 -370 1210 -434 c 0,54,55
 1311 -528 1311 -528 1434 -528 c 0,56,57
 1495 -528 1495 -528 1526.5 -502.5 c 128,-1,58
 1558 -477 1558 -477 1564 -472.5 c 128,-1,59
 1570 -468 1570 -468 1584.5 -454.5 c 128,-1,60
 1599 -441 1599 -441 1604 -436 c 0,61,62
 1626 -414 1626 -414 1650.5 -389.5 c 128,-1,63
 1675 -365 1675 -365 1675 -307 c 2,64,-1
 1675 -254 l 2,65,66
 1675 -165 1675 -165 1762 -137 c 0,67,68
 1806 -123 1806 -123 1807 -136.5 c 128,-1,69
 1808 -150 1808 -150 1801.5 -169 c 128,-1,70
 1795 -188 1795 -188 1774 -250 c 128,-1,71
 1753 -312 1753 -312 1742.5 -340.5 c 128,-1,72
 1732 -369 1732 -369 1712.5 -418.5 c 128,-1,73
 1693 -468 1693 -468 1676 -497.5 c 0,74,75
 1658 -526 1658 -526 1634 -566 c 0,76,77
 1589 -638 1589 -638 1493 -724.5 c 128,-1,78
 1397 -811 1397 -811 1296 -811 c 128,-1,79
 1195 -811 1195 -811 1126 -770 c 0,80,81
 951 -665 951 -665 856 -541.5 c 128,-1,82
 761 -418 761 -418 725 -233 c 1,83,84
 672 74 672 74 672 220 c 128,-1,85
 672 366 672 366 689 465 c 128,-1,86
 706 564 706 564 747 665 c 128,-1,87
 788 766 788 766 854 856 c 0,88,89
 994 1047 994 1047 1257 1208 c 1,90,91
 1256 1208 1256 1208 1168 1184 c 0,92,93
 904 1110 904 1110 714 1110 c 128,-1,94
 524 1110 524 1110 524 1237 c 0,95,96
 524 1515 524 1515 836 1760 c 0,97,98
 900 1810 900 1810 963.5 1859.5 c 128,-1,99
 1027 1909 1027 1909 1088.5 1964.5 c 128,-1,100
 1150 2020 1150 2020 1200 2080 c 0,101,102
 1340 2249 1340 2249 1339 2458 c 0,103,104
 1338 2770 1338 2770 992 2944 c 0,105,106
 812 3034 812 3034 717.5 3034.5 c 128,-1,107
 623 3035 623 3035 556.5 2999.5 c 128,-1,108
 490 2964 490 2964 435 2898 c 0,109,110
 225 2648 225 2648 225 2476 c 128,-1,111
 225 2304 225 2304 356 2179 c 0,112,113
 376 2159 376 2159 430 2159 c 128,-1,114
 484 2159 484 2159 578 2241 c 128,-1,115
 672 2323 672 2323 672 2380 c 0,116,117
 672 2413 672 2413 623 2413 c 2,118,-1
 606 2413 l 1,0,-1
EndSplineSet
EndChar

StartChar: u10574
Encoding: 66932 66932 3
Width: 2056
VWidth: 0
Flags: W
HStem: 8 254<561.321 1016.17> 41 291<1216.15 1582.87> 975 201<1010.04 1273.66> 2900 360<1299.58 1470.5>
VStem: 66 299<469.016 1099.63> 754 196<516.789 934.701> 930 254<2059.94 2775.29> 1311 143<553.757 915.081> 1622 369<2147.3 2732.71> 1704 217<461.398 1269.22>
LayerCount: 2
Fore
SplineSet
263 1239 m 128,-1,1
 292 1267 292 1267 347.5 1315.5 c 128,-1,2
 403 1364 403 1364 547.5 1364 c 128,-1,3
 692 1364 692 1364 692 1335 c 0,4,5
 692 1309 692 1309 650 1278.5 c 128,-1,6
 608 1248 608 1248 588.5 1235 c 0,7,8
 568 1222 568 1222 566 1220 c 0,9,10
 466 1160 466 1160 415.5 1038 c 128,-1,11
 365 916 365 916 365 784 c 0,12,13
 365 518 365 518 549 360 c 0,14,15
 663 262 663 262 836 262 c 0,16,17
 897 262 897 262 969 296 c 1,18,19
 862 393 862 393 826 455 c 0,20,21
 754 580 754 580 754 679 c 128,-1,22
 754 778 754 778 833.5 919.5 c 128,-1,23
 913 1061 913 1061 1016 1151 c 0,24,25
 1041 1176 1041 1176 1090 1176 c 0,26,27
 1195 1176 1195 1176 1324.5 1046.5 c 128,-1,28
 1454 917 1454 917 1454 700 c 0,29,30
 1454 564 1454 564 1422 509 c 0,31,32
 1374 427 1374 427 1296 334 c 1,33,34
 1316 332 1316 332 1374 332 c 0,35,36
 1522 332 1522 332 1618 463 c 0,37,38
 1674 544 1674 544 1689 620 c 128,-1,39
 1704 696 1704 696 1704 815 c 2,40,-1
 1704 889 l 2,41,42
 1704 1023 1704 1023 1673 1122 c 128,-1,43
 1642 1221 1642 1221 1585.5 1335.5 c 128,-1,44
 1529 1450 1529 1450 1471 1529 c 0,45,46
 1396 1631 1396 1631 1298 1729 c 128,-1,47
 1200 1827 1200 1827 1170 1858 c 128,-1,48
 1140 1889 1140 1889 1097 1938.5 c 128,-1,49
 1054 1988 1054 1988 1034 2021 c 0,50,51
 930 2188 930 2188 930 2507 c 0,52,53
 930 2902 930 2902 1154 3154 c 0,54,55
 1248 3260 1248 3260 1343 3260 c 2,56,-1
 1405 3260 l 2,57,58
 1602 3260 1602 3260 1712 3118 c 0,59,60
 1749 3070 1749 3070 1780 3023 c 128,-1,61
 1811 2976 1811 2976 1832.5 2942.5 c 128,-1,62
 1854 2909 1854 2909 1874.5 2855.5 c 128,-1,63
 1895 2802 1895 2802 1922.5 2701.5 c 128,-1,64
 1950 2601 1950 2601 1970.5 2538 c 128,-1,65
 1991 2475 1991 2475 1991 2385.5 c 0,66,67
 1992 2296 1992 2296 1974 2194 c 0,68,69
 1931 1946 1931 1946 1851 1946 c 0,70,71
 1830 1946 1830 1946 1815 1964.5 c 0,72,73
 1800 1982 1800 1982 1796 1996 c 0,74,75
 1791 2014 1791 2014 1705 2062 c 0,76,77
 1536 2155 1536 2155 1536 2232 c 0,78,79
 1536 2262 1536 2262 1558 2303 c 0,80,81
 1622 2426 1622 2426 1622 2494 c 0,82,83
 1622 2666 1622 2666 1397 2896 c 0,84,85
 1393 2900 1393 2900 1389 2900 c 0,86,87
 1366 2900 1366 2900 1315.5 2835.5 c 128,-1,88
 1265 2771 1265 2771 1224.5 2698 c 128,-1,89
 1184 2625 1184 2625 1184 2601 c 2,90,-1
 1184 2576 l 2,91,92
 1184 2222 1184 2222 1217 2154 c 128,-1,93
 1250 2086 1250 2086 1300.5 2022.5 c 128,-1,94
 1351 1959 1351 1959 1401 1915.5 c 128,-1,95
 1451 1872 1451 1872 1501 1827 c 0,96,97
 1625 1715 1625 1715 1696 1561 c 0,98,99
 1716 1518 1716 1518 1757 1434.5 c 128,-1,100
 1798 1351 1798 1351 1818 1307 c 128,-1,101
 1838 1263 1838 1263 1865 1191.5 c 128,-1,102
 1892 1120 1892 1120 1902 1064 c 0,103,104
 1924 933 1924 933 1924 804 c 0,105,106
 1924 649 1924 649 1892 496 c 0,107,108
 1887 477 1887 477 1874.5 424.5 c 128,-1,109
 1862 372 1862 372 1852 336 c 0,110,111
 1798 140 1798 140 1656 70 c 0,112,113
 1596 40 1596 40 1552 41 c 0,114,115
 1304 41 1304 41 1127 167 c 1,116,117
 816 7 816 7 746 7 c 0,118,119
 741 7 741 7 737 8 c 1,120,121
 434 8 434 8 296 94 c 0,122,123
 234 132 234 132 176 193 c 0,124,125
 66 303 66 303 66 623 c 2,126,-1
 66 668 l 2,127,128
 66 831 66 831 84.5 908.5 c 128,-1,129
 103 986 103 986 132.5 1051.5 c 128,-1,130
 162 1117 162 1117 198 1164 c 128,-1,0
 234 1211 234 1211 263 1239 c 128,-1,1
1141 411 m 1,131,132
 1274 544 1274 544 1311 782 c 1,133,-1
 1311 799 l 2,134,135
 1311 846 1311 846 1272 888 c 0,136,137
 1193 975 1193 975 1110 975 c 2,138,-1
 1106 975 l 1,139,140
 1045 963 1045 963 1004 881 c 0,141,142
 996 866 996 866 983.5 846.5 c 0,143,144
 972 827 972 827 966 816 c 0,145,146
 950 785 950 785 950 737.5 c 128,-1,147
 950 690 950 690 957 659.5 c 128,-1,148
 964 629 964 629 971.5 609 c 128,-1,149
 979 589 979 589 998 563 c 128,-1,150
 1017 537 1017 537 1028 525.5 c 128,-1,151
 1039 514 1039 514 1067 486 c 128,-1,152
 1095 458 1095 458 1109.5 442.5 c 128,-1,153
 1124 427 1124 427 1141 411 c 1,131,132
EndSplineSet
EndChar

StartChar: u10575
Encoding: 66933 66933 4
Width: 2813
VWidth: 0
Flags: W
HStem: 2167 168<74 575.373>
VStem: 651 447<464.63 1293.4> 721 377<1549.6 2130> 868 230<2892.88 3109> 1712 311<950.891 1502.65>
LayerCount: 2
Fore
SplineSet
1098 3215 m 1,0,-1
 1081 2318 l 1,1,-1
 1815 2458 l 1,2,-1
 1847 2142 l 1,3,-1
 1098 2150 l 1,4,5
 1099 2055 1099 2055 1099 1927 c 0,6,7
 1098 1704 1098 1704 1096 1380 c 0,8,9
 1095 1171 1095 1171 1095 1004 c 0,10,11
 1095 766 1095 766 1098 614 c 0,12,13
 1104 291 1104 291 1454 156 c 0,14,15
 1484 143 1484 143 1513 143 c 0,16,17
 1578 142 1578 142 1638 208 c 0,18,19
 1668 241 1668 241 1703 285.5 c 128,-1,20
 1738 330 1738 330 1753.5 348.5 c 128,-1,21
 1769 367 1769 367 1782 384 c 1,22,23
 1737 502 1737 502 1726 586 c 128,-1,24
 1715 670 1715 670 1706 751 c 0,25,26
 1698 832 1698 832 1684 920 c 0,27,28
 1671 1006 1671 1006 1670 1090 c 0,29,30
 1670 1238 1670 1238 1712 1376 c 1,31,32
 1744 1512 1744 1512 1872 1524 c 0,33,34
 1926 1530 1926 1530 1966.5 1496 c 0,35,36
 2006 1462 2006 1462 2036 1361 c 0,37,38
 2074 1231 2074 1231 2075 1083 c 0,39,40
 2075 991 2075 991 2060 893 c 0,41,42
 2054 847 2054 847 2044.5 767 c 128,-1,43
 2035 687 2035 687 2030 646 c 0,44,45
 2026 605 2026 605 2012 541 c 0,46,47
 1989 434 1989 434 1959 380 c 0,48,49
 1926 320 1926 320 1937 303 c 0,50,51
 2025 184 2025 184 2139 165 c 0,52,53
 2156 162 2156 162 2174 162 c 0,54,55
 2268 162 2268 162 2364 246 c 0,56,57
 2426 300 2426 300 2471 386 c 0,58,59
 2610 647 2610 647 2719 671 c 0,60,61
 2753 679 2753 679 2753 651 c 0,62,63
 2753 635 2753 635 2753 619 c 0,64,65
 2753 512 2753 512 2735 438 c 0,66,67
 2714 354 2714 354 2632 258 c 0,68,69
 2466 65 2466 65 2226 51 c 0,70,71
 2209 50 2209 50 2194 50 c 0,72,73
 1979 50 1979 50 1864 225 c 1,74,75
 1778 110 1778 110 1664 66 c 0,76,77
 1557 24 1557 24 1411 25 c 0,78,79
 1401 25 1401 25 1391 25 c 0,80,81
 1232 28 1232 28 1118 76 c 128,-1,82
 1004 124 1004 124 917.5 203.5 c 128,-1,83
 831 283 831 283 794.5 344 c 128,-1,84
 758 405 758 405 742 454.5 c 128,-1,85
 726 504 726 504 701.5 580.5 c 128,-1,86
 677 657 677 657 651 713 c 1,87,-1
 721 2130 l 1,88,-1
 74 2167 l 1,89,-1
 66 2335 l 1,90,91
 142 2332 142 2332 285 2331 c 0,92,93
 583 2329 583 2329 762 2310 c 1,94,-1
 868 3109 l 1,95,-1
 1098 3215 l 1,0,-1
1846 511 m 1,96,97
 1855 538 1855 538 1867.5 587 c 128,-1,98
 1880 636 1880 636 1887 661 c 128,-1,99
 1894 686 1894 686 1902.5 707.5 c 0,100,101
 1910 730 1910 730 1914 738 c 0,102,103
 1928 771 1928 771 1918.5 812.5 c 128,-1,104
 1909 854 1909 854 1916.5 886 c 128,-1,105
 1924 918 1924 918 1916.5 932.5 c 128,-1,106
 1909 947 1909 947 1880.5 943 c 128,-1,107
 1852 939 1852 939 1838.5 934.5 c 128,-1,108
 1825 930 1825 930 1817.5 922.5 c 128,-1,109
 1810 915 1810 915 1806.5 909 c 128,-1,110
 1803 903 1803 903 1803 889.5 c 128,-1,111
 1803 876 1803 876 1804.5 866 c 128,-1,112
 1806 856 1806 856 1810 835 c 0,113,114
 1820 777 1820 777 1825 698 c 0,115,116
 1835 568 1835 568 1846 511 c 1,96,97
EndSplineSet
EndChar

StartChar: u10576
Encoding: 66934 66934 5
Width: 2228
VWidth: 0
Flags: W
VStem: 66 442<464.63 1301.81> 135 373<1541.19 2269.49> 172 320<2310 2524.1> 279 233<2894.9 3109> 1126 316<950.891 1502.65>
LayerCount: 2
Fore
SplineSet
512 3215 m 1,0,-1
 492 2318 l 1,1,-1
 508 2150 l 1,2,3
 509 2055 509 2055 509 1927 c 0,4,5
 508 1704 508 1704 506 1380 c 0,6,7
 505 1171 505 1171 505 1004 c 0,8,9
 505 766 505 766 508 614 c 0,10,11
 514 292 514 292 868 156 c 1,12,13
 898 143 898 143 927 143 c 0,14,15
 992 142 992 142 1052 208 c 0,16,17
 1082 241 1082 241 1117 285.5 c 128,-1,18
 1152 330 1152 330 1167.5 348.5 c 128,-1,19
 1183 367 1183 367 1196 384 c 1,20,21
 1151 502 1151 502 1140 586 c 128,-1,22
 1129 670 1129 670 1120 751 c 0,23,24
 1112 832 1112 832 1098 920 c 0,25,26
 1085 1006 1085 1006 1084 1090 c 0,27,28
 1084 1238 1084 1238 1126 1376 c 1,29,30
 1158 1512 1158 1512 1286 1524 c 0,31,32
 1340 1530 1340 1530 1383.5 1496 c 128,-1,33
 1427 1462 1427 1462 1455 1364 c 0,34,35
 1488 1247 1488 1247 1488 1109 c 0,36,37
 1488 1007 1488 1007 1470 893 c 0,38,39
 1463 844 1463 844 1452.5 745 c 128,-1,40
 1442 646 1442 646 1434 600 c 0,41,42
 1406 439 1406 439 1378 386 c 128,-1,43
 1350 333 1350 333 1342 319 c 1,44,45
 1425 186 1425 186 1553 164 c 0,46,47
 1613 154 1613 154 1673.5 181 c 128,-1,48
 1734 208 1734 208 1777 246.5 c 128,-1,49
 1820 285 1820 285 1849 331.5 c 128,-1,50
 1878 378 1878 378 1902 425 c 0,51,52
 2014 640 2014 640 2129 671 c 0,53,54
 2166 679 2166 679 2167 651 c 0,55,56
 2167 635 2167 635 2167 619 c 0,57,58
 2167 512 2167 512 2149 438 c 0,59,60
 2128 354 2128 354 2046 258 c 0,61,62
 1881 66 1881 66 1638 49 c 1,63,64
 1624 48 1624 48 1611 48 c 0,65,66
 1395 48 1395 48 1278 225 c 1,67,68
 1129 25 1129 25 817 25 c 0,69,70
 808 25 808 25 799 25 c 0,71,72
 642 28 642 28 530.5 75.5 c 128,-1,73
 419 123 419 123 332 203 c 128,-1,74
 245 283 245 283 208.5 343.5 c 128,-1,75
 172 404 172 404 156 454 c 0,76,77
 96 647 96 647 66 713 c 1,78,-1
 135 2130 l 1,79,-1
 172 2310 l 1,80,-1
 279 3109 l 1,81,-1
 512 3215 l 1,0,-1
1261 510 m 1,82,83
 1265 523 1265 523 1280 580 c 128,-1,84
 1295 637 1295 637 1302 661.5 c 128,-1,85
 1309 686 1309 686 1317.5 708 c 128,-1,86
 1326 730 1326 730 1329 738 c 0,87,88
 1342 771 1342 771 1332.5 812.5 c 128,-1,89
 1323 854 1323 854 1330.5 886 c 128,-1,90
 1338 918 1338 918 1330.5 932.5 c 128,-1,91
 1323 947 1323 947 1294.5 943 c 128,-1,92
 1266 939 1266 939 1252.5 934.5 c 128,-1,93
 1239 930 1239 930 1231.5 922.5 c 128,-1,94
 1224 915 1224 915 1220.5 909 c 128,-1,95
 1217 903 1217 903 1217 889.5 c 128,-1,96
 1217 876 1217 876 1218.5 866 c 128,-1,97
 1220 856 1220 856 1223.5 835 c 128,-1,98
 1227 814 1227 814 1230.5 783.5 c 0,99,100
 1234 754 1234 754 1240 686 c 0,101,102
 1250 572 1250 572 1261 510 c 1,82,83
EndSplineSet
EndChar

StartChar: u10577
Encoding: 66935 66935 6
Width: 3907
VWidth: 0
Flags: W
LayerCount: 2
Fore
SplineSet
164 2327 m 0,0,1
 162 2292 162 2292 115.5 2306.5 c 128,-1,2
 69 2321 69 2321 37 2360.5 c 128,-1,3
 5 2400 5 2400 27.5 2439.5 c 128,-1,4
 50 2479 50 2479 60 2539 c 0,5,6
 70 2600 70 2600 66 2648 c 0,7,8
 64 2673 64 2673 65 2697 c 0,9,10
 65 2915 65 2915 212 3066 c 0,11,12
 403 3262 403 3262 787 3262 c 0,13,14
 823 3262 823 3262 860 3260 c 0,15,16
 1114 3248 1114 3248 1298 3114 c 0,17,18
 1395 3043 1395 3043 1459 2980 c 1,19,20
 1741 3191 1741 3191 1848 3228.5 c 0,21,22
 1956 3266 1956 3266 2028 3280 c 0,23,24
 2080 3290 2080 3290 2134 3290 c 0,25,26
 2229 3290 2229 3290 2335 3260 c 0,27,28
 2640 3176 2640 3176 2828 2998 c 0,29,30
 3100 2742 3100 2742 3172 2231 c 0,31,32
 3193 2084 3193 2084 3192 1945 c 0,33,34
 3192 1864 3192 1864 3185 1786 c 0,35,36
 3166 1573 3166 1573 3151 1442.5 c 128,-1,37
 3136 1312 3136 1312 3126 1184 c 0,38,39
 3119 1094 3119 1094 3119 1005 c 0,40,41
 3119 805 3119 805 3154 606 c 0,42,43
 3182 453 3182 453 3253 371 c 0,44,45
 3345 264 3345 264 3432 264 c 0,46,47
 3465 264 3465 264 3498 279 c 0,48,49
 3596 325 3596 325 3605 420 c 0,50,51
 3609 461 3609 461 3606.5 506 c 128,-1,52
 3604 551 3604 551 3605 591 c 0,53,54
 3606 630 3606 630 3620 664 c 0,55,56
 3649 737 3649 737 3789 745 c 0,57,58
 3791 745 3791 745 3794 745 c 0,59,60
 3872 746 3872 746 3887 612 c 0,61,62
 3892 568 3892 568 3892 528 c 0,63,64
 3892 440 3892 440 3866 378 c 0,65,66
 3829 288 3829 288 3789 250 c 0,67,68
 3666 130 3666 130 3602 80 c 0,69,70
 3516 13 3516 13 3374 3 c 0,71,72
 3336 0 3336 0 3303 1 c 0,73,74
 3210 1 3210 1 3144 22 c 0,75,76
 3056 51 3056 51 2986 111 c 0,77,78
 2852 227 2852 227 2780 391 c 128,-1,79
 2708 555 2708 555 2686 690 c 0,80,81
 2667 802 2667 802 2667 890 c 0,82,83
 2668 908 2668 908 2668 924 c 0,84,85
 2681 1221 2681 1221 2681 1368 c 0,86,87
 2681 1419 2681 1419 2679 1452 c 0,88,89
 2676 1515 2676 1515 2676 1582 c 0,90,91
 2676 1652 2676 1652 2680 1727 c 0,92,93
 2686 1876 2686 1876 2694 1976 c 0,94,95
 2698 2034 2698 2034 2698 2091 c 0,96,97
 2698 2282 2698 2282 2650 2462 c 0,98,99
 2587 2695 2587 2695 2568 2747 c 0,100,101
 2493 2956 2493 2956 2379 3024 c 0,102,103
 2305 3067 2305 3067 2186 3067 c 0,104,105
 2102 3067 2102 3067 1996 3046 c 0,106,107
 1768 3000 1768 3000 1582 2855 c 1,108,109
 1609 2826 1609 2826 1647 2785 c 0,110,111
 1759 2663 1759 2663 1795.5 2535.5 c 128,-1,112
 1832 2408 1832 2408 1839 2274.5 c 128,-1,113
 1846 2141 1846 2141 1859.5 2018 c 128,-1,114
 1873 1895 1873 1895 1880 1784.5 c 128,-1,115
 1887 1674 1887 1674 1888 1519 c 0,116,117
 1888 1511 1888 1511 1888 1504 c 0,118,119
 1888 1181 1888 1181 1802 762 c 0,120,121
 1741 464 1741 464 1554 224 c 0,122,123
 1466 112 1466 112 1358 52 c 0,124,125
 1272 4 1272 4 1205 4 c 0,126,127
 1186 4 1186 4 1170 7 c 0,128,129
 1090 23 1090 23 1042.5 50 c 128,-1,130
 995 77 995 77 958.5 110.5 c 128,-1,131
 922 144 922 144 890 197 c 128,-1,132
 858 250 858 250 836 298 c 128,-1,133
 814 346 814 346 794.5 417.5 c 128,-1,134
 775 489 775 489 763 543 c 128,-1,135
 751 597 751 597 738 679.5 c 0,136,137
 724 762 724 762 718 816 c 0,138,139
 692 1033 692 1033 685 1086 c 0,140,141
 667 1218 667 1218 667 1352 c 0,142,143
 667 1727 667 1727 811 2114 c 0,144,145
 957 2504 957 2504 1186 2740 c 1,146,147
 1080 2892 1080 2892 928 2977 c 0,148,149
 830 3032 830 3032 715 3032 c 0,150,151
 651 3032 651 3032 582 3015 c 1,152,153
 189 2911 189 2911 164 2327 c 0,0,1
1286 2576 m 1,154,155
 1270 2558 1270 2558 1254 2540 c 0,156,157
 1052 2315 1052 2315 968 2081 c 0,158,159
 892 1870 892 1870 892 1611 c 0,160,161
 892 1584 892 1584 893 1556 c 0,162,163
 908 1076 908 1076 934 849 c 0,164,165
 1007 218 1007 218 1237 213 c 0,166,167
 1241 213 1241 213 1244 213 c 0,168,169
 1372 212 1372 212 1410 344 c 0,170,171
 1439 442 1439 442 1452 567 c 0,172,173
 1470 748 1470 748 1490 892 c 0,174,175
 1508 1018 1508 1018 1508 1245 c 0,176,177
 1508 1278 1508 1278 1508 1314 c 0,178,179
 1505 1592 1505 1592 1486 1716.5 c 0,180,181
 1468 1842 1468 1842 1454 1970 c 0,182,183
 1430 2196 1430 2196 1404 2294 c 0,184,185
 1371 2418 1371 2418 1286 2576 c 1,154,155
EndSplineSet
EndChar

StartChar: u10578
Encoding: 66936 66936 7
Width: 2674
VWidth: 0
Flags: W
VStem: 2494 123<1208.18 1358.44>
LayerCount: 2
Fore
SplineSet
696 3064 m 0,0,1
 904 3064 904 3064 1205 2877 c 1,2,3
 1333 3010 1333 3010 1435.5 3087 c 128,-1,4
 1538 3164 1538 3164 1656 3196.5 c 128,-1,5
 1774 3229 1774 3229 1845 3244 c 0,6,7
 1916 3260 1916 3260 2004 3266 c 0,8,9
 2034 3268 2034 3268 2062 3268 c 0,10,11
 2115 3268 2115 3268 2159 3260 c 0,12,13
 2315 3231 2315 3231 2400 3101 c 0,14,15
 2445 3033 2445 3033 2445 2957 c 0,16,17
 2445 2764 2445 2764 2154 2519 c 0,18,19
 2011 2396 2011 2396 1870 2363 c 0,20,21
 1609 2301 1609 2301 1456 2301 c 0,22,23
 1382 2301 1382 2301 1332 2315 c 0,24,25
 1269 2333 1269 2333 1158 2406 c 1,26,27
 1087 2285 1087 2285 1065 2237 c 128,-1,28
 1043 2189 1043 2189 1034 2171 c 128,-1,29
 1025 2153 1025 2153 1010 2113.5 c 128,-1,30
 995 2074 995 2074 988.5 2059 c 128,-1,31
 982 2044 982 2044 965.5 1995.5 c 0,32,33
 950 1947 950 1947 944 1931 c 0,34,35
 832 1605 832 1605 807 1473 c 0,36,37
 790 1378 790 1378 790 1283 c 0,38,39
 790 1107 790 1107 850 933 c 0,40,41
 943 667 943 667 1061.5 574 c 128,-1,42
 1180 481 1180 481 1368 431 c 0,43,44
 1593 370 1593 370 1668 368 c 0,45,46
 1680 368 1680 368 1692 367 c 0,47,48
 1752 367 1752 367 1796 378 c 0,49,50
 1849 391 1849 391 1896.5 413.5 c 128,-1,51
 1944 436 1944 436 1992 472 c 0,52,53
 2272 687 2272 687 2354 974 c 0,54,55
 2458 1336 2458 1336 2523 1360 c 0,56,57
 2566 1376 2566 1376 2591 1358.5 c 128,-1,58
 2616 1341 2616 1341 2617 1323 c 0,59,60
 2618 1283 2618 1283 2618 1246 c 0,61,62
 2618 1134 2618 1134 2604 1050 c 0,63,64
 2586 940 2586 940 2490.5 765 c 128,-1,65
 2395 590 2395 590 2282.5 459 c 128,-1,66
 2170 328 2170 328 1994 214 c 128,-1,67
 1818 100 1818 100 1612 44 c 0,68,69
 1433 -5 1433 -5 1308 -5 c 0,70,71
 1290 -6 1290 -6 1272 -4 c 0,72,73
 1138 4 1138 4 1088.5 9 c 128,-1,74
 1039 14 1039 14 971 23.5 c 128,-1,75
 903 33 903 33 855 48.5 c 0,76,77
 806 64 806 64 752 88 c 0,78,79
 650 133 650 133 561 233 c 0,80,81
 394 418 394 418 338 659 c 0,82,83
 308 789 308 789 308 909 c 0,84,85
 308 1012 308 1012 330 1110 c 0,86,87
 378 1320 378 1320 407.5 1438.5 c 128,-1,88
 437 1557 437 1557 478 1695.5 c 128,-1,89
 519 1834 519 1834 562 1938 c 0,90,91
 672 2204 672 2204 761.5 2332 c 128,-1,92
 851 2460 851 2460 912 2539 c 1,93,94
 888 2554 888 2554 837 2589 c 128,-1,95
 786 2624 786 2624 758 2639 c 128,-1,96
 730 2654 730 2654 701.5 2678 c 128,-1,97
 673 2702 673 2702 653.5 2716.5 c 128,-1,98
 634 2731 634 2731 602 2735 c 0,99,100
 570 2740 570 2740 540 2720 c 0,101,102
 468 2672 468 2672 385 2494 c 0,103,104
 376 2472 376 2472 376 2350.5 c 128,-1,105
 376 2229 376 2229 380 2118 c 2,106,-1
 385 2007 l 1,107,108
 247 1886 247 1886 169 1886 c 0,109,110
 115 1886 115 1886 88 1943 c 0,111,112
 63 1997 63 1997 63 2084 c 0,113,114
 63 2176 63 2176 90 2302 c 0,115,116
 158 2621 158 2621 251 2757.5 c 128,-1,117
 344 2894 344 2894 460.5 2979 c 128,-1,118
 577 3064 577 3064 696 3064 c 0,0,1
1425 2757 m 1,119,120
 1465 2741 1465 2741 1527 2711.5 c 128,-1,121
 1589 2682 1589 2682 1627 2666 c 128,-1,122
 1665 2650 1665 2650 1716 2636 c 0,123,124
 1758 2624 1758 2624 1801 2624 c 0,125,126
 1860 2624 1860 2624 1921 2646 c 0,127,128
 2275 2781 2275 2781 2275 3008 c 0,129,130
 2275 3023 2275 3023 2273 3039 c 0,131,132
 2267 3112 2267 3112 2197 3118 c 0,133,134
 2178 3120 2178 3120 2159 3120 c 0,135,136
 2090 3120 2090 3120 2023 3098 c 0,137,138
 1938 3071 1938 3071 1911.5 3061.5 c 128,-1,139
 1885 3052 1885 3052 1847 3038.5 c 128,-1,140
 1809 3025 1809 3025 1751.5 2997 c 128,-1,141
 1694 2969 1694 2969 1636 2928 c 0,142,143
 1559 2873 1559 2873 1425 2757 c 1,119,120
EndSplineSet
EndChar

StartChar: u10579
Encoding: 66937 66937 8
Width: 4198
VWidth: 0
Flags: W
VStem: 2916 316<935.338 1641.36>
LayerCount: 2
Fore
SplineSet
250 2659 m 128,-1,1
 219 2590 219 2590 185 2560.5 c 128,-1,2
 151 2531 151 2531 114 2550 c 128,-1,3
 77 2569 77 2569 72.5 2611.5 c 128,-1,4
 68 2654 68 2654 67 2684.5 c 128,-1,5
 66 2715 66 2715 70 2757 c 0,6,7
 77 2837 77 2837 117.5 2878.5 c 128,-1,8
 158 2920 158 2920 201 2965 c 128,-1,9
 244 3010 244 3010 266 3033 c 128,-1,10
 288 3056 288 3056 327 3092 c 128,-1,11
 366 3128 366 3128 392 3147 c 128,-1,12
 418 3166 418 3166 457 3189 c 128,-1,13
 496 3212 496 3212 531 3222 c 0,14,15
 599 3242 599 3242 664 3242 c 0,16,17
 682 3242 682 3242 700 3240 c 0,18,19
 892 3225 892 3225 1025 3112 c 128,-1,20
 1158 2999 1158 2999 1198 2819.5 c 128,-1,21
 1238 2640 1238 2640 1255 2469 c 0,22,23
 1271 2307 1271 2307 1271 2167 c 0,24,25
 1271 2159 1271 2159 1271 2150 c 0,26,27
 1270 2002 1270 2002 1261.5 1854 c 128,-1,28
 1253 1706 1253 1706 1243.5 1556.5 c 128,-1,29
 1234 1407 1234 1407 1230 1259 c 0,30,31
 1229 1217 1229 1217 1229 1175 c 0,32,33
 1229 887 1229 887 1282 594 c 0,34,35
 1299 500 1299 500 1356 416 c 0,36,37
 1451 277 1451 277 1560 278 c 0,38,39
 1603 278 1603 278 1647 299 c 1,40,41
 1980 493 1980 493 2166 787 c 0,42,43
 2276 962 2276 962 2378 1200.5 c 128,-1,44
 2480 1439 2480 1439 2532 1621 c 1,45,46
 2470 1610 2470 1610 2408 1610 c 0,47,48
 2258 1610 2258 1610 2108 1678 c 0,49,50
 2010 1722 2010 1722 1946 1798 c 128,-1,51
 1882 1874 1882 1874 1839 1937 c 128,-1,52
 1796 2000 1796 2000 1765 2067.5 c 0,53,54
 1734 2136 1734 2136 1722 2204 c 0,55,56
 1714 2252 1714 2252 1714 2308 c 0,57,58
 1714 2419 1714 2419 1745 2566 c 0,59,60
 1840 3016 1840 3016 2310 3240 c 0,61,62
 2356 3262 2356 3262 2400 3262 c 0,63,64
 2508 3262 2508 3262 2604 3130 c 0,65,66
 2703 2994 2703 2994 2751 2660 c 0,67,68
 2772 2510 2772 2510 2772 2373 c 0,69,70
 2772 2285 2772 2285 2764 2201 c 0,71,72
 2741 1988 2741 1988 2717 1818 c 1,73,74
 2748 1839 2748 1839 2773 1861 c 0,75,76
 2860 1940 2860 1940 2890 1963.5 c 128,-1,77
 2920 1987 2920 1987 2942.5 2032 c 128,-1,78
 2965 2077 2965 2077 2977 2120 c 0,79,80
 2989 2162 2989 2162 3004 2202 c 0,81,82
 3034 2281 3034 2281 3104 2282 c 0,83,84
 3110 2282 3110 2282 3117 2281 c 0,85,86
 3200 2272 3200 2272 3218 2192 c 0,87,88
 3233 2128 3233 2128 3233 2070 c 0,89,90
 3233 2056 3233 2056 3233 2042 c 0,91,92
 3231 2012 3231 2012 3231 1981 c 0,93,94
 3231 1939 3231 1939 3234 1893 c 0,95,96
 3236 1862 3236 1862 3236 1824 c 0,97,98
 3236 1764 3236 1764 3230 1686 c 0,99,100
 3220 1560 3220 1560 3206 1471 c 0,101,102
 3184 1338 3184 1338 3185 1213 c 0,103,104
 3185 1112 3185 1112 3199 1016 c 0,105,106
 3204 979 3204 979 3210.5 913 c 128,-1,107
 3217 847 3217 847 3220.5 822.5 c 128,-1,108
 3224 798 3224 798 3234.5 751.5 c 0,109,110
 3245 704 3245 704 3259 676 c 0,111,112
 3383 423 3383 423 3603 345 c 0,113,114
 3635 333 3635 333 3664 333 c 0,115,116
 3700 334 3700 334 3730 352 c 0,117,118
 3784 384 3784 384 3822.5 440.5 c 0,119,120
 3861 496 3861 496 3878 550 c 0,121,122
 3925 699 3925 699 4014 774 c 1,123,124
 4035 785 4035 785 4055 785 c 0,125,126
 4094 786 4094 786 4128 746 c 0,127,128
 4152 720 4152 720 4133 691 c 128,-1,129
 4114 662 4114 662 4065.5 589.5 c 128,-1,130
 4017 517 4017 517 3994.5 485.5 c 128,-1,131
 3972 454 3972 454 3929.5 397 c 128,-1,132
 3887 340 3887 340 3854.5 308 c 128,-1,133
 3822 276 3822 276 3776 234 c 0,134,135
 3695 161 3695 161 3569 100 c 0,136,137
 3484 59 3484 59 3397 59 c 0,138,139
 3356 58 3356 58 3312 68 c 0,140,141
 3180 98 3180 98 3105 213 c 1,142,143
 3016 333 3016 333 2993 407 c 128,-1,144
 2970 481 2970 481 2961 511 c 128,-1,145
 2952 541 2952 541 2944.5 589.5 c 128,-1,146
 2937 638 2937 638 2933.5 665.5 c 128,-1,147
 2930 693 2930 693 2926.5 748.5 c 128,-1,148
 2923 804 2923 804 2922 831 c 128,-1,149
 2921 858 2921 858 2919 922.5 c 0,150,151
 2916 987 2916 987 2914 1055 c 0,152,153
 2914 1064 2914 1064 2914 1074 c 0,154,155
 2914 1140 2914 1140 2928 1242 c 0,156,157
 2944 1360 2944 1360 2967 1447 c 0,158,159
 3016 1642 3016 1642 3016 1789 c 0,160,161
 3016 1813 3016 1813 3015 1835 c 0,162,163
 3011 1914 3011 1914 2954 1892 c 0,164,165
 2918 1878 2918 1878 2833 1809 c 128,-1,166
 2748 1740 2748 1740 2699 1705 c 1,167,168
 2626 1284 2626 1284 2413 922 c 1,169,170
 2164 490 2164 490 1962 296 c 0,171,172
 1874 212 1874 212 1760 125 c 0,173,174
 1636 30 1636 30 1505 30 c 0,175,176
 1392 30 1392 30 1274 102 c 1,177,178
 1094 206 1094 206 992 336.5 c 128,-1,179
 890 467 890 467 851 653 c 128,-1,180
 812 839 812 839 804 1019 c 0,181,182
 801 1088 801 1088 802 1154 c 0,183,184
 802 1259 802 1259 809 1354 c 0,185,186
 821 1509 821 1509 835 1661.5 c 128,-1,187
 849 1814 849 1814 849 1997 c 0,188,189
 849 2307 849 2307 777 2634 c 0,190,191
 708 2934 708 2934 496 2998 c 0,192,193
 472 3006 472 3006 451 3006 c 0,194,195
 378 3006 378 3006 340 2910 c 0,196,197
 318 2854 318 2854 299.5 2791 c 128,-1,0
 281 2728 281 2728 250 2659 c 128,-1,1
2574 1783 m 1,198,199
 2624 2018 2624 2018 2624 2318 c 0,200,201
 2624 2431 2624 2431 2617 2552 c 0,202,203
 2597 2854 2597 2854 2500 3034 c 0,204,205
 2448 3132 2448 3132 2386.5 3144 c 128,-1,206
 2325 3156 2325 3156 2266 3123 c 128,-1,207
 2207 3090 2207 3090 2156.5 3036 c 128,-1,208
 2106 2982 2106 2982 2077.5 2916.5 c 0,209,210
 2049 2850 2049 2850 2034 2780 c 0,211,212
 2020 2714 2020 2714 2020 2638 c 0,213,214
 2020 2633 2020 2633 2020 2628 c 0,215,216
 2022 2471 2022 2471 2056.5 2297 c 128,-1,217
 2091 2123 2091 2123 2220.5 1992.5 c 128,-1,218
 2350 1862 2350 1862 2535 1794 c 0,219,220
 2555 1786 2555 1786 2574 1783 c 1,198,199
EndSplineSet
EndChar

StartChar: u1057A
Encoding: 66938 66938 9
Width: 2674
VWidth: 0
Flags: W
HStem: 16 238<1790.78 2201.5> 651 287<581.464 1014.14> 1602 147<273.504 743.346> 3113 147<1013.43 1318.77>
VStem: 729 148<2511.77 2959.74> 1356 405<2414.76 3021.67> 2494 123<520.91 1142.96>
LayerCount: 2
Fore
SplineSet
66 1917 m 1,0,-1
 86 1991 l 1,1,2
 94 1991 94 1991 110.5 1966 c 128,-1,3
 127 1941 127 1941 153 1905.5 c 128,-1,4
 179 1870 179 1870 215 1834 c 0,5,6
 302 1748 302 1748 438 1749 c 0,7,8
 710 1749 710 1749 987 1966 c 0,9,10
 1075 2036 1075 2036 1100 2074 c 0,11,12
 1129 2119 1129 2119 1121.5 2126.5 c 128,-1,13
 1114 2134 1114 2134 1068.5 2178 c 128,-1,14
 1023 2222 1023 2222 1012 2233 c 128,-1,15
 1001 2244 1001 2244 965.5 2281 c 128,-1,16
 930 2318 930 2318 917.5 2334 c 128,-1,17
 905 2350 905 2350 878.5 2384 c 128,-1,18
 852 2418 852 2418 838 2444 c 0,19,20
 730 2639 730 2639 729.5 2728.5 c 128,-1,21
 729 2818 729 2818 784 2927 c 0,22,23
 896 3150 896 3150 1106 3232 c 0,24,25
 1186 3260 1186 3260 1256 3260 c 0,26,27
 1365 3260 1365 3260 1516 3174 c 1,28,29
 1607 3117 1607 3117 1656 3048 c 128,-1,30
 1705 2979 1705 2979 1733 2854 c 128,-1,31
 1761 2729 1761 2729 1761 2617 c 0,32,33
 1761 2301 1761 2301 1555 2049 c 1,34,35
 1647 1994 1647 1994 1787 1924 c 0,36,37
 2280 1678 2280 1678 2458 1412 c 0,38,39
 2521 1318 2521 1318 2569 1173.5 c 128,-1,40
 2617 1029 2617 1029 2617 953.5 c 128,-1,41
 2617 878 2617 878 2608 803 c 128,-1,42
 2599 728 2599 728 2595 655 c 128,-1,43
 2591 582 2591 582 2562 497.5 c 128,-1,44
 2533 413 2533 413 2476 341 c 0,45,46
 2377 216 2377 216 2167 82 c 0,47,48
 2031 16 2031 16 2003 16 c 0,49,50
 2001 16 2001 16 1999 16 c 1,51,52
 1930 16 1930 16 1888.5 21.5 c 128,-1,53
 1847 27 1847 27 1793.5 36 c 128,-1,54
 1740 45 1740 45 1676 54 c 0,55,56
 1566 70 1566 70 1376 188 c 1,57,58
 1276 245 1276 245 1216.5 327.5 c 128,-1,59
 1157 410 1157 410 1121 457 c 0,60,61
 1038 565 1038 565 938 608 c 128,-1,62
 838 651 838 651 721.5 651 c 128,-1,63
 605 651 605 651 521 603 c 128,-1,64
 437 555 437 555 404.5 530 c 128,-1,65
 372 505 372 505 358.5 489 c 128,-1,66
 345 473 345 473 314.5 427.5 c 128,-1,67
 284 382 284 382 263.5 355 c 0,68,69
 244 328 244 328 212 266 c 0,70,71
 129 102 129 102 119 102 c 1,72,73
 111 107 111 107 111 176 c 0,74,75
 111 362 111 362 236.5 528.5 c 128,-1,76
 362 695 362 695 467 778 c 128,-1,77
 572 861 572 861 696 899.5 c 128,-1,78
 820 938 820 938 937 938 c 0,79,80
 1184 938 1184 938 1462 660 c 0,81,82
 1516 606 1516 606 1572.5 546.5 c 128,-1,83
 1629 487 1629 487 1682 436 c 0,84,85
 1735 386 1735 386 1789 344 c 0,86,87
 1905 254 1905 254 1995.5 254 c 128,-1,88
 2086 254 2086 254 2167 287 c 0,89,90
 2494 419 2494 419 2494 782 c 0,91,92
 2494 1038 2494 1038 2367 1311 c 1,93,94
 2313 1440 2313 1440 2248.5 1494 c 128,-1,95
 2184 1548 2184 1548 2149 1571 c 128,-1,96
 2114 1594 2114 1594 2046 1634 c 128,-1,97
 1978 1674 1978 1674 1903 1721.5 c 128,-1,98
 1828 1769 1828 1769 1672.5 1838 c 128,-1,99
 1517 1907 1517 1907 1451 1938 c 1,100,101
 1446 1934 1446 1934 1400 1890 c 0,102,103
 1306 1800 1306 1800 1002 1688 c 0,104,105
 954 1670 954 1670 944.5 1667 c 128,-1,106
 935 1664 935 1664 895.5 1650 c 128,-1,107
 856 1636 856 1636 842 1633 c 128,-1,108
 828 1630 828 1630 795.5 1621 c 128,-1,109
 763 1612 763 1612 743 1610 c 128,-1,110
 723 1608 723 1608 696 1605 c 128,-1,111
 669 1602 669 1602 644.5 1602 c 128,-1,112
 620 1602 620 1602 574 1609 c 128,-1,113
 528 1616 528 1616 478.5 1621 c 128,-1,114
 429 1626 429 1626 355 1647.5 c 128,-1,115
 281 1669 281 1669 214 1704 c 0,116,117
 66 1781 66 1781 66 1917 c 1,0,-1
1194 2241 m 1,118,119
 1356 2587 1356 2587 1356 2838.5 c 128,-1,120
 1356 3090 1356 3090 1225 3109 c 0,121,122
 1209 3113 1209 3113 1147.5 3113 c 0,123,124
 1086 3114 1086 3114 1010 3056 c 0,125,126
 878 2956 878 2956 877 2703 c 0,127,128
 876 2577 876 2577 968 2464 c 0,129,130
 1096 2305 1096 2305 1194 2241 c 1,118,119
EndSplineSet
EndChar

StartChar: u1057B
Encoding: 66939 66939 10
Width: 2699
VWidth: 0
Flags: W
HStem: 16 238<1790.78 2201.5> 651 287<581.464 1014.14> 1602 147<273.504 743.346> 3113 147<1013.43 1318.77>
VStem: 729 148<2511.77 2959.74> 1356 405<2414.76 3021.67> 1913 102<2178.22 2220.96> 2494 123<520.91 1142.96>
LayerCount: 2
Fore
SplineSet
66 1917 m 1,0,-1
 86 1991 l 1,1,2
 94 1991 94 1991 110.5 1966 c 128,-1,3
 127 1941 127 1941 153 1905.5 c 128,-1,4
 179 1870 179 1870 215 1834 c 0,5,6
 302 1748 302 1748 438 1749 c 0,7,8
 710 1749 710 1749 987 1966 c 0,9,10
 1075 2036 1075 2036 1100 2074 c 0,11,12
 1129 2119 1129 2119 1121.5 2126.5 c 128,-1,13
 1114 2134 1114 2134 1068.5 2178 c 128,-1,14
 1023 2222 1023 2222 1012 2233 c 128,-1,15
 1001 2244 1001 2244 965.5 2281 c 128,-1,16
 930 2318 930 2318 917.5 2334 c 128,-1,17
 905 2350 905 2350 878.5 2384 c 128,-1,18
 852 2418 852 2418 838 2444 c 0,19,20
 730 2639 730 2639 729.5 2728.5 c 128,-1,21
 729 2818 729 2818 784 2927 c 0,22,23
 896 3150 896 3150 1106 3232 c 0,24,25
 1186 3260 1186 3260 1256 3260 c 0,26,27
 1365 3260 1365 3260 1516 3174 c 1,28,29
 1607 3117 1607 3117 1656 3048 c 128,-1,30
 1705 2979 1705 2979 1733 2854 c 128,-1,31
 1761 2729 1761 2729 1761 2617 c 0,32,33
 1761 2301 1761 2301 1555 2049 c 1,34,35
 1647 1994 1647 1994 1787 1924 c 0,36,37
 2280 1678 2280 1678 2458 1412 c 0,38,39
 2521 1318 2521 1318 2569 1173.5 c 128,-1,40
 2617 1029 2617 1029 2617 953.5 c 128,-1,41
 2617 878 2617 878 2608 803 c 128,-1,42
 2599 728 2599 728 2595 655 c 128,-1,43
 2591 582 2591 582 2562 497.5 c 128,-1,44
 2533 413 2533 413 2476 341 c 0,45,46
 2377 216 2377 216 2167 82 c 0,47,48
 2031 16 2031 16 2003 16 c 0,49,50
 2001 16 2001 16 1999 16 c 1,51,52
 1930 16 1930 16 1888.5 21.5 c 128,-1,53
 1847 27 1847 27 1793.5 36 c 128,-1,54
 1740 45 1740 45 1676 54 c 0,55,56
 1566 70 1566 70 1376 188 c 1,57,58
 1276 245 1276 245 1216.5 327.5 c 128,-1,59
 1157 410 1157 410 1121 457 c 0,60,61
 1038 565 1038 565 938 608 c 128,-1,62
 838 651 838 651 721.5 651 c 128,-1,63
 605 651 605 651 521 603 c 128,-1,64
 437 555 437 555 404.5 530 c 128,-1,65
 372 505 372 505 358.5 489 c 128,-1,66
 345 473 345 473 314.5 427.5 c 128,-1,67
 284 382 284 382 263.5 355 c 0,68,69
 244 328 244 328 212 266 c 0,70,71
 129 102 129 102 119 102 c 1,72,73
 111 107 111 107 111 176 c 0,74,75
 111 362 111 362 236.5 528.5 c 128,-1,76
 362 695 362 695 467 778 c 128,-1,77
 572 861 572 861 696 899.5 c 128,-1,78
 820 938 820 938 937 938 c 0,79,80
 1184 938 1184 938 1462 660 c 0,81,82
 1516 606 1516 606 1572.5 546.5 c 128,-1,83
 1629 487 1629 487 1682 436 c 0,84,85
 1735 386 1735 386 1789 344 c 0,86,87
 1905 254 1905 254 1995.5 254 c 128,-1,88
 2086 254 2086 254 2167 287 c 0,89,90
 2494 419 2494 419 2494 782 c 0,91,92
 2494 1038 2494 1038 2367 1311 c 1,93,94
 2313 1440 2313 1440 2248.5 1494 c 128,-1,95
 2184 1548 2184 1548 2149 1571 c 128,-1,96
 2114 1594 2114 1594 2046 1634 c 128,-1,97
 1978 1674 1978 1674 1903 1721.5 c 128,-1,98
 1828 1769 1828 1769 1672.5 1838 c 128,-1,99
 1517 1907 1517 1907 1451 1938 c 1,100,101
 1446 1934 1446 1934 1400 1890 c 0,102,103
 1306 1800 1306 1800 1002 1688 c 0,104,105
 954 1670 954 1670 944.5 1667 c 128,-1,106
 935 1664 935 1664 895.5 1650 c 128,-1,107
 856 1636 856 1636 842 1633 c 128,-1,108
 828 1630 828 1630 795.5 1621 c 128,-1,109
 763 1612 763 1612 743 1610 c 128,-1,110
 723 1608 723 1608 696 1605 c 128,-1,111
 669 1602 669 1602 644.5 1602 c 128,-1,112
 620 1602 620 1602 574 1609 c 128,-1,113
 528 1616 528 1616 478.5 1621 c 128,-1,114
 429 1626 429 1626 355 1647.5 c 128,-1,115
 281 1669 281 1669 214 1704 c 0,116,117
 66 1781 66 1781 66 1917 c 1,0,-1
1948.5 2174.5 m 128,-1,119
 1907 2190 1907 2190 1915.5 2233 c 128,-1,120
 1924 2276 1924 2276 1938 2323 c 128,-1,121
 1952 2370 1952 2370 1974.5 2418.5 c 128,-1,122
 1997 2467 1997 2467 2012 2496 c 128,-1,123
 2027 2525 2027 2525 2062 2586.5 c 128,-1,124
 2097 2648 2097 2648 2110.5 2673 c 128,-1,125
 2124 2698 2124 2698 2151 2749 c 128,-1,126
 2178 2800 2178 2800 2188 2817.5 c 128,-1,127
 2198 2835 2198 2835 2221 2873 c 128,-1,128
 2244 2911 2244 2911 2261 2932 c 0,129,130
 2311 2994 2311 2994 2363 3039 c 1,131,132
 2456 3132 2456 3132 2570 3132 c 0,133,134
 2589 3132 2589 3132 2609 3129 c 0,135,136
 2652 3122 2652 3122 2638 3032 c 0,137,138
 2634 3010 2634 3010 2633 2996 c 128,-1,139
 2632 2982 2632 2982 2624.5 2970.5 c 128,-1,140
 2617 2959 2617 2959 2604.5 2945.5 c 128,-1,141
 2592 2932 2592 2932 2576 2907 c 128,-1,142
 2560 2882 2560 2882 2505.5 2787 c 128,-1,143
 2451 2692 2451 2692 2411 2642 c 128,-1,144
 2371 2592 2371 2592 2310.5 2510.5 c 0,145,146
 2250 2428 2250 2428 2219 2390 c 0,147,148
 2128 2277 2128 2277 2015 2179 c 0,149,118
 1990 2159 1990 2159 1948.5 2174.5 c 128,-1,119
1194 2241 m 1,150,151
 1356 2587 1356 2587 1356 2838.5 c 128,-1,152
 1356 3090 1356 3090 1225 3109 c 0,153,154
 1209 3113 1209 3113 1147.5 3113 c 0,155,156
 1086 3114 1086 3114 1010 3056 c 0,157,158
 878 2956 878 2956 877 2703 c 0,159,160
 876 2577 876 2577 968 2464 c 0,161,162
 1096 2305 1096 2305 1194 2241 c 1,150,151
EndSplineSet
EndChar

StartChar: u1057C
Encoding: 66940 66940 11
Width: 1642
VWidth: 0
Flags: W
LayerCount: 2
Fore
SplineSet
1249 40 m 1,0,-1
 1257 160 l 1,1,2
 1262 247 1262 247 1286 336 c 0,3,4
 1313 435 1313 435 1313 509 c 0,5,6
 1313 564 1313 564 1298 606 c 1,7,8
 1256 758 1256 758 1225 829 c 128,-1,9
 1194 900 1194 900 1183 926 c 128,-1,10
 1172 952 1172 952 1148 998 c 128,-1,11
 1124 1044 1124 1044 1113.5 1064 c 128,-1,12
 1103 1084 1103 1084 1073 1135 c 128,-1,13
 1043 1186 1043 1186 1032.5 1203.5 c 128,-1,14
 1022 1221 1022 1221 985.5 1281 c 128,-1,15
 949 1341 949 1341 938 1360 c 1,16,17
 912 1309 912 1309 855 1195.5 c 128,-1,18
 798 1082 798 1082 773.5 1035 c 128,-1,19
 749 988 749 988 704 904 c 0,20,21
 522 566 522 566 392.5 404.5 c 128,-1,22
 263 243 263 243 139 119 c 1,23,24
 110 97 110 97 87 112 c 128,-1,25
 64 127 64 127 70 139 c 0,26,27
 114 230 114 230 294.5 449.5 c 128,-1,28
 475 669 475 669 519.5 750 c 128,-1,29
 564 831 564 831 592.5 882 c 128,-1,30
 621 933 621 933 651 990.5 c 128,-1,31
 681 1048 681 1048 693.5 1071 c 128,-1,32
 706 1094 706 1094 736 1158 c 0,33,34
 799 1290 799 1290 875 1458 c 1,35,36
 846 1504 846 1504 787 1590 c 128,-1,37
 728 1676 728 1676 676 1755 c 0,38,39
 539 1962 539 1962 483 2130 c 128,-1,40
 427 2298 427 2298 421 2386 c 0,41,42
 420 2407 420 2407 420 2430 c 0,43,44
 420 2561 420 2561 471 2715 c 0,45,46
 532 2894 532 2894 595 2987.5 c 128,-1,47
 658 3081 658 3081 778 3166 c 1,48,49
 876 3244 876 3244 970 3244 c 0,50,51
 1070 3244 1070 3244 1168 3154 c 0,52,53
 1237 3091 1237 3091 1257 3017 c 0,54,55
 1321 2775 1321 2775 1321 2586 c 0,56,57
 1322 2528 1322 2528 1316 2476 c 0,58,59
 1286 2217 1286 2217 1248.5 2111.5 c 128,-1,60
 1211 2006 1211 2006 1198 1972.5 c 0,61,62
 1185 1938 1185 1938 1155 1868 c 0,63,64
 1096 1728 1096 1728 1069 1658 c 1,65,66
 1138 1559 1138 1559 1236 1430 c 0,67,68
 1433 1171 1433 1171 1536 930 c 0,69,70
 1584 823 1584 823 1584 745 c 0,71,72
 1584 737 1584 737 1584 729 c 0,73,74
 1576 618 1576 618 1532 475 c 128,-1,75
 1488 332 1488 332 1432.5 237.5 c 128,-1,76
 1377 143 1377 143 1270 20 c 0,77,78
 1250 -3 1250 -3 1249 40 c 1,0,-1
1003 1757 m 1,79,80
 1093 1995 1093 1995 1159.5 2248.5 c 128,-1,81
 1226 2502 1226 2502 1233 2554 c 128,-1,82
 1240 2606 1240 2606 1236 2662 c 0,83,84
 1217 2936 1217 2936 1125 3012 c 0,85,86
 1111 3024 1111 3024 1082 3047 c 128,-1,87
 1053 3070 1053 3070 1024.5 3094.5 c 128,-1,88
 996 3119 996 3119 944 3117.5 c 128,-1,89
 892 3116 892 3116 833 3057 c 0,90,91
 670 2894 670 2894 658 2626 c 0,92,93
 657 2610 657 2610 657 2593 c 0,94,95
 656 2340 656 2340 828 2044 c 0,96,97
 852 2004 852 2004 896.5 1932 c 128,-1,98
 941 1860 941 1860 962.5 1823 c 128,-1,99
 984 1786 984 1786 1003 1757 c 1,79,80
EndSplineSet
EndChar

StartChar: u1057E
Encoding: 66942 66942 12
Width: 1744
VWidth: 0
Flags: W
HStem: 2863 377<642.42 1017.12>
VStem: 631 401<2955.29 3216.49>
LayerCount: 2
Fore
SplineSet
404 1432 m 128,-1,1
 372 1402 372 1402 321 1364 c 128,-1,2
 270 1326 270 1326 166.5 1285.5 c 128,-1,3
 63 1245 63 1245 67.5 1263 c 128,-1,4
 72 1281 72 1281 203.5 1403.5 c 128,-1,5
 335 1526 335 1526 388 1583.5 c 128,-1,6
 441 1641 441 1641 485 1702.5 c 128,-1,7
 529 1764 529 1764 550 1799.5 c 128,-1,8
 571 1835 571 1835 584 1860 c 128,-1,9
 597 1885 597 1885 613.5 1928 c 128,-1,10
 630 1971 630 1971 637 1990 c 128,-1,11
 644 2009 644 2009 662.5 2065 c 128,-1,12
 681 2121 681 2121 697.5 2169.5 c 128,-1,13
 714 2218 714 2218 726 2310 c 0,14,15
 756 2541 756 2541 811 2646 c 0,16,17
 833 2689 833 2689 886 2589 c 0,18,19
 887 2586 887 2586 930.5 2502 c 128,-1,20
 974 2418 974 2418 1073 2178.5 c 128,-1,21
 1172 1939 1172 1939 1231.5 1831.5 c 128,-1,22
 1291 1724 1291 1724 1338 1664.5 c 128,-1,23
 1385 1605 1385 1605 1426.5 1561 c 128,-1,24
 1468 1517 1468 1517 1508 1469 c 0,25,26
 1600 1359 1600 1359 1647 1196 c 0,27,28
 1686 1057 1686 1057 1686 923 c 0,29,30
 1686 716 1686 716 1593 520 c 0,31,32
 1500 334 1500 334 1334 230 c 0,33,34
 1212 153 1212 153 1097 97.5 c 128,-1,35
 982 42 982 42 916 22 c 0,36,37
 856 4 856 4 795 5 c 0,38,39
 713 5 713 5 629 37 c 0,40,41
 484 94 484 94 398.5 172 c 128,-1,42
 313 250 313 250 233 385 c 1,43,44
 221 411 221 411 221 434 c 0,45,46
 221 478 221 478 263 516 c 0,47,48
 293 542 293 542 322.5 532 c 128,-1,49
 352 522 352 522 361.5 497.5 c 0,50,51
 371 472 371 472 368 446 c 0,52,53
 367 438 367 438 367 430 c 0,54,55
 366 323 366 323 524 202 c 0,56,57
 646 108 646 108 750 108 c 0,58,59
 790 108 790 108 826 122 c 0,60,61
 840 127 840 127 870 138.5 c 128,-1,62
 900 150 900 150 943.5 165 c 128,-1,63
 987 180 987 180 1004 186.5 c 128,-1,64
 1021 193 1021 193 1054.5 207.5 c 128,-1,65
 1088 222 1088 222 1107 234 c 0,66,67
 1210 298 1210 298 1248 364 c 0,68,69
 1258 380 1258 380 1264.5 391.5 c 128,-1,70
 1271 403 1271 403 1278.5 423 c 128,-1,71
 1286 443 1286 443 1289.5 451.5 c 128,-1,72
 1293 460 1293 460 1299 484.5 c 0,73,74
 1305 510 1305 510 1307 516 c 0,75,76
 1346 642 1346 642 1346 835 c 0,77,78
 1346 961 1346 961 1330 1115 c 0,79,80
 1314 1270 1314 1270 1278 1331 c 0,81,82
 1172 1539 1172 1539 1164.5 1550.5 c 128,-1,83
 1157 1562 1157 1562 1078.5 1670.5 c 128,-1,84
 1000 1779 1000 1779 881 1954 c 0,85,86
 862 1984 862 1984 838 1984 c 0,87,88
 802 1984 802 1984 754 1920 c 0,89,90
 725 1882 725 1882 657.5 1764 c 128,-1,91
 590 1646 590 1646 565.5 1616.5 c 128,-1,92
 541 1587 541 1587 507 1546 c 128,-1,93
 473 1505 473 1505 454.5 1483.5 c 128,-1,0
 436 1462 436 1462 404 1432 c 128,-1,1
825 2846 m 128,-1,95
 798 2845 798 2845 729.5 2868.5 c 128,-1,96
 661 2892 661 2892 628 2981 c 0,97,98
 611 3027 611 3027 611 3066 c 0,99,100
 611 3104 611 3104 627 3136 c 0,101,102
 659 3201 659 3201 710.5 3216 c 0,103,104
 762 3232 762 3232 803 3244 c 128,-1,105
 844 3256 844 3256 878 3256 c 0,106,107
 948 3256 948 3256 990 3204 c 0,108,109
 1013 3176 1013 3176 1022 3138.5 c 128,-1,110
 1031 3101 1031 3101 1038 3079 c 0,111,112
 1046 3055 1046 3055 1046 3032 c 0,113,114
 1046 2990 1046 2990 1022 2949 c 0,115,116
 984 2885 984 2885 918 2866 c 128,-1,94
 852 2847 852 2847 825 2846 c 128,-1,95
EndSplineSet
EndChar

StartChar: u10586
Encoding: 66950 66950 13
Width: 3538
VWidth: 0
Flags: W
HStem: 340 229<1051.74 1333.1> 2970 299<1691.82 2242.96>
VStem: 639 217<911.815 2111.59> 1462 385<760.617 2044.44> 2261 475<-209.6 401.719> 2511 622<1235.45 1946 2187 2630.45> 3117 348<136.539 619.314>
LayerCount: 2
Fore
SplineSet
216 2392.5 m 128,-1,1
 197 2316 197 2316 165.5 2261.5 c 128,-1,2
 134 2207 134 2207 105 2307 c 0,3,4
 94 2343 94 2343 75 2420 c 0,5,6
 62 2469 62 2469 62 2510 c 0,7,8
 62 2533 62 2533 66 2553 c 0,9,10
 77 2609 77 2609 84 2648 c 128,-1,11
 91 2687 91 2687 94.5 2702 c 0,12,13
 98 2716 98 2716 106 2744 c 0,14,15
 120 2788 120 2788 182 2874 c 128,-1,16
 244 2960 244 2960 292 3011 c 128,-1,17
 340 3062 340 3062 422 3105 c 128,-1,18
 504 3148 504 3148 538 3164 c 0,19,20
 634 3208 634 3208 717 3208 c 0,21,22
 729 3208 729 3208 741 3207 c 0,23,24
 752 3206 752 3206 783.5 3203.5 c 128,-1,25
 815 3201 815 3201 825.5 3200 c 128,-1,26
 836 3199 836 3199 860 3196 c 0,27,28
 884 3194 884 3194 898 3190 c 0,29,30
 1065 3148 1065 3148 1200 3039 c 0,31,32
 1214 3026 1214 3026 1246 3000 c 0,33,34
 1303 2953 1303 2953 1329 2926 c 1,35,36
 1372 2958 1372 2958 1401 2984.5 c 128,-1,37
 1430 3011 1430 3011 1461.5 3032.5 c 128,-1,38
 1493 3054 1493 3054 1535.5 3079.5 c 0,39,40
 1578 3106 1578 3106 1625 3138 c 0,41,42
 1812 3267 1812 3267 1988 3267 c 0,43,44
 1991 3266 1991 3266 1995 3266 c 0,45,46
 2174 3264 2174 3264 2294 3235.5 c 0,47,48
 2414 3208 2414 3208 2465 3186 c 0,49,50
 2695 3090 2695 3090 2896 2870 c 0,51,52
 3016 2739 3016 2739 3064 2577 c 0,53,54
 3072 2548 3072 2548 3074.5 2541 c 128,-1,55
 3077 2534 3077 2534 3086 2495 c 128,-1,56
 3095 2456 3095 2456 3098.5 2443.5 c 128,-1,57
 3102 2431 3102 2431 3106 2414 c 128,-1,58
 3110 2397 3110 2397 3113.5 2378 c 128,-1,59
 3117 2359 3117 2359 3119 2347 c 128,-1,60
 3121 2335 3121 2335 3123.5 2312 c 128,-1,61
 3126 2289 3126 2289 3127 2279.5 c 128,-1,62
 3128 2270 3128 2270 3130 2241.5 c 0,63,64
 3132 2214 3132 2214 3136 2166 c 0,65,66
 3140 2117 3140 2117 3140 2057 c 0,67,68
 3140 1788 3140 1788 3056 1303 c 0,69,70
 3042 1222 3042 1222 3024.5 1149 c 128,-1,71
 3007 1076 3007 1076 2998 1031.5 c 128,-1,72
 2989 987 2989 987 2978.5 942.5 c 128,-1,73
 2968 898 2968 898 2961 872 c 128,-1,74
 2954 846 2954 846 2938.5 792 c 0,75,76
 2924 738 2924 738 2910 691 c 0,77,78
 2848 476 2848 476 2802.5 325 c 128,-1,79
 2757 174 2757 174 2751.5 101 c 128,-1,80
 2746 28 2746 28 2741 -18.5 c 128,-1,81
 2736 -65 2736 -65 2735 -84 c 0,82,83
 2734 -104 2734 -104 2732 -138 c 0,84,85
 2730 -165 2730 -165 2730 -192 c 0,86,87
 2730 -288 2730 -288 2750 -380 c 0,88,89
 2776 -499 2776 -499 2797 -508 c 128,-1,90
 2818 -517 2818 -517 2832.5 -516.5 c 128,-1,91
 2847 -516 2847 -516 2866.5 -503.5 c 128,-1,92
 2886 -491 2886 -491 2901.5 -478.5 c 128,-1,93
 2917 -466 2917 -466 2936.5 -446 c 128,-1,94
 2956 -426 2956 -426 2969.5 -411 c 128,-1,95
 2983 -396 2983 -396 2999 -378 c 128,-1,96
 3015 -360 3015 -360 3023 -352 c 0,97,98
 3241 -107 3241 -107 3241 -17 c 0,99,100
 3240 -4 3240 -4 3236 6 c 0,101,102
 3224 30 3224 30 3208 41 c 0,103,104
 3155 75 3155 75 3148.5 115.5 c 128,-1,105
 3142 156 3142 156 3134.5 195.5 c 128,-1,106
 3127 235 3127 235 3123.5 256 c 128,-1,107
 3120 277 3120 277 3116 307 c 0,108,109
 3111 352 3111 352 3111 388 c 0,110,111
 3111 451 3111 451 3127 489 c 0,112,113
 3151 550 3151 550 3181.5 589 c 128,-1,114
 3212 628 3212 628 3230.5 636.5 c 128,-1,115
 3249 645 3249 645 3280 650.5 c 128,-1,116
 3311 656 3311 656 3328 659 c 128,-1,117
 3345 662 3345 662 3351 663 c 128,-1,118
 3357 664 3357 664 3369.5 664.5 c 128,-1,119
 3382 665 3382 665 3388.5 663 c 128,-1,120
 3395 661 3395 661 3404 656 c 128,-1,121
 3413 651 3413 651 3420 643 c 128,-1,122
 3427 635 3427 635 3433 626 c 128,-1,123
 3439 617 3439 617 3444 610 c 128,-1,124
 3449 603 3449 603 3453 592.5 c 128,-1,125
 3457 582 3457 582 3459.5 576.5 c 128,-1,126
 3462 571 3462 571 3464.5 558 c 128,-1,127
 3467 545 3467 545 3468 540.5 c 128,-1,128
 3469 536 3469 536 3471 520.5 c 0,129,130
 3474 505 3474 505 3474 501 c 0,131,132
 3480 454 3480 454 3479 406 c 0,133,134
 3479 365 3479 365 3475 324 c 0,135,136
 3466 234 3466 234 3462.5 142 c 128,-1,137
 3459 50 3459 50 3436 -64 c 0,138,139
 3377 -355 3377 -355 3269 -549 c 0,140,141
 3254 -574 3254 -574 3234 -612 c 0,142,143
 3166 -745 3166 -745 3100 -766 c 0,144,145
 3090 -769 3090 -769 3067.5 -773.5 c 0,146,147
 3046 -778 3046 -778 2996 -793 c 0,148,149
 2942 -809 2942 -809 2891 -809 c 0,150,151
 2834 -808 2834 -808 2780 -788 c 0,152,153
 2768 -784 2768 -784 2763 -782 c 128,-1,154
 2758 -780 2758 -780 2745 -773.5 c 128,-1,155
 2732 -767 2732 -767 2727.5 -765 c 128,-1,156
 2723 -763 2723 -763 2707.5 -755 c 128,-1,157
 2692 -747 2692 -747 2686 -744 c 128,-1,158
 2680 -741 2680 -741 2658 -730.5 c 128,-1,159
 2636 -720 2636 -720 2626 -714.5 c 0,160,161
 2616 -708 2616 -708 2600 -698 c 0,162,163
 2552 -667 2552 -667 2474 -492 c 1,164,165
 2420 -388 2420 -388 2371 -265 c 0,166,167
 2261 11 2261 11 2261 344 c 0,168,169
 2261 391 2261 391 2272 456.5 c 128,-1,170
 2283 522 2283 522 2286.5 554 c 128,-1,171
 2290 586 2290 586 2294 609 c 128,-1,172
 2298 632 2298 632 2305.5 665 c 128,-1,173
 2313 698 2313 698 2331 783.5 c 128,-1,174
 2349 869 2349 869 2370.5 949.5 c 128,-1,175
 2392 1030 2392 1030 2402 1095.5 c 128,-1,176
 2412 1161 2412 1161 2442 1283 c 0,177,178
 2483 1448 2483 1448 2489.5 1566.5 c 128,-1,179
 2496 1685 2496 1685 2502.5 1779.5 c 0,180,181
 2510 1874 2510 1874 2512 1911 c 0,182,183
 2514 1934 2514 1934 2513 1986 c 0,184,185
 2512 2017 2512 2017 2512 2058 c 0,186,187
 2510 2168 2510 2168 2510.5 2190.5 c 128,-1,188
 2511 2213 2511 2213 2512.5 2262 c 128,-1,189
 2514 2311 2514 2311 2514 2336 c 0,190,191
 2511 2468 2511 2468 2468.5 2555.5 c 128,-1,192
 2426 2643 2426 2643 2389.5 2698 c 0,193,194
 2354 2752 2354 2752 2342 2770 c 0,195,196
 2305 2827 2305 2827 2273 2854.5 c 128,-1,197
 2241 2882 2241 2882 2232 2892.5 c 0,198,199
 2224 2902 2224 2902 2220 2906 c 0,200,201
 2212 2914 2212 2914 2185.5 2922 c 128,-1,202
 2159 2930 2159 2930 2121.5 2942.5 c 128,-1,203
 2084 2955 2084 2955 2068 2959 c 0,204,205
 2016 2972 2016 2972 1959 2972 c 0,206,207
 1823 2972 1823 2972 1663 2896 c 0,208,209
 1552 2840 1552 2840 1456 2754 c 1,210,211
 1459 2749 1459 2749 1469.5 2732.5 c 128,-1,212
 1480 2716 1480 2716 1518.5 2633.5 c 128,-1,213
 1557 2551 1557 2551 1602.5 2460 c 128,-1,214
 1648 2369 1648 2369 1676 2291.5 c 128,-1,215
 1704 2214 1704 2214 1739.5 2104 c 128,-1,216
 1775 1994 1775 1994 1795 1936 c 0,217,218
 1833 1825 1833 1825 1837 1706 c 0,219,220
 1842 1586 1842 1586 1854 1518 c 0,221,222
 1863 1466 1863 1466 1863 1402 c 0,223,224
 1863 1381 1863 1381 1862 1359 c 0,225,226
 1858 1268 1858 1268 1854.5 1160.5 c 128,-1,227
 1851 1053 1851 1053 1845.5 979 c 128,-1,228
 1840 905 1840 905 1803 781.5 c 128,-1,229
 1766 658 1766 658 1733 615 c 128,-1,230
 1700 572 1700 572 1679.5 549 c 128,-1,231
 1659 526 1659 526 1645 512 c 128,-1,232
 1631 498 1631 498 1604.5 472.5 c 128,-1,233
 1578 447 1578 447 1558.5 427.5 c 0,234,235
 1540 408 1540 408 1486 388 c 0,236,237
 1355 338 1355 338 1240 337 c 0,238,239
 1138 337 1138 337 1049 377 c 0,240,241
 962 416 962 416 852 598 c 0,242,243
 846 611 846 611 833.5 632 c 128,-1,244
 821 653 821 653 814 666.5 c 128,-1,245
 807 680 807 680 803.5 687.5 c 128,-1,246
 800 695 800 695 794 708 c 0,247,248
 745 823 745 823 723 930 c 128,-1,249
 701 1037 701 1037 694 1066.5 c 128,-1,250
 687 1096 687 1096 680.5 1138 c 128,-1,251
 674 1180 674 1180 671 1206 c 0,252,253
 639 1478 639 1478 639 1591 c 2,254,-1
 639 1792 l 2,255,256
 640 2126 640 2126 838 2440 c 0,257,258
 910 2553 910 2553 1101 2731 c 0,259,260
 1106 2736 1106 2736 1111 2741 c 1,261,262
 1102 2755 1102 2755 1090.5 2768 c 128,-1,263
 1079 2781 1079 2781 1073 2788.5 c 0,264,265
 1066 2796 1066 2796 1050 2810 c 0,266,267
 1023 2832 1023 2832 999.5 2850 c 128,-1,268
 976 2868 976 2868 943 2894 c 0,269,270
 870 2951 870 2951 737 2976 c 0,271,272
 676 2988 676 2988 625 2988 c 0,273,274
 564 2988 564 2988 518 2972 c 0,275,276
 432 2942 432 2942 392.5 2910.5 c 128,-1,277
 353 2879 353 2879 315 2812.5 c 128,-1,278
 277 2746 277 2746 260 2668 c 128,-1,279
 243 2590 243 2590 239 2529.5 c 128,-1,0
 235 2469 235 2469 216 2392.5 c 128,-1,1
1043 2308 m 0,280,281
 850 2012 850 2012 850 1350 c 0,282,283
 850 1245 850 1245 868 1144 c 0,284,285
 886 1044 886 1044 893 1004 c 0,286,287
 913 889 913 889 948.5 800.5 c 128,-1,288
 984 712 984 712 992 699 c 0,289,290
 1053 599 1053 599 1110.5 581 c 128,-1,291
 1168 563 1168 563 1220 569 c 128,-1,292
 1272 575 1272 575 1297.5 599.5 c 128,-1,293
 1323 624 1323 624 1354 704 c 0,294,295
 1445 939 1445 939 1462 1368 c 0,296,297
 1464 1398 1464 1398 1464 1435 c 0,298,299
 1464 1499 1464 1499 1457 1584 c 0,300,301
 1445 1716 1445 1716 1442.5 1747 c 128,-1,302
 1440 1778 1440 1778 1435 1830.5 c 128,-1,303
 1430 1883 1430 1883 1428 1904.5 c 128,-1,304
 1426 1926 1426 1926 1420.5 1968 c 128,-1,305
 1415 2010 1415 2010 1409 2038 c 0,306,307
 1361 2259 1361 2259 1221 2543 c 1,308,309
 1213 2534 1213 2534 1202 2520 c 128,-1,310
 1191 2506 1191 2506 1147 2450 c 0,311,312
 1086 2374 1086 2374 1043 2308 c 0,280,281
EndSplineSet
EndChar

StartChar: u10580
Encoding: 66944 66944 14
Width: 2433
VWidth: 0
Flags: W
HStem: 1901 110<641.816 1109.03> 2167 168<66 668 791 1622> 2654 467<1465.33 1764.87>
VStem: 668 123<1217.36 2167 2351 2880.01> 1335 410<-464.126 151.013 175.643 1654.16> 1335 381<-464.126 1055.39>
LayerCount: 2
Fore
SplineSet
671 1997 m 1,0,-1
 668 2167 l 1,1,-1
 66 2179 l 1,2,-1
 66 2335 l 1,3,-1
 668 2351 l 1,4,5
 677 2436 677 2436 680 2548 c 0,6,7
 691 2939 691 2939 777 3066 c 0,8,9
 812 3116 812 3116 880 3169 c 0,10,11
 999 3261 999 3261 1174 3261 c 0,12,13
 1290 3261 1290 3261 1430 3221 c 0,14,15
 1694 3146 1694 3146 1785 3004 c 0,16,17
 1794 2990 1794 2990 1816.5 2951.5 c 128,-1,18
 1839 2913 1839 2913 1852 2889 c 0,19,20
 1871 2854 1871 2854 1871 2822 c 0,21,22
 1872 2782 1872 2782 1842 2744 c 0,23,24
 1836 2736 1836 2736 1813 2725 c 128,-1,25
 1790 2714 1790 2714 1779.5 2708.5 c 0,26,27
 1768 2703 1768 2703 1746 2687 c 0,28,29
 1700 2654 1700 2654 1657.5 2654 c 128,-1,30
 1615 2654 1615 2654 1588 2656 c 0,31,32
 1425 2668 1425 2668 1393 2902 c 0,33,34
 1377 3016 1377 3016 1303 3080 c 0,35,36
 1235 3142 1235 3142 1156 3142 c 0,37,38
 1099 3142 1099 3142 1036 3109 c 1,39,40
 956 3061 956 3061 912 3000 c 128,-1,41
 868 2939 868 2939 839.5 2848 c 128,-1,42
 811 2757 811 2757 803.5 2680 c 128,-1,43
 796 2603 796 2603 796 2502.5 c 128,-1,44
 796 2402 796 2402 791 2335 c 1,45,-1
 1622 2327 l 1,46,-1
 1638 2179 l 1,47,-1
 782 2167 l 1,48,49
 791 2040 791 2040 791 2019 c 1,50,51
 870 2030 870 2030 981 2030 c 0,52,53
 1127 2030 1127 2030 1327 2011 c 1,54,55
 1442 2006 1442 2006 1508 1933 c 128,-1,56
 1574 1860 1574 1860 1602.5 1802.5 c 0,57,58
 1631 1744 1631 1744 1667 1608 c 0,59,60
 1746 1309 1746 1309 1746 903 c 0,61,62
 1746 746 1746 746 1734 572 c 0,63,64
 1716 306 1716 306 1716 160 c 1,65,-1
 1711 -90 l 1,66,67
 1711 -256 1711 -256 1743.5 -376 c 128,-1,68
 1776 -496 1776 -496 1782 -508 c 128,-1,69
 1788 -520 1788 -520 1799 -543 c 128,-1,70
 1810 -566 1810 -566 1822 -580 c 0,71,72
 1891 -657 1891 -657 1948 -657 c 0,73,74
 1962 -657 1962 -657 1974 -653 c 0,75,76
 2028 -636 2028 -636 2081 -591.5 c 128,-1,77
 2134 -547 2134 -547 2147.5 -521.5 c 128,-1,78
 2161 -496 2161 -496 2171.5 -457.5 c 128,-1,79
 2182 -419 2182 -419 2197 -391.5 c 128,-1,80
 2212 -364 2212 -364 2228 -300 c 128,-1,81
 2244 -236 2244 -236 2264.5 -202 c 128,-1,82
 2285 -168 2285 -168 2318.5 -171 c 128,-1,83
 2352 -174 2352 -174 2362.5 -187 c 128,-1,84
 2373 -200 2373 -200 2370 -222.5 c 128,-1,85
 2367 -245 2367 -245 2360.5 -266.5 c 128,-1,86
 2354 -288 2354 -288 2343 -320.5 c 128,-1,87
 2332 -353 2332 -353 2322 -403 c 0,88,89
 2295 -538 2295 -538 2237 -604 c 0,90,91
 2080 -781 2080 -781 1869 -781 c 0,92,93
 1817 -781 1817 -781 1761 -770 c 1,94,95
 1561 -743 1561 -743 1467 -564 c 0,96,97
 1351 -344 1351 -344 1335 0 c 0,98,99
 1325 214 1325 214 1325 398 c 0,100,101
 1325 513 1325 513 1329 615 c 0,102,103
 1337 827 1337 827 1337 994 c 0,104,105
 1337 1207 1337 1207 1324 1346 c 0,106,107
 1301 1594 1301 1594 1272.5 1670.5 c 128,-1,108
 1244 1747 1244 1747 1167 1806 c 1,109,110
 1051 1906 1051 1906 872 1906 c 0,111,112
 833 1906 833 1906 792 1901 c 1,113,114
 793 1838 793 1838 802 1650 c 0,115,116
 806 1555 806 1555 806 1470 c 0,117,118
 806 1064 806 1064 706 900 c 0,119,120
 660 824 660 824 576 752 c 0,121,122
 532 715 532 715 480 714 c 0,123,124
 432 714 432 714 377 745 c 0,125,126
 335 769 335 769 297.5 830 c 128,-1,127
 260 891 260 891 256.5 922.5 c 128,-1,128
 253 954 253 954 248.5 1004.5 c 128,-1,129
 244 1055 244 1055 243 1064.5 c 128,-1,130
 242 1074 242 1074 239 1115 c 128,-1,131
 236 1156 236 1156 236 1167 c 128,-1,132
 236 1178 236 1178 234.5 1213 c 128,-1,133
 233 1248 233 1248 234 1264 c 128,-1,134
 235 1280 235 1280 236 1311.5 c 0,135,136
 238 1342 238 1342 240 1366 c 0,137,138
 261 1564 261 1564 294 1646 c 128,-1,139
 327 1728 327 1728 402 1838 c 0,140,141
 478 1950 478 1950 671 1997 c 1,0,-1
672 1867 m 1,142,143
 614 1838 614 1838 557 1764.5 c 0,144,145
 500 1690 500 1690 481 1636 c 0,146,147
 446 1536 446 1536 446 1401 c 1,148,149
 440 1324 440 1324 440 1249 c 0,150,151
 440 1071 440 1071 475 905 c 0,152,153
 478 884 478 884 513.5 885 c 128,-1,154
 549 886 549 886 561 903.5 c 128,-1,155
 573 921 573 921 581.5 937 c 128,-1,156
 590 953 590 953 594.5 963.5 c 128,-1,157
 599 974 599 974 602.5 992.5 c 128,-1,158
 606 1011 606 1011 607.5 1019 c 128,-1,159
 609 1027 609 1027 611 1053.5 c 0,160,161
 614 1080 614 1080 632 1224 c 0,162,163
 664 1478 664 1478 672 1867 c 1,142,143
EndSplineSet
EndChar

StartChar: u10581
Encoding: 66945 66945 15
Width: 3133
VWidth: 0
Flags: W
HStem: 2212 176<1200.92 2038.79>
LayerCount: 2
Fore
SplineSet
1171 2380 m 0,0,1
 1166 2410 1166 2410 1211 2407 c 0,2,3
 1231 2406 1231 2406 1320 2385.5 c 0,4,5
 1409 2364 1409 2364 1554 2360 c 0,6,7
 1586 2359 1586 2359 1615 2360 c 0,8,9
 1719 2360 1719 2360 1788 2372 c 0,10,11
 1877 2388 1877 2388 1969.5 2435 c 128,-1,12
 2062 2482 2062 2482 2111 2532.5 c 0,13,14
 2160 2582 2160 2582 2200 2656 c 0,15,16
 2239 2727 2239 2727 2240 2800 c 0,17,18
 2240 2846 2240 2846 2224 2892 c 1,19,20
 2192 3012 2192 3012 2101 3052 c 1,21,22
 2004 3106 2004 3106 1937 3110.5 c 128,-1,23
 1870 3115 1870 3115 1823 3117.5 c 128,-1,24
 1776 3120 1776 3120 1712 3124 c 0,25,26
 1676 3126 1676 3126 1643 3125 c 0,27,28
 1545 3125 1545 3125 1468 3109 c 0,29,30
 1365 3086 1365 3086 1337.5 3080 c 128,-1,31
 1310 3074 1310 3074 1303 3072.5 c 128,-1,32
 1296 3071 1296 3071 1273.5 3065.5 c 128,-1,33
 1251 3060 1251 3060 1242.5 3057 c 128,-1,34
 1234 3054 1234 3054 1215 3048 c 128,-1,35
 1196 3042 1196 3042 1185.5 3036.5 c 0,36,37
 1174 3031 1174 3031 1158 3023 c 0,38,39
 1045 2968 1045 2968 952 2879.5 c 128,-1,40
 859 2791 859 2791 786 2706.5 c 128,-1,41
 713 2622 713 2622 681 2572 c 0,42,43
 552 2371 552 2371 478 2126 c 0,44,45
 434 1981 434 1981 434 1771 c 0,46,47
 434 1660 434 1660 446 1532 c 0,48,49
 464 1328 464 1328 516 1199 c 0,50,51
 593 1006 593 1006 702 855.5 c 128,-1,52
 811 705 811 705 871.5 642.5 c 128,-1,53
 932 580 932 580 1018 523 c 128,-1,54
 1104 466 1104 466 1142 442 c 0,55,56
 1244 380 1244 380 1360 371 c 0,57,58
 1400 368 1400 368 1436 367 c 0,59,60
 1501 367 1501 367 1548 379 c 0,61,62
 1644 403 1644 403 1802 477 c 1,63,64
 1709 609 1709 609 1679.5 694 c 128,-1,65
 1650 779 1650 779 1624.5 918 c 128,-1,66
 1599 1057 1599 1057 1590 1129 c 0,67,68
 1580 1212 1580 1212 1580 1287 c 0,69,70
 1580 1382 1580 1382 1596 1466 c 0,71,72
 1625 1616 1625 1616 1657.5 1692 c 128,-1,73
 1690 1768 1690 1768 1725 1809 c 128,-1,74
 1760 1850 1760 1850 1780 1871 c 128,-1,75
 1800 1892 1800 1892 1803.5 1895.5 c 128,-1,76
 1807 1899 1807 1899 1824 1916.5 c 128,-1,77
 1841 1934 1841 1934 1846 1938 c 128,-1,78
 1851 1942 1851 1942 1866.5 1955.5 c 128,-1,79
 1882 1969 1882 1969 1890 1973.5 c 128,-1,80
 1898 1978 1898 1978 1913 1988.5 c 128,-1,81
 1928 1999 1928 1999 1939.5 2004 c 128,-1,82
 1951 2009 1951 2009 1967 2016 c 128,-1,83
 1983 2023 1983 2023 2020.5 2036 c 128,-1,84
 2058 2049 2058 2049 2136 2040.5 c 128,-1,85
 2214 2032 2214 2032 2282 1973 c 0,86,87
 2429 1846 2429 1846 2472.5 1663.5 c 0,88,89
 2516 1482 2516 1482 2518 1356 c 0,90,91
 2518 1352 2518 1352 2518 1347 c 0,92,93
 2518 1224 2518 1224 2476 1061 c 0,94,95
 2432 892 2432 892 2394 804 c 0,96,97
 2345 689 2345 689 2223 535 c 1,98,99
 2242 508 2242 508 2279.5 464 c 0,100,101
 2316 420 2316 420 2402 370 c 0,102,103
 2486 321 2486 321 2573 321 c 0,104,105
 2637 321 2637 321 2703 348 c 0,106,107
 2776 374 2776 374 2811 412 c 128,-1,108
 2846 450 2846 450 2879 488.5 c 128,-1,109
 2912 527 2912 527 2935 554.5 c 128,-1,110
 2958 582 2958 582 2985.5 676.5 c 128,-1,111
 3013 771 3013 771 3022 772 c 128,-1,112
 3031 773 3031 773 3034.5 764 c 128,-1,113
 3038 755 3038 755 3044 743 c 128,-1,114
 3050 731 3050 731 3057.5 709.5 c 128,-1,115
 3065 688 3065 688 3067 664 c 128,-1,116
 3069 640 3069 640 3071 623 c 128,-1,117
 3073 606 3073 606 3068.5 579 c 128,-1,118
 3064 552 3064 552 3062 538.5 c 128,-1,119
 3060 525 3060 525 3050.5 494 c 128,-1,120
 3041 463 3041 463 3038 452.5 c 128,-1,121
 3035 442 3035 442 3022 405.5 c 0,122,123
 3010 369 3010 369 2994 326 c 0,124,125
 2955 218 2955 218 2862 154.5 c 128,-1,126
 2769 91 2769 91 2716 78.5 c 128,-1,127
 2663 66 2663 66 2612.5 66 c 128,-1,128
 2562 66 2562 66 2513 65.5 c 128,-1,129
 2464 65 2464 65 2446.5 65.5 c 128,-1,130
 2429 66 2429 66 2390 67.5 c 128,-1,131
 2351 69 2351 69 2330 74 c 128,-1,132
 2309 79 2309 79 2277 87 c 0,133,134
 2223 100 2223 100 2131 153 c 0,135,136
 2013 219 2013 219 1944 302 c 1,137,138
 1926 290 1926 290 1882 262.5 c 0,139,140
 1838 234 1838 234 1779 196 c 0,141,142
 1552 48 1552 48 1296 48 c 0,143,144
 1280 48 1280 48 1264 49 c 0,145,146
 1236 50 1236 50 1161 57 c 128,-1,147
 1086 64 1086 64 1066 65.5 c 128,-1,148
 1046 67 1046 67 1014.5 69.5 c 128,-1,149
 983 72 983 72 969.5 73.5 c 0,150,151
 956 76 956 76 932 80 c 0,152,153
 770 111 770 111 541 340 c 1,154,155
 311 585 311 585 237 725 c 128,-1,156
 163 865 163 865 136.5 952.5 c 128,-1,157
 110 1040 110 1040 88 1166 c 0,158,159
 66 1293 66 1293 66 1427 c 0,160,161
 66 1509 66 1509 74 1593 c 0,162,163
 77 1621 77 1621 82 1689.5 c 128,-1,164
 87 1758 87 1758 91 1790 c 128,-1,165
 95 1822 95 1822 103 1876 c 0,166,167
 133 2076 133 2076 281 2346 c 0,168,169
 466 2684 466 2684 529 2749.5 c 0,170,171
 592 2816 592 2816 679 2890 c 0,172,173
 849 3036 849 3036 1062.5 3134.5 c 0,174,175
 1276 3234 1276 3234 1471 3252 c 0,176,177
 1570 3261 1570 3261 1655 3261 c 0,178,179
 1737 3261 1737 3261 1806 3252 c 0,180,181
 1946 3234 1946 3234 2072.5 3198 c 128,-1,182
 2199 3162 2199 3162 2226 3142.5 c 128,-1,183
 2253 3123 2253 3123 2269.5 3098 c 128,-1,184
 2286 3073 2286 3073 2299.5 3053 c 128,-1,185
 2313 3033 2313 3033 2317 3026.5 c 128,-1,186
 2321 3020 2321 3020 2332 3002.5 c 128,-1,187
 2343 2985 2343 2985 2346.5 2977 c 128,-1,188
 2350 2969 2350 2969 2358 2953.5 c 128,-1,189
 2366 2938 2366 2938 2368.5 2927 c 0,190,191
 2372 2916 2372 2916 2376 2901 c 0,192,193
 2382 2881 2382 2881 2384 2806 c 0,194,195
 2384 2794 2384 2794 2385 2783 c 0,196,197
 2385 2629 2385 2629 2310 2494 c 0,198,199
 2276 2434 2276 2434 2235 2402 c 128,-1,200
 2194 2370 2194 2370 2103 2324 c 0,201,202
 1886 2214 1886 2214 1595 2188 c 0,203,204
 1562 2185 1562 2185 1529 2185 c 0,205,206
 1427 2185 1427 2185 1324 2214 c 0,207,208
 1189 2252 1189 2252 1171 2380 c 0,0,1
2134 680 m 1,209,210
 2337 865 2337 865 2337 1187 c 0,211,212
 2336 1198 2336 1198 2336 1210 c 0,213,214
 2336 1232 2336 1232 2332 1295 c 128,-1,215
 2328 1358 2328 1358 2327 1377.5 c 128,-1,216
 2326 1397 2326 1397 2323.5 1448.5 c 128,-1,217
 2321 1500 2321 1500 2319 1518 c 0,218,219
 2316 1536 2316 1536 2310 1573 c 0,220,221
 2276 1766 2276 1766 2141 1766 c 0,222,223
 2118 1766 2118 1766 2093 1761 c 0,224,225
 2031 1749 2031 1749 2001 1720 c 0,226,227
 1970 1690 1970 1690 1954 1580 c 0,228,229
 1936 1459 1936 1459 1936 1348 c 0,230,231
 1936 1091 1936 1091 2032 884 c 0,232,233
 2071 798 2071 798 2134 680 c 1,209,210
EndSplineSet
EndChar

StartChar: u10582
Encoding: 66946 66946 16
Width: 2441
VWidth: 0
Flags: W
HStem: 2945 324<1766.29 2090.76>
VStem: 1024 217<609.77 1081.19> 1401 307<1015.44 1720 2478 2783.78> 1409 221<1016 1916.4>
LayerCount: 2
Fore
SplineSet
119 864 m 1,0,1
 82 860 82 860 74 899 c 0,2,3
 66 935 66 935 66.5 971 c 128,-1,4
 67 1007 67 1007 65.5 1028 c 128,-1,5
 64 1049 64 1049 68 1078 c 128,-1,6
 72 1107 72 1107 81 1145.5 c 128,-1,7
 90 1184 90 1184 96.5 1226 c 128,-1,8
 103 1268 103 1268 134 1356.5 c 128,-1,9
 165 1445 165 1445 172.5 1471.5 c 128,-1,10
 180 1498 180 1498 197 1574.5 c 128,-1,11
 214 1651 214 1651 226 1683.5 c 128,-1,12
 238 1716 238 1716 243.5 1730 c 128,-1,13
 249 1744 249 1744 252.5 1753 c 128,-1,14
 256 1762 256 1762 264 1775.5 c 0,15,16
 272 1788 272 1788 276 1794 c 0,17,18
 302 1834 302 1834 306.5 1841.5 c 128,-1,19
 311 1849 311 1849 320 1862.5 c 128,-1,20
 329 1876 329 1876 332.5 1881 c 128,-1,21
 336 1886 336 1886 343.5 1896 c 128,-1,22
 351 1906 351 1906 356.5 1911 c 128,-1,23
 362 1916 362 1916 370 1923 c 0,24,25
 442 1982 442 1982 578 1982 c 0,26,27
 649 1982 649 1982 737 1966 c 1,28,29
 960 1916 960 1916 1094 1591 c 0,30,31
 1098 1580 1098 1580 1101 1574 c 128,-1,32
 1104 1568 1104 1568 1108 1555.5 c 128,-1,33
 1112 1543 1112 1543 1114 1538.5 c 128,-1,34
 1116 1534 1116 1534 1120 1519.5 c 128,-1,35
 1124 1505 1124 1505 1125.5 1500.5 c 128,-1,36
 1127 1496 1127 1496 1132 1478 c 128,-1,37
 1137 1460 1137 1460 1147.5 1423 c 128,-1,38
 1158 1386 1158 1386 1174.5 1277 c 0,39,40
 1192 1168 1192 1168 1214 1066 c 0,41,42
 1242 942 1242 942 1241.5 851 c 0,43,44
 1240 760 1240 760 1242 729 c 0,45,46
 1247 626 1247 626 1294 606 c 1,47,48
 1329 595 1329 595 1371.5 640 c 128,-1,49
 1414 685 1414 685 1415.5 708 c 128,-1,50
 1417 731 1417 731 1422.5 800 c 128,-1,51
 1428 869 1428 869 1427.5 883 c 128,-1,52
 1427 897 1427 897 1425 958 c 1,53,54
 1401 1139 1401 1139 1401 1285 c 0,55,56
 1401 1321 1401 1321 1403 1355 c 0,57,58
 1410 1515 1410 1515 1410 1548 c 0,59,60
 1410 1568 1410 1568 1406 1650 c 0,61,62
 1399 1793 1399 1793 1398 1906 c 0,63,64
 1398 1974 1398 1974 1401 2032 c 1,65,-1
 1401 2283 l 1,66,67
 1356 2297 1356 2297 1294 2331 c 128,-1,68
 1232 2365 1232 2365 1210 2375.5 c 128,-1,69
 1188 2386 1188 2386 1132 2418 c 0,70,71
 967 2510 967 2510 847 2510 c 0,72,73
 786 2510 786 2510 737 2486 c 0,74,75
 723 2479 723 2479 705.5 2471 c 128,-1,76
 688 2463 688 2463 682 2460 c 0,77,78
 676 2458 676 2458 666 2450 c 0,79,80
 613 2410 613 2410 613.5 2361.5 c 0,81,82
 614 2312 614 2312 620 2278 c 0,83,84
 624 2255 624 2255 623 2237 c 0,85,86
 624 2169 624 2169 572 2169 c 0,87,88
 541 2169 541 2169 524 2191 c 0,89,90
 506 2212 506 2212 490 2236 c 0,91,92
 467 2269 467 2269 468 2319 c 0,93,94
 468 2411 468 2411 545 2564 c 0,95,96
 594 2654 594 2654 655.5 2705 c 128,-1,97
 717 2756 717 2756 747 2767.5 c 0,98,99
 776 2779 776 2779 834 2786 c 0,100,101
 878 2791 878 2791 922 2791 c 0,102,103
 1034 2791 1034 2791 1142 2755 c 0,104,105
 1178 2743 1178 2743 1212.5 2735 c 128,-1,106
 1247 2727 1247 2727 1276 2714 c 128,-1,107
 1305 2701 1305 2701 1344 2678 c 128,-1,108
 1383 2655 1383 2655 1402.5 2645 c 128,-1,109
 1422 2635 1422 2635 1437 2627 c 1,110,111
 1461 2674 1461 2674 1487.5 2772 c 128,-1,112
 1514 2870 1514 2870 1525 2897.5 c 128,-1,113
 1536 2925 1536 2925 1548 2953 c 128,-1,114
 1560 2981 1560 2981 1564 2990 c 128,-1,115
 1568 2999 1568 2999 1578.5 3021 c 128,-1,116
 1589 3043 1589 3043 1596 3054.5 c 0,117,118
 1602 3066 1602 3066 1614 3084 c 0,119,120
 1679 3190 1679 3190 1810 3244 c 0,121,122
 1833 3254 1833 3254 1848 3260.5 c 128,-1,123
 1863 3267 1863 3267 1873.5 3270 c 128,-1,124
 1884 3273 1884 3273 1888 3272 c 0,125,126
 1904 3267 1904 3267 1922 3269.5 c 128,-1,127
 1940 3272 1940 3272 1958 3269.5 c 128,-1,128
 1976 3267 1976 3267 1980 3267 c 128,-1,129
 1984 3267 1984 3267 2002.5 3262.5 c 128,-1,130
 2021 3258 2021 3258 2025 3257 c 0,131,132
 2117 3234 2117 3234 2147.5 3218 c 128,-1,133
 2178 3202 2178 3202 2236 3162 c 0,134,135
 2368 3071 2368 3071 2383 2783 c 0,136,137
 2385 2744 2385 2744 2379 2694.5 c 128,-1,138
 2373 2645 2373 2645 2370 2616.5 c 128,-1,139
 2367 2588 2367 2588 2363 2566 c 0,140,141
 2352 2508 2352 2508 2295 2443 c 0,142,143
 2192 2327 2192 2327 1974 2241 c 0,144,145
 1898 2211 1898 2211 1801 2211 c 0,146,147
 1762 2211 1762 2211 1720 2216 c 0,148,149
 1713 2217 1713 2217 1705 2217 c 1,150,151
 1708 2084 1708 2084 1708 2049.5 c 0,152,153
 1708 2016 1708 2016 1710 1878 c 0,154,155
 1711 1819 1711 1819 1710 1779 c 0,156,157
 1710 1727 1710 1727 1709 1710 c 0,158,159
 1707 1680 1707 1680 1705 1647.5 c 128,-1,160
 1703 1615 1703 1615 1698.5 1574 c 128,-1,161
 1694 1533 1694 1533 1692 1517 c 128,-1,162
 1690 1501 1690 1501 1682 1443 c 0,163,164
 1667 1339 1667 1339 1641 1113 c 2,165,-1
 1630 1016 l 1,166,-1
 1631 1040 l 1,167,168
 1628 1035 1628 1035 1598 885 c 128,-1,169
 1568 735 1568 735 1555 691.5 c 128,-1,170
 1542 648 1542 648 1527 586 c 0,171,172
 1490 433 1490 433 1419.5 291.5 c 128,-1,173
 1349 150 1349 150 1309 101.5 c 128,-1,174
 1269 53 1269 53 1228 41 c 128,-1,175
 1187 29 1187 29 1118.5 27 c 128,-1,176
 1050 25 1050 25 1034 81.5 c 128,-1,177
 1018 138 1018 138 1017.5 191 c 128,-1,178
 1017 244 1017 244 1022 304.5 c 128,-1,179
 1027 365 1027 365 1024 410 c 128,-1,180
 1021 455 1021 455 1020 519 c 0,181,182
 1016 805 1016 805 916 1151 c 0,183,184
 900 1208 900 1208 888 1252 c 0,185,186
 839 1439 839 1439 669 1561 c 0,187,188
 623 1594 623 1594 583 1605 c 1,189,190
 584 1604 584 1604 585.5 1601 c 128,-1,191
 587 1598 587 1598 559.5 1592.5 c 128,-1,192
 532 1587 532 1587 474 1552.5 c 128,-1,193
 416 1518 416 1518 377.5 1479.5 c 128,-1,194
 339 1441 339 1441 326.5 1418 c 0,195,196
 314 1394 314 1394 291 1290 c 0,197,198
 202 884 202 884 119 864 c 1,0,1
1694 2518 m 1,199,200
 1764 2504 1764 2504 1802 2504 c 0,201,202
 1819 2504 1819 2504 1830 2507 c 0,203,204
 1867 2515 1867 2515 1884 2517.5 c 128,-1,205
 1901 2520 1901 2520 1906 2520.5 c 128,-1,206
 1911 2521 1911 2521 1921 2524 c 0,207,208
 2004 2549 2004 2549 2058 2635 c 0,209,210
 2108 2716 2108 2716 2108 2749 c 2,211,-1
 2102 2814 l 2,212,213
 2100 2843 2100 2843 2093.5 2854.5 c 128,-1,214
 2087 2866 2087 2866 2065 2886 c 128,-1,215
 2043 2906 2043 2906 2041.5 2907.5 c 128,-1,216
 2040 2909 2040 2909 2037 2911.5 c 128,-1,217
 2034 2914 2034 2914 2032 2916 c 0,218,219
 1994 2950 1994 2950 1938 2950 c 0,220,221
 1926 2950 1926 2950 1912 2948 c 0,222,223
 1838 2938 1838 2938 1798.5 2892.5 c 128,-1,224
 1759 2847 1759 2847 1747 2832 c 0,225,226
 1684 2754 1684 2754 1684 2633 c 0,227,228
 1684 2608 1684 2608 1687 2582 c 128,-1,229
 1690 2556 1690 2556 1694 2518 c 1,199,200
EndSplineSet
EndChar

StartChar: u10583
Encoding: 66947 66947 17
Width: 2375
VWidth: 0
Flags: W
VStem: 1335 262<860.348 1487 2236 2807.44> 2093 221<2513.88 2923.5>
LayerCount: 2
Fore
SplineSet
1367 860 m 1,0,-1
 1360 1040 l 1,1,2
 1360 1106 1360 1106 1352 1207 c 0,3,4
 1334 1443 1334 1443 1335 1712 c 2,5,-1
 1335 2167 l 2,6,7
 1336 2172 1336 2172 1334 2267 c 0,8,9
 1334 2284 1334 2284 1333 2301 c 0,10,11
 1333 2489 1333 2489 1368 2612 c 0,12,13
 1405 2747 1405 2747 1410 2767 c 128,-1,14
 1415 2787 1415 2787 1424 2828 c 0,15,16
 1460 2986 1460 2986 1522 3056 c 0,17,18
 1606 3149 1606 3149 1641.5 3177 c 128,-1,19
 1677 3205 1677 3205 1731 3229 c 0,20,21
 1812 3265 1812 3265 1902 3265 c 128,-1,22
 1992 3265 1992 3265 2039.5 3240.5 c 128,-1,23
 2087 3216 2087 3216 2115 3201.5 c 128,-1,24
 2143 3187 2143 3187 2157 3179 c 128,-1,25
 2171 3171 2171 3171 2191 3157 c 0,26,27
 2260 3108 2260 3108 2285 3011 c 0,28,29
 2314 2898 2314 2898 2314 2788 c 128,-1,30
 2314 2678 2314 2678 2304 2634.5 c 128,-1,31
 2294 2591 2294 2591 2263 2553 c 0,32,33
 2185 2457 2185 2457 2128 2457 c 0,34,35
 2123 2457 2123 2457 2118 2458 c 0,36,37
 2082 2466 2082 2466 2088 2555 c 128,-1,38
 2094 2644 2094 2644 2093 2661 c 128,-1,39
 2092 2678 2092 2678 2091 2696.5 c 128,-1,40
 2090 2715 2090 2715 2090 2724 c 0,41,42
 2090 2862 2090 2862 1991 2937 c 0,43,44
 1953 2966 1953 2966 1892.5 2968.5 c 128,-1,45
 1832 2971 1832 2971 1777 2926 c 0,46,47
 1667 2836 1667 2836 1610 2609 c 0,48,49
 1578 2472 1578 2472 1578 2361 c 0,50,51
 1578 2341 1578 2341 1579 2321 c 0,52,53
 1596 2016 1596 2016 1596 1913 c 0,54,55
 1596 1907 1596 1907 1596 1902 c 0,56,57
 1596 1892 1596 1892 1596 1882 c 0,58,59
 1596 1792 1596 1792 1604 1676 c 0,60,61
 1607 1637 1607 1637 1607 1594 c 0,62,63
 1606 1498 1606 1498 1592 1386 c 0,64,65
 1572 1226 1572 1226 1549 1101 c 128,-1,66
 1526 976 1526 976 1510 868 c 0,67,68
 1479 667 1479 667 1446.5 576.5 c 128,-1,69
 1414 486 1414 486 1394 421 c 0,70,71
 1356 294 1356 294 1321.5 241 c 0,72,73
 1288 188 1288 188 1270 150 c 0,74,75
 1237 77 1237 77 1190 49.5 c 128,-1,76
 1143 22 1143 22 1088.5 27.5 c 128,-1,77
 1034 33 1034 33 1004.5 76.5 c 128,-1,78
 975 120 975 120 964 176 c 128,-1,79
 953 232 953 232 958 282.5 c 0,80,81
 962 334 962 334 958 400 c 0,82,83
 956 435 956 435 956 480 c 0,84,85
 956 520 956 520 958 568 c 0,86,87
 960 614 960 614 960 659 c 0,88,89
 960 944 960 944 886 1160 c 0,90,91
 879 1180 879 1180 875 1192.5 c 128,-1,92
 871 1205 871 1205 861 1228.5 c 0,93,94
 852 1252 852 1252 848 1260 c 0,95,96
 826 1314 826 1314 815.5 1335.5 c 128,-1,97
 805 1357 805 1357 792.5 1390.5 c 128,-1,98
 780 1424 780 1424 772 1442 c 0,99,100
 734 1534 734 1534 634 1576 c 0,101,102
 574 1601 574 1601 533 1584.5 c 128,-1,103
 492 1568 492 1568 484 1565 c 128,-1,104
 476 1562 476 1562 464 1554 c 128,-1,105
 452 1546 452 1546 446.5 1543 c 128,-1,106
 441 1540 441 1540 427.5 1529 c 128,-1,107
 414 1518 414 1518 410 1514.5 c 128,-1,108
 406 1511 406 1511 389.5 1497 c 128,-1,109
 373 1483 373 1483 350 1460 c 128,-1,110
 327 1437 327 1437 308.5 1383 c 128,-1,111
 290 1329 290 1329 276.5 1252 c 128,-1,112
 263 1175 263 1175 245.5 1126 c 128,-1,113
 228 1077 228 1077 218.5 1053.5 c 0,114,115
 208 1030 208 1030 190 996 c 0,116,117
 158 937 158 937 90 889 c 0,118,119
 63 873 63 873 63 912 c 1,120,-1
 74 1020 l 1,121,122
 74 1063 74 1063 79.5 1127 c 128,-1,123
 85 1191 85 1191 89 1258.5 c 128,-1,124
 93 1326 93 1326 101 1367.5 c 128,-1,125
 109 1409 109 1409 116.5 1476.5 c 128,-1,126
 124 1544 124 1544 134 1583 c 128,-1,127
 144 1622 144 1622 166 1665.5 c 128,-1,128
 188 1709 188 1709 196 1729.5 c 128,-1,129
 204 1750 204 1750 214.5 1778.5 c 0,130,131
 226 1807 226 1807 232 1822 c 0,132,133
 280 1933 280 1933 463 1974 c 1,134,135
 515 1983 515 1983 564 1983 c 0,136,137
 732 1982 732 1982 868 1872 c 0,138,139
 1001 1763 1001 1763 1085 1520 c 0,140,141
 1118 1432 1118 1432 1130 1324.5 c 128,-1,142
 1142 1217 1142 1217 1151 1171 c 1,143,-1
 1207 813 l 1,144,145
 1204 823 1204 823 1188.5 767 c 0,146,147
 1172 710 1172 710 1162 552 c 0,148,149
 1160 519 1160 519 1160 493 c 0,150,151
 1160 392 1160 392 1192 385 c 0,152,153
 1194 385 1194 385 1195 385 c 0,154,155
 1246 385 1246 385 1338 687 c 0,156,157
 1367 783 1367 783 1367 860 c 1,0,-1
1207 813 m 1,158,159
 1208 811 1208 811 1208 807 c 1,160,-1
 1207 813 l 1,158,159
EndSplineSet
EndChar

StartChar: u10584
Encoding: 66948 66948 18
Width: 1941
VWidth: 0
Flags: W
HStem: 8 144<434.258 1053.79>
VStem: 1507 361<706.05 1734.6>
LayerCount: 2
Fore
SplineSet
918 3073 m 1,0,-1
 912 3074 l 2,1,2
 909 3074 909 3074 905 3072 c 0,3,4
 899 3067 899 3067 884.5 3061.5 c 128,-1,5
 870 3056 870 3056 850 3049 c 0,6,7
 822 3039 822 3039 807 3023.5 c 128,-1,8
 792 3008 792 3008 791 3007 c 0,9,10
 771 2987 771 2987 763 2977.5 c 128,-1,11
 755 2968 755 2968 749 2961 c 128,-1,12
 743 2954 743 2954 738 2944 c 128,-1,13
 733 2934 733 2934 730 2929 c 128,-1,14
 727 2924 727 2924 723 2911.5 c 0,15,16
 720 2899 720 2899 718 2894 c 0,17,18
 658 2693 658 2693 647.5 2554.5 c 128,-1,19
 637 2416 637 2416 633 2382 c 1,20,21
 693 2385 693 2385 749 2385 c 0,22,23
 856 2385 856 2385 946 2374 c 0,24,25
 1084 2358 1084 2358 1128 2344 c 0,26,27
 1187 2326 1187 2326 1246 2296.5 c 128,-1,28
 1305 2267 1305 2267 1354 2244 c 0,29,30
 1403 2222 1403 2222 1428 2208 c 0,31,32
 1568 2134 1568 2134 1659 2004 c 0,33,34
 1842 1746 1842 1746 1868 1540 c 0,35,36
 1881 1418 1881 1418 1881 1324 c 0,37,38
 1881 1251 1881 1251 1873 1195 c 0,39,40
 1855 1066 1855 1066 1835 945 c 0,41,42
 1796 710 1796 710 1711.5 559.5 c 128,-1,43
 1627 409 1627 409 1590.5 363 c 128,-1,44
 1554 317 1554 317 1503.5 277 c 128,-1,45
 1453 237 1453 237 1419.5 217 c 128,-1,46
 1386 197 1386 197 1338 173 c 0,47,48
 1085 46 1085 46 917 27 c 0,49,50
 750 8 750 8 678 8 c 0,51,52
 436 8 436 8 279 143 c 0,53,54
 76 317 76 317 76 492 c 0,55,56
 76 549 76 549 98 606 c 0,57,58
 106 626 106 626 110 653 c 0,59,60
 119 711 119 711 130 713.5 c 128,-1,61
 141 716 141 716 151.5 710.5 c 128,-1,62
 162 705 162 705 169 691.5 c 128,-1,63
 176 678 176 678 180.5 664 c 128,-1,64
 185 650 185 650 190.5 629.5 c 128,-1,65
 196 609 196 609 206 586.5 c 128,-1,66
 216 564 216 564 237.5 482.5 c 0,67,68
 259 402 259 402 288 354 c 0,69,70
 342 265 342 265 500 187 c 0,71,72
 591 143 591 143 701 143 c 0,73,74
 728 143 728 143 756 145 c 0,75,76
 899 159 899 159 989 195 c 0,77,78
 1244 297 1244 297 1369 577 c 0,79,80
 1478 822 1478 822 1494 989 c 0,81,82
 1507 1129 1507 1129 1507 1252 c 0,83,84
 1507 1276 1507 1276 1507 1298 c 0,85,86
 1504 1440 1504 1440 1489.5 1516 c 128,-1,87
 1475 1592 1475 1592 1435 1696 c 0,88,89
 1308 2028 1308 2028 1104 2139 c 0,90,91
 950 2224 950 2224 902 2238 c 0,92,93
 806 2267 806 2267 735 2267 c 0,94,95
 723 2267 723 2267 712 2266 c 0,96,97
 633 2260 633 2260 618 2259 c 1,98,99
 581 1977 581 1977 547 1894.5 c 128,-1,100
 513 1812 513 1812 487.5 1752 c 128,-1,101
 462 1692 462 1692 446 1676 c 128,-1,102
 430 1660 430 1660 407 1652 c 0,103,104
 348 1632 348 1632 296 1632 c 0,105,106
 195 1632 195 1632 119 1708 c 0,107,108
 97 1730 97 1730 90 1748 c 128,-1,109
 83 1766 83 1766 80.5 1771.5 c 128,-1,110
 78 1777 78 1777 75.5 1790 c 128,-1,111
 73 1803 73 1803 72 1807 c 128,-1,112
 71 1811 71 1811 70 1826.5 c 0,113,114
 68 1842 68 1842 68 1844 c 0,115,116
 63 1871 63 1871 63 1900 c 0,117,118
 63 1985 63 1985 111 2081 c 1,119,120
 185 2204 185 2204 307 2298 c 1,121,122
 373 2342 373 2342 423 2357 c 1,123,124
 424 2390 424 2390 425 2480 c 128,-1,125
 426 2570 426 2570 428 2618.5 c 128,-1,126
 430 2667 430 2667 431.5 2696 c 128,-1,127
 433 2725 433 2725 433.5 2731 c 128,-1,128
 434 2737 434 2737 435.5 2760 c 128,-1,129
 437 2783 437 2783 438.5 2793.5 c 128,-1,130
 440 2804 440 2804 443 2823 c 0,131,132
 447 2849 447 2849 456 2879 c 128,-1,133
 465 2909 465 2909 476.5 2948 c 128,-1,134
 488 2987 488 2987 494.5 3005 c 128,-1,135
 501 3023 501 3023 513 3052 c 0,136,137
 533 3101 533 3101 578 3153 c 0,138,139
 660 3250 660 3250 761 3262 c 0,140,141
 835 3271 835 3271 901 3272 c 0,142,143
 1206 3272 1206 3272 1339 3072 c 1,144,145
 1366 3022 1366 3022 1366 2969 c 0,146,147
 1366 2876 1366 2876 1284 2772 c 0,148,149
 1250 2729 1250 2729 1213 2728 c 0,150,151
 1192 2728 1192 2728 1168 2744 c 0,152,153
 1132 2769 1132 2769 1114 2832.5 c 128,-1,154
 1096 2896 1096 2896 1090 2912.5 c 128,-1,155
 1084 2929 1084 2929 1078.5 2942 c 128,-1,156
 1073 2955 1073 2955 1069 2961.5 c 128,-1,157
 1065 2968 1065 2968 1056 2981.5 c 128,-1,158
 1047 2995 1047 2995 1040 3006 c 0,159,160
 995 3072 995 3072 942 3072 c 1,161,-1
 918 3073 l 1,0,-1
419 2215 m 1,162,163
 324 2189 324 2189 252 2080 c 0,164,165
 235 2053 235 2053 228 2025 c 0,166,167
 207 1941 207 1941 203.5 1928.5 c 128,-1,168
 200 1916 200 1916 196.5 1901 c 128,-1,169
 193 1886 193 1886 192.5 1881.5 c 128,-1,170
 192 1877 192 1877 190 1864 c 128,-1,171
 188 1851 188 1851 188 1846 c 128,-1,172
 188 1841 188 1841 188.5 1830.5 c 128,-1,173
 189 1820 189 1820 192 1813 c 128,-1,174
 195 1806 195 1806 199 1796.5 c 128,-1,175
 203 1787 203 1787 218 1767 c 128,-1,176
 233 1747 233 1747 265.5 1734.5 c 128,-1,177
 298 1722 298 1722 317.5 1735 c 128,-1,178
 337 1748 337 1748 345 1755 c 128,-1,179
 353 1762 353 1762 359 1771 c 128,-1,180
 365 1780 365 1780 369.5 1786.5 c 128,-1,181
 374 1793 374 1793 378 1805.5 c 128,-1,182
 382 1818 382 1818 384.5 1824 c 128,-1,183
 387 1830 387 1830 389.5 1845 c 128,-1,184
 392 1860 392 1860 393 1865.5 c 128,-1,185
 394 1871 394 1871 397 1889.5 c 128,-1,186
 400 1908 400 1908 405 1933.5 c 128,-1,187
 410 1959 410 1959 413 1999 c 0,188,189
 416 2040 416 2040 416 2098 c 0,190,191
 416 2186 416 2186 419 2215 c 1,162,163
EndSplineSet
EndChar

StartChar: u10585
Encoding: 66949 66949 19
Width: 1843
VWidth: 0
Flags: W
VStem: 33 352<1516.04 2003 2499 2885.15> 700 78<2002.03 2286 2679 2948.65> 1102 348<-499.811 582.786>
LayerCount: 2
Fore
SplineSet
69 496 m 0,0,1
 59 495 59 495 51 495 c 0,2,3
 15 495 15 495 15 525 c 0,4,5
 15 546 15 546 33 582 c 0,6,7
 62 632 62 632 161 693.5 c 128,-1,8
 260 755 260 755 293 787.5 c 128,-1,9
 326 820 326 820 343 842 c 128,-1,10
 360 864 360 864 364 869 c 1,11,12
 347 902 347 902 333 926.5 c 128,-1,13
 319 951 319 951 303 983 c 128,-1,14
 287 1015 287 1015 277.5 1035.5 c 128,-1,15
 268 1056 268 1056 253 1096 c 2,16,-1
 234 1148 l 2,17,18
 157 1354 157 1354 99 1612 c 128,-1,19
 41 1870 41 1870 35 1964 c 128,-1,20
 29 2058 29 2058 27.5 2111.5 c 128,-1,21
 26 2165 26 2165 26 2202.5 c 128,-1,22
 26 2240 26 2240 29 2298 c 128,-1,23
 32 2356 32 2356 34 2383.5 c 128,-1,24
 36 2411 36 2411 41.5 2483 c 0,25,26
 48 2555 48 2555 50 2602 c 0,27,28
 59 2774 59 2774 184 3011 c 0,29,30
 191 3024 191 3024 203.5 3049 c 128,-1,31
 216 3074 216 3074 222 3085.5 c 128,-1,32
 228 3097 228 3097 240 3114 c 0,33,34
 314 3223 314 3223 455 3240 c 1,35,36
 479 3244 479 3244 502 3244 c 0,37,38
 614 3244 614 3244 690 3152 c 0,39,40
 769 3058 769 3058 781 2820 c 0,41,42
 788 2686 788 2686 788 2564 c 0,43,44
 788 2286 788 2286 752 2070 c 0,45,46
 723 1898 723 1898 706 1758 c 0,47,48
 661 1374 661 1374 565 1097 c 1,49,50
 652 899 652 899 731.5 836 c 128,-1,51
 811 773 811 773 856 750.5 c 128,-1,52
 901 728 901 728 962.5 719 c 128,-1,53
 1024 710 1024 710 1086 734.5 c 128,-1,54
 1148 759 1148 759 1204.5 778.5 c 128,-1,55
 1261 798 1261 798 1313 780 c 0,56,57
 1466 728 1466 728 1468 538 c 0,58,59
 1468 488 1468 488 1459.5 419.5 c 0,60,61
 1452 351 1452 351 1446 214 c 0,62,63
 1445 179 1445 179 1444 143 c 0,64,65
 1444 -135 1444 -135 1528 -471 c 0,66,67
 1573 -540 1573 -540 1638 -557 c 1,68,69
 1660 -557 1660 -557 1711.5 -513 c 128,-1,70
 1763 -469 1763 -469 1788 -471.5 c 128,-1,71
 1813 -474 1813 -474 1824 -511 c 0,72,73
 1830 -532 1830 -532 1830 -551 c 0,74,75
 1830 -648 1830 -648 1679 -721 c 1,76,77
 1537 -798 1537 -798 1447 -798 c 0,78,79
 1438 -798 1438 -798 1430 -797 c 0,80,81
 1336 -789 1336 -789 1298 -763.5 c 128,-1,82
 1260 -738 1260 -738 1230 -688 c 128,-1,83
 1200 -638 1200 -638 1182 -582 c 0,84,85
 1160 -516 1160 -516 1148.5 -440.5 c 128,-1,86
 1137 -365 1137 -365 1128 -306.5 c 128,-1,87
 1119 -248 1119 -248 1117 -229 c 128,-1,88
 1115 -210 1115 -210 1110 -166 c 0,89,90
 1102 -96 1102 -96 1102 -22 c 128,-1,91
 1102 52 1102 52 1109 110 c 0,92,93
 1118 181 1118 181 1143 293 c 0,94,95
 1157 355 1157 355 1157 398 c 0,96,97
 1157 432 1157 432 1148 454 c 0,98,99
 1128 504 1128 504 1079 546 c 128,-1,100
 1030 588 1030 588 965.5 592.5 c 128,-1,101
 901 597 901 597 845 590 c 128,-1,102
 789 583 789 583 747 592 c 128,-1,103
 705 601 705 601 666 605.5 c 0,104,105
 626 610 626 610 610 614 c 0,106,107
 532 631 532 631 444 736 c 0,108,109
 420 766 420 766 408 786 c 1,110,-1
 407 786 l 1,111,112
 382 746 382 746 349.5 713.5 c 128,-1,113
 317 681 317 681 275 635.5 c 0,114,115
 234 590 234 590 212 570 c 0,116,117
 148 508 148 508 69 496 c 0,0,1
529 1178 m 1,118,119
 530 1184 530 1184 534 1198 c 2,120,-1
 549 1256 l 2,121,122
 560 1300 560 1300 581 1380.5 c 128,-1,123
 602 1461 602 1461 616.5 1563 c 128,-1,124
 631 1665 631 1665 647.5 1755 c 128,-1,125
 664 1845 664 1845 671.5 1898.5 c 128,-1,126
 679 1952 679 1952 684 1996.5 c 0,127,128
 688 2041 688 2041 690 2063 c 0,129,130
 704 2262 704 2262 704 2362 c 0,131,132
 704 2369 704 2369 704 2375 c 0,133,134
 702 2474 702 2474 702 2554 c 0,135,136
 700 2918 700 2918 645 2973 c 0,137,138
 605 3013 605 3013 546 2984 c 0,139,140
 527 2974 527 2974 509 2944 c 128,-1,141
 491 2914 491 2914 485 2904.5 c 128,-1,142
 479 2895 479 2895 473 2882.5 c 128,-1,143
 467 2870 467 2870 462.5 2861.5 c 128,-1,144
 458 2853 458 2853 453.5 2839 c 128,-1,145
 449 2825 449 2825 447 2819.5 c 128,-1,146
 445 2814 445 2814 441.5 2796.5 c 128,-1,147
 438 2779 438 2779 437 2775 c 128,-1,148
 436 2771 436 2771 431.5 2748 c 128,-1,149
 427 2725 427 2725 424 2710.5 c 128,-1,150
 421 2696 421 2696 412 2661.5 c 0,151,152
 403 2626 403 2626 399 2608 c 0,153,154
 383 2535 383 2535 383 2385 c 0,155,156
 383 2370 383 2370 383 2355 c 0,157,158
 385 2182 385 2182 385 2168 c 0,159,160
 386 2154 386 2154 384 1997 c 0,161,162
 384 1954 384 1954 383 1917 c 0,163,164
 383 1818 383 1818 386 1764 c 0,165,166
 390 1688 390 1688 410.5 1590 c 128,-1,167
 431 1492 431 1492 441.5 1435.5 c 128,-1,168
 452 1379 452 1379 458 1354 c 0,169,170
 478 1272 478 1272 500 1232.5 c 128,-1,171
 522 1193 522 1193 529 1178 c 1,118,119
EndSplineSet
EndChar

StartChar: u10587
Encoding: 66951 66951 20
Width: 2453
VWidth: 0
Flags: W
HStem: 16 332<1050.79 1583.28> 2646 102<1341.01 1699.75>
VStem: 2249 143<1215.66 2242.9>
LayerCount: 2
Fore
SplineSet
1840 2914 m 1,0,1
 1780 2981 1780 2981 1732.5 3000 c 128,-1,2
 1685 3019 1685 3019 1651 3036 c 128,-1,3
 1617 3053 1617 3053 1598 3058 c 128,-1,4
 1579 3063 1579 3063 1529 3085 c 128,-1,5
 1479 3107 1479 3107 1455.5 3109 c 128,-1,6
 1432 3111 1432 3111 1416 3115 c 0,7,8
 1358 3129 1358 3129 1272 3129 c 0,9,10
 1186 3128 1186 3128 1148 3076 c 0,11,12
 1130 3051 1130 3051 1130 3022 c 0,13,14
 1130 2962 1130 2962 1211 2888 c 0,15,16
 1234 2867 1234 2867 1248 2851.5 c 128,-1,17
 1262 2836 1262 2836 1276 2827.5 c 128,-1,18
 1290 2819 1290 2819 1313.5 2810 c 128,-1,19
 1337 2801 1337 2801 1376.5 2777.5 c 128,-1,20
 1416 2754 1416 2754 1479 2750 c 0,21,22
 1495 2749 1495 2749 1511 2748 c 0,23,24
 1646 2748 1646 2748 1752 2831 c 0,25,26
 1810 2877 1810 2877 1840 2914 c 1,0,1
1346 348 m 2,27,-1
 1389 348 l 2,28,29
 1622 348 1622 348 1749 475 c 0,30,31
 1816 538 1816 538 1950 696 c 1,32,33
 2155 974 2155 974 2220 1454 c 0,34,35
 2223 1474 2223 1474 2229 1513.5 c 128,-1,36
 2235 1553 2235 1553 2237.5 1571 c 0,37,38
 2240 1590 2240 1590 2244 1620 c 0,39,40
 2250 1668 2250 1668 2249 1775 c 0,41,42
 2249 2015 2249 2015 2167 2281 c 0,43,44
 2160 2305 2160 2305 2144 2359 c 0,45,46
 2102 2505 2102 2505 2059 2583.5 c 128,-1,47
 2016 2662 2016 2662 2000 2698 c 0,48,49
 1971 2762 1971 2762 1938 2802 c 1,50,-1
 1908 2772 l 1,51,52
 1770 2645 1770 2645 1558 2645 c 0,53,54
 1552 2646 1552 2646 1546 2646 c 0,55,56
 1516 2646 1516 2646 1464.5 2646 c 128,-1,57
 1413 2646 1413 2646 1381.5 2656.5 c 128,-1,58
 1350 2667 1350 2667 1337.5 2672.5 c 128,-1,59
 1325 2678 1325 2678 1317.5 2681 c 128,-1,60
 1310 2684 1310 2684 1296.5 2692.5 c 0,61,62
 1284 2701 1284 2701 1280 2703 c 0,63,64
 1129 2789 1129 2789 1085 2848.5 c 128,-1,65
 1041 2908 1041 2908 1014 2928 c 128,-1,66
 987 2948 987 2948 957.5 2935.5 c 128,-1,67
 928 2923 928 2923 917.5 2918 c 128,-1,68
 907 2913 907 2913 897 2907.5 c 128,-1,69
 887 2902 887 2902 881.5 2899 c 128,-1,70
 876 2896 876 2896 867 2889 c 128,-1,71
 858 2882 858 2882 854.5 2879.5 c 128,-1,72
 851 2877 851 2877 841 2867.5 c 0,73,74
 832 2858 832 2858 828 2854 c 0,75,76
 779 2805 779 2805 731 2768 c 0,77,78
 559 2632 559 2632 479 2318 c 0,79,80
 468 2272 468 2272 439 2170 c 0,81,82
 380 1965 380 1965 380 1785 c 0,83,84
 380 1704 380 1704 392 1626 c 0,85,86
 420 1451 420 1451 435 1406 c 128,-1,87
 450 1361 450 1361 451.5 1353 c 0,88,89
 454 1345 454 1345 466 1285 c 0,90,91
 494 1153 494 1153 582 997 c 128,-1,92
 670 841 670 841 720 775.5 c 128,-1,93
 770 710 770 710 851 616 c 128,-1,94
 932 522 932 522 988.5 479 c 128,-1,95
 1045 436 1045 436 1096.5 411 c 128,-1,96
 1148 386 1148 386 1161 380 c 128,-1,97
 1174 374 1174 374 1184.5 369.5 c 128,-1,98
 1195 365 1195 365 1210.5 361.5 c 128,-1,99
 1226 358 1226 358 1234 356 c 128,-1,100
 1242 354 1242 354 1260 352.5 c 128,-1,101
 1278 351 1278 351 1284 350 c 0,102,103
 1296 348 1296 348 1346 348 c 2,27,-1
1996 3210 m 1,104,105
 2008 3228 2008 3228 2019 3244 c 0,106,107
 2028 3257 2028 3257 2026 3251 c 0,108,109
 2023 3239 2023 3239 2016 3224 c 1,110,111
 2061 3255 2061 3255 2091.5 3266 c 128,-1,112
 2122 3277 2122 3277 2131.5 3238.5 c 128,-1,113
 2141 3200 2141 3200 2132 3153 c 0,114,115
 2104 3005 2104 3005 2027 2902 c 1,116,117
 2111 2846 2111 2846 2249 2531 c 0,118,119
 2283 2450 2283 2450 2302 2365 c 128,-1,120
 2321 2280 2321 2280 2328 2251 c 128,-1,121
 2335 2222 2335 2222 2354 2153 c 0,122,123
 2389 2027 2389 2027 2392 1918 c 0,124,125
 2393 1892 2393 1892 2393 1865 c 0,126,127
 2393 1777 2393 1777 2384 1677 c 0,128,129
 2372 1546 2372 1546 2366 1455 c 0,130,131
 2353 1279 2353 1279 2323 1146 c 0,132,133
 2292 1013 2292 1013 2204 826 c 0,134,135
 2073 550 2073 550 1981 437 c 128,-1,136
 1889 324 1889 324 1828 270 c 0,137,138
 1768 216 1768 216 1672 156 c 0,139,140
 1444 11 1444 11 1209 11 c 0,141,142
 1077 11 1077 11 942 57 c 1,143,144
 752 115 752 115 694.5 155 c 0,145,146
 637 194 637 194 586 234 c 0,147,148
 475 320 475 320 378.5 456 c 128,-1,149
 282 592 282 592 249 660.5 c 0,150,151
 216 730 216 730 175 846 c 0,152,153
 66 1156 66 1156 66 1544 c 0,154,155
 66 1610 66 1610 69 1676 c 128,-1,156
 72 1742 72 1742 82.5 1897.5 c 0,157,158
 92 2054 92 2054 140 2176 c 0,159,160
 221 2384 221 2384 258 2441.5 c 128,-1,161
 295 2499 295 2499 320.5 2540 c 128,-1,162
 346 2581 346 2581 353.5 2593 c 128,-1,163
 361 2605 361 2605 381.5 2636.5 c 128,-1,164
 402 2668 402 2668 414 2686 c 0,165,166
 545 2875 545 2875 750 3047 c 0,167,168
 818 3101 818 3101 890 3136.5 c 128,-1,169
 962 3172 962 3172 1020 3199 c 128,-1,170
 1078 3226 1078 3226 1179 3239 c 0,171,172
 1252 3248 1252 3248 1315 3248 c 0,173,174
 1443 3248 1443 3248 1533 3210 c 0,175,176
 1667 3153 1667 3153 1685 3147 c 128,-1,177
 1703 3141 1703 3141 1722 3134 c 128,-1,178
 1741 3127 1741 3127 1751.5 3123.5 c 128,-1,179
 1762 3120 1762 3120 1777 3117 c 0,180,181
 1789 3115 1789 3115 1802 3115 c 0,182,183
 1875 3115 1875 3115 1974 3194 c 0,184,185
 1985 3202 1985 3202 1996 3210 c 1,104,105
1916 3041 m 1,186,187
 1922 3052 1922 3052 1931 3080 c 128,-1,188
 1940 3108 1940 3108 1944 3116 c 128,-1,189
 1948 3124 1948 3124 1949 3127 c 1,190,191
 1918 3074 1918 3074 1916 3041 c 1,186,187
EndSplineSet
EndChar

StartChar: u10588
Encoding: 66952 66952 21
Width: 2756
VWidth: 0
Flags: W
HStem: 86 168<2067.66 2512.8> 86 123<439.632 623 942 1353.43> 745 422<291.873 917.595> 1716 127<914.371 1269> 2204 77<269.283 474.742> 2945 303<660.665 1388.6>
VStem: 2560 135<319.012 507.413>
LayerCount: 2
Fore
SplineSet
2105 82 m 1,0,-1
 1991 81 l 1,1,2
 1831 81 1831 81 1630 152 c 0,3,4
 1588 166 1588 166 1542 196 c 1,5,6
 1533 192 1533 192 1513.5 183 c 128,-1,7
 1494 174 1494 174 1480 168 c 0,8,9
 1250 66 1250 66 1004 66 c 0,10,11
 987 66 987 66 970 66 c 0,12,13
 917 66 917 66 874 69 c 0,14,15
 816 73 816 73 787 74.5 c 128,-1,16
 758 76 758 76 707 80 c 128,-1,17
 656 84 656 84 614 87 c 0,18,19
 484 96 484 96 366 147.5 c 128,-1,20
 248 199 248 199 189 258 c 128,-1,21
 130 317 130 317 106 394 c 0,22,23
 66 518 66 518 66 607 c 128,-1,24
 66 696 66 696 83 764.5 c 128,-1,25
 100 833 100 833 105.5 849 c 128,-1,26
 111 865 111 865 120.5 882.5 c 128,-1,27
 130 900 130 900 134.5 908.5 c 128,-1,28
 139 917 139 917 154 940.5 c 0,29,30
 170 964 170 964 192 1001 c 0,31,32
 239 1079 239 1079 401.5 1123 c 128,-1,33
 564 1167 564 1167 652.5 1167 c 0,34,35
 740 1168 740 1168 784 1166 c 0,36,37
 1002 1158 1002 1158 1168 1050 c 0,38,39
 1192 1034 1192 1034 1234.5 1004.5 c 128,-1,40
 1277 975 1277 975 1369 917 c 128,-1,41
 1461 859 1461 859 1562.5 786 c 128,-1,42
 1664 713 1664 713 1683 699.5 c 128,-1,43
 1702 686 1702 686 1720.5 673 c 128,-1,44
 1739 660 1739 660 1752.5 647 c 128,-1,45
 1766 634 1766 634 1775 626 c 1,46,47
 1796 656 1796 656 1840.5 722.5 c 128,-1,48
 1885 789 1885 789 1916.5 880 c 128,-1,49
 1948 971 1948 971 1952 999 c 128,-1,50
 1956 1027 1956 1027 1958 1065 c 128,-1,51
 1960 1103 1960 1103 1961.5 1120 c 128,-1,52
 1963 1137 1963 1137 1967.5 1171 c 128,-1,53
 1972 1205 1972 1205 1972 1210 c 0,54,55
 1975 1238 1975 1238 1975 1265 c 0,56,57
 1975 1361 1975 1361 1939 1439 c 0,58,59
 1892 1538 1892 1538 1869.5 1565.5 c 128,-1,60
 1847 1593 1847 1593 1824.5 1628 c 128,-1,61
 1802 1663 1802 1663 1785.5 1684 c 128,-1,62
 1769 1705 1769 1705 1753.5 1722 c 128,-1,63
 1738 1739 1738 1739 1714.5 1760.5 c 128,-1,64
 1691 1782 1691 1782 1677.5 1795.5 c 128,-1,65
 1664 1809 1664 1809 1650 1820 c 0,66,67
 1636 1830 1636 1830 1617 1844 c 0,68,69
 1566 1880 1566 1880 1545 1894 c 1,70,71
 1495 1821 1495 1821 1423 1783 c 0,72,73
 1296 1716 1296 1716 1110 1716 c 0,74,75
 1055 1716 1055 1716 1009 1725.5 c 0,76,77
 962 1734 962 1734 934 1740 c 0,78,79
 876 1751 876 1751 824.5 1790.5 c 128,-1,80
 773 1830 773 1830 764 1876 c 0,81,82
 758 1906 758 1906 758 1933 c 0,83,84
 758 1983 758 1983 779 2023 c 0,85,86
 810 2085 810 2085 870 2105 c 0,87,88
 950 2132 950 2132 1053 2132 c 0,89,90
 1170 2132 1170 2132 1316 2098 c 0,91,92
 1376 2084 1376 2084 1417 2077 c 1,93,94
 1447 2129 1447 2129 1467.5 2187 c 0,95,96
 1488 2244 1488 2244 1502 2278 c 0,97,98
 1543 2376 1543 2376 1543 2432 c 0,99,100
 1543 2436 1543 2436 1543 2439 c 0,101,102
 1531 2678 1531 2678 1477 2768 c 0,103,104
 1431 2846 1431 2846 1333 2889 c 0,105,106
 1194 2950 1194 2950 1090 2950 c 0,107,108
 1063 2950 1063 2950 1038 2946 c 0,109,110
 1035 2946 1035 2946 947 2937.5 c 0,111,112
 860 2930 860 2930 828 2926 c 0,113,114
 640 2905 640 2905 556.5 2856 c 0,115,116
 472 2807 472 2807 420 2767 c 0,117,118
 339 2705 339 2705 309 2650 c 0,119,120
 280 2596 280 2596 272 2580 c 0,121,122
 232 2497 232 2497 232 2431 c 0,123,124
 232 2373 232 2373 262 2327 c 0,125,126
 297 2281 297 2281 361.5 2281 c 128,-1,127
 426 2281 426 2281 454.5 2302 c 128,-1,128
 483 2323 483 2323 486 2337 c 0,129,130
 489 2350 489 2350 488 2364 c 0,131,132
 486 2397 486 2397 504 2396 c 0,133,134
 531 2393 531 2393 546.5 2368 c 128,-1,135
 562 2343 562 2343 553.5 2318 c 128,-1,136
 545 2293 545 2293 542 2285 c 128,-1,137
 539 2277 539 2277 531 2264 c 0,138,139
 519 2244 519 2244 458 2224 c 0,140,141
 396 2204 396 2204 348 2204 c 0,142,143
 258 2204 258 2204 221 2253 c 0,144,145
 149 2348 149 2348 149 2468 c 0,146,147
 150 2611 150 2611 252 2791 c 0,148,149
 272 2827 272 2827 282.5 2846 c 128,-1,150
 293 2865 293 2865 312.5 2889.5 c 128,-1,151
 332 2914 332 2914 345.5 2928 c 128,-1,152
 359 2942 359 2942 386 2967.5 c 0,153,154
 414 2994 414 2994 444 3024 c 0,155,156
 574 3152 574 3152 802 3198 c 0,157,158
 854 3208 854 3208 892 3218 c 128,-1,159
 930 3228 930 3228 940 3230 c 128,-1,160
 950 3232 950 3232 974 3237 c 128,-1,161
 998 3242 998 3242 1012 3244 c 0,162,163
 1055 3248 1055 3248 1094 3248 c 128,-1,164
 1133 3248 1133 3248 1147 3249 c 128,-1,165
 1161 3250 1161 3250 1198.5 3248 c 128,-1,166
 1236 3246 1236 3246 1248 3245 c 128,-1,167
 1260 3244 1260 3244 1299 3240.5 c 128,-1,168
 1338 3237 1338 3237 1373 3234 c 128,-1,169
 1408 3231 1408 3231 1431 3228 c 0,170,171
 1617 3204 1617 3204 1749 3072 c 0,172,173
 1832 2989 1832 2989 1847 2908 c 0,174,175
 1860 2830 1860 2830 1860 2748 c 0,176,177
 1860 2569 1860 2569 1798 2367 c 1,178,179
 1728 2161 1728 2161 1646 2038 c 1,180,181
 1719 2018 1719 2018 1870 1943 c 1,182,-1
 1869 1944 l 1,183,-1
 1884 1937 l 1,184,-1
 1870 1943 l 1,185,186
 2068 1844 2068 1844 2150 1638 c 0,187,188
 2154 1627 2154 1627 2168.5 1591 c 128,-1,189
 2183 1555 2183 1555 2187.5 1541.5 c 128,-1,190
 2192 1528 2192 1528 2200 1501 c 0,191,192
 2223 1427 2223 1427 2224 1325 c 0,193,194
 2224 1265 2224 1265 2216 1197 c 0,195,196
 2194 1011 2194 1011 2168 930 c 128,-1,197
 2142 849 2142 849 2103 764 c 128,-1,198
 2064 679 2064 679 2048.5 654 c 128,-1,199
 2033 629 2033 629 2006.5 591 c 128,-1,200
 1980 553 1980 553 1966.5 533 c 128,-1,201
 1953 513 1953 513 1929.5 503.5 c 128,-1,202
 1906 494 1906 494 1892 479 c 1,203,204
 1942 417 1942 417 2055.5 345 c 0,205,206
 2170 272 2170 272 2238 256 c 0,207,208
 2265 249 2265 249 2294 250 c 0,209,210
 2379 250 2379 250 2474 307 c 1,211,212
 2531 336 2531 336 2560 426 c 0,213,214
 2561 430 2561 430 2564.5 440 c 128,-1,215
 2568 450 2568 450 2569.5 454.5 c 128,-1,216
 2571 459 2571 459 2574 467.5 c 128,-1,217
 2577 476 2577 476 2579 479.5 c 128,-1,218
 2581 483 2581 483 2584.5 489.5 c 128,-1,219
 2588 496 2588 496 2591.5 498.5 c 128,-1,220
 2595 501 2595 501 2599.5 504.5 c 128,-1,221
 2604 508 2604 508 2609 509 c 128,-1,222
 2614 510 2614 510 2620.5 510 c 128,-1,223
 2627 510 2627 510 2648.5 504.5 c 128,-1,224
 2670 499 2670 499 2685.5 468 c 128,-1,225
 2701 437 2701 437 2696 395.5 c 128,-1,226
 2691 354 2691 354 2676 322 c 0,227,228
 2657 281 2657 281 2605 229 c 0,229,230
 2476 100 2476 100 2310 86 c 0,231,232
 2224 82 2224 82 2105 82 c 1,0,-1
1008 1843 m 2,233,-1
 1036 1843 l 1,234,235
 1057 1841 1057 1841 1076 1841 c 0,236,237
 1194 1840 1194 1840 1263 1900 c 0,238,239
 1273 1908 1273 1908 1292 1926 c 128,-1,240
 1311 1944 1311 1944 1321 1952 c 0,241,242
 1338 1966 1338 1966 1350 1979 c 1,243,244
 1283 2012 1283 2012 1178 2012 c 0,245,246
 1110 2012 1110 2012 1026 1998 c 0,247,248
 931 1982 931 1982 907 1924 c 0,249,250
 892 1887 892 1887 912 1873 c 128,-1,251
 932 1859 932 1859 937 1855.5 c 128,-1,252
 942 1852 942 1852 952 1849.5 c 0,253,254
 962 1848 962 1848 966 1846 c 0,255,256
 974 1844 974 1844 1008 1843 c 2,233,-1
1414 294 m 1,257,258
 1329 366 1329 366 1284.5 392 c 128,-1,259
 1240 418 1240 418 1219 438 c 128,-1,260
 1198 458 1198 458 1187 468 c 128,-1,261
 1176 478 1176 478 1165 489 c 128,-1,262
 1154 500 1154 500 1148.5 506 c 128,-1,263
 1143 512 1143 512 1129.5 527 c 128,-1,264
 1116 542 1116 542 1110 549 c 128,-1,265
 1104 556 1104 556 1097 562.5 c 128,-1,266
 1090 569 1090 569 1085 574 c 128,-1,267
 1080 579 1080 579 1071.5 584.5 c 128,-1,268
 1063 590 1063 590 1059 593 c 128,-1,269
 1055 596 1055 596 1044 601 c 128,-1,270
 1033 606 1033 606 1030.5 607.5 c 128,-1,271
 1028 609 1028 609 1015 614 c 0,272,273
 1002 620 1002 620 1000 620 c 0,274,275
 953 632 953 632 921 654 c 0,276,277
 845 706 845 706 777.5 715 c 128,-1,278
 710 724 710 724 674.5 729.5 c 0,279,280
 639 736 639 736 621 738 c 0,281,282
 567 746 567 746 504 745 c 0,283,284
 331 745 331 745 284 689.5 c 0,285,286
 238 634 238 634 228 576 c 0,287,288
 218 516 218 516 218 481 c 0,289,290
 218 454 218 454 224 444 c 0,291,292
 237 418 237 418 245 408.5 c 0,293,294
 252 400 252 400 258 394 c 0,295,296
 272 380 272 380 297 355 c 0,297,298
 368 284 368 284 446 264 c 0,299,300
 665 207 665 207 874 206 c 0,301,302
 1017 206 1017 206 1155 233 c 0,303,304
 1180 238 1180 238 1242 246 c 0,305,306
 1346 260 1346 260 1414 294 c 1,257,258
EndSplineSet
EndChar

StartChar: u10589
Encoding: 66953 66953 22
Width: 3203
VWidth: 0
Flags: W
HStem: 2212 176<1200.92 2038.79>
LayerCount: 2
Fore
SplineSet
2452.5 2174.5 m 128,-1,1
 2411 2190 2411 2190 2419.5 2233 c 128,-1,2
 2428 2276 2428 2276 2441.5 2322.5 c 128,-1,3
 2455 2369 2455 2369 2478 2418.5 c 128,-1,4
 2501 2468 2501 2468 2515.5 2496 c 128,-1,5
 2530 2524 2530 2524 2565.5 2586.5 c 128,-1,6
 2601 2649 2601 2649 2615 2675 c 128,-1,7
 2629 2701 2629 2701 2660.5 2761 c 128,-1,8
 2692 2821 2692 2821 2704.5 2842.5 c 0,9,10
 2718 2864 2718 2864 2744 2905 c 0,11,12
 2789 2974 2789 2974 2863 3039 c 1,13,14
 2956 3132 2956 3132 3070 3132 c 0,15,16
 3089 3132 3089 3132 3109 3129 c 0,17,18
 3154 3123 3154 3123 3142 3032 c 0,19,20
 3139 3010 3139 3010 3137.5 2996 c 128,-1,21
 3136 2982 3136 2982 3128.5 2970 c 128,-1,22
 3121 2958 3121 2958 3108 2945 c 128,-1,23
 3095 2932 3095 2932 3078.5 2906.5 c 128,-1,24
 3062 2881 3062 2881 3008.5 2786.5 c 128,-1,25
 2955 2692 2955 2692 2915 2642 c 128,-1,26
 2875 2592 2875 2592 2814.5 2510.5 c 0,27,28
 2754 2428 2754 2428 2723 2390 c 0,29,30
 2632 2277 2632 2277 2519 2179 c 0,31,0
 2494 2159 2494 2159 2452.5 2174.5 c 128,-1,1
1171 2380 m 0,32,33
 1166 2410 1166 2410 1211 2407 c 0,34,35
 1231 2406 1231 2406 1320 2385.5 c 0,36,37
 1409 2364 1409 2364 1554 2360 c 0,38,39
 1586 2359 1586 2359 1615 2360 c 0,40,41
 1719 2360 1719 2360 1788 2372 c 0,42,43
 1877 2388 1877 2388 1969.5 2435 c 128,-1,44
 2062 2482 2062 2482 2111 2532.5 c 0,45,46
 2160 2582 2160 2582 2200 2656 c 0,47,48
 2239 2727 2239 2727 2240 2800 c 0,49,50
 2240 2846 2240 2846 2224 2892 c 1,51,52
 2192 3012 2192 3012 2101 3052 c 1,53,54
 2004 3106 2004 3106 1937 3110.5 c 128,-1,55
 1870 3115 1870 3115 1823 3117.5 c 128,-1,56
 1776 3120 1776 3120 1712 3124 c 0,57,58
 1676 3126 1676 3126 1643 3125 c 0,59,60
 1545 3125 1545 3125 1468 3109 c 0,61,62
 1365 3086 1365 3086 1337.5 3080 c 128,-1,63
 1310 3074 1310 3074 1303 3072.5 c 128,-1,64
 1296 3071 1296 3071 1273.5 3065.5 c 128,-1,65
 1251 3060 1251 3060 1242.5 3057 c 128,-1,66
 1234 3054 1234 3054 1215 3048 c 128,-1,67
 1196 3042 1196 3042 1185.5 3036.5 c 0,68,69
 1174 3031 1174 3031 1158 3023 c 0,70,71
 1045 2968 1045 2968 952 2879.5 c 128,-1,72
 859 2791 859 2791 786 2706.5 c 128,-1,73
 713 2622 713 2622 681 2572 c 0,74,75
 552 2371 552 2371 478 2126 c 0,76,77
 434 1981 434 1981 434 1771 c 0,78,79
 434 1660 434 1660 446 1532 c 0,80,81
 464 1328 464 1328 516 1199 c 0,82,83
 593 1006 593 1006 702 855.5 c 128,-1,84
 811 705 811 705 871.5 642.5 c 128,-1,85
 932 580 932 580 1018 523 c 128,-1,86
 1104 466 1104 466 1142 442 c 0,87,88
 1244 380 1244 380 1360 371 c 0,89,90
 1400 368 1400 368 1436 367 c 0,91,92
 1501 367 1501 367 1548 379 c 0,93,94
 1644 403 1644 403 1802 477 c 1,95,96
 1709 609 1709 609 1679.5 694 c 128,-1,97
 1650 779 1650 779 1624.5 918 c 128,-1,98
 1599 1057 1599 1057 1590 1129 c 0,99,100
 1580 1212 1580 1212 1580 1287 c 0,101,102
 1580 1382 1580 1382 1596 1466 c 0,103,104
 1625 1616 1625 1616 1657.5 1692 c 128,-1,105
 1690 1768 1690 1768 1725 1809 c 128,-1,106
 1760 1850 1760 1850 1780 1871 c 128,-1,107
 1800 1892 1800 1892 1803.5 1895.5 c 128,-1,108
 1807 1899 1807 1899 1824 1916.5 c 128,-1,109
 1841 1934 1841 1934 1846 1938 c 128,-1,110
 1851 1942 1851 1942 1866.5 1955.5 c 128,-1,111
 1882 1969 1882 1969 1890 1973.5 c 128,-1,112
 1898 1978 1898 1978 1913 1988.5 c 128,-1,113
 1928 1999 1928 1999 1939.5 2004 c 128,-1,114
 1951 2009 1951 2009 1967 2016 c 128,-1,115
 1983 2023 1983 2023 2020.5 2036 c 128,-1,116
 2058 2049 2058 2049 2136 2040.5 c 128,-1,117
 2214 2032 2214 2032 2282 1973 c 0,118,119
 2429 1846 2429 1846 2472.5 1663.5 c 0,120,121
 2516 1482 2516 1482 2518 1356 c 0,122,123
 2518 1352 2518 1352 2518 1347 c 0,124,125
 2518 1224 2518 1224 2476 1061 c 0,126,127
 2432 892 2432 892 2394 804 c 0,128,129
 2345 689 2345 689 2223 535 c 1,130,131
 2242 508 2242 508 2279.5 464 c 0,132,133
 2316 420 2316 420 2402 370 c 0,134,135
 2486 321 2486 321 2573 321 c 0,136,137
 2637 321 2637 321 2703 348 c 0,138,139
 2776 374 2776 374 2811 412 c 128,-1,140
 2846 450 2846 450 2879 488.5 c 128,-1,141
 2912 527 2912 527 2935 554.5 c 128,-1,142
 2958 582 2958 582 2985.5 676.5 c 128,-1,143
 3013 771 3013 771 3022 772 c 128,-1,144
 3031 773 3031 773 3034.5 764 c 128,-1,145
 3038 755 3038 755 3044 743 c 128,-1,146
 3050 731 3050 731 3057.5 709.5 c 128,-1,147
 3065 688 3065 688 3067 664 c 128,-1,148
 3069 640 3069 640 3071 623 c 128,-1,149
 3073 606 3073 606 3068.5 579 c 128,-1,150
 3064 552 3064 552 3062 538.5 c 128,-1,151
 3060 525 3060 525 3050.5 494 c 128,-1,152
 3041 463 3041 463 3038 452.5 c 128,-1,153
 3035 442 3035 442 3022 405.5 c 0,154,155
 3010 369 3010 369 2994 326 c 0,156,157
 2955 218 2955 218 2862 154.5 c 128,-1,158
 2769 91 2769 91 2716 78.5 c 128,-1,159
 2663 66 2663 66 2612.5 66 c 128,-1,160
 2562 66 2562 66 2513 65.5 c 128,-1,161
 2464 65 2464 65 2446.5 65.5 c 128,-1,162
 2429 66 2429 66 2390 67.5 c 128,-1,163
 2351 69 2351 69 2330 74 c 128,-1,164
 2309 79 2309 79 2277 87 c 0,165,166
 2223 100 2223 100 2131 153 c 0,167,168
 2013 219 2013 219 1944 302 c 1,169,170
 1926 290 1926 290 1882 262.5 c 0,171,172
 1838 234 1838 234 1779 196 c 0,173,174
 1552 48 1552 48 1296 48 c 0,175,176
 1280 48 1280 48 1264 49 c 0,177,178
 1236 50 1236 50 1161 57 c 128,-1,179
 1086 64 1086 64 1066 65.5 c 128,-1,180
 1046 67 1046 67 1014.5 69.5 c 128,-1,181
 983 72 983 72 969.5 73.5 c 0,182,183
 956 76 956 76 932 80 c 0,184,185
 770 111 770 111 541 340 c 1,186,187
 311 585 311 585 237 725 c 128,-1,188
 163 865 163 865 136.5 952.5 c 128,-1,189
 110 1040 110 1040 88 1166 c 0,190,191
 66 1293 66 1293 66 1427 c 0,192,193
 66 1509 66 1509 74 1593 c 0,194,195
 77 1621 77 1621 82 1689.5 c 128,-1,196
 87 1758 87 1758 91 1790 c 128,-1,197
 95 1822 95 1822 103 1876 c 0,198,199
 133 2076 133 2076 281 2346 c 0,200,201
 466 2684 466 2684 529 2749.5 c 0,202,203
 592 2816 592 2816 679 2890 c 0,204,205
 849 3036 849 3036 1062.5 3134.5 c 0,206,207
 1276 3234 1276 3234 1471 3252 c 0,208,209
 1570 3261 1570 3261 1655 3261 c 0,210,211
 1737 3261 1737 3261 1806 3252 c 0,212,213
 1946 3234 1946 3234 2072.5 3198 c 128,-1,214
 2199 3162 2199 3162 2226 3142.5 c 128,-1,215
 2253 3123 2253 3123 2269.5 3098 c 128,-1,216
 2286 3073 2286 3073 2299.5 3053 c 128,-1,217
 2313 3033 2313 3033 2317 3026.5 c 128,-1,218
 2321 3020 2321 3020 2332 3002.5 c 128,-1,219
 2343 2985 2343 2985 2346.5 2977 c 128,-1,220
 2350 2969 2350 2969 2358 2953.5 c 128,-1,221
 2366 2938 2366 2938 2368.5 2927 c 0,222,223
 2372 2916 2372 2916 2376 2901 c 0,224,225
 2382 2881 2382 2881 2384 2806 c 0,226,227
 2384 2794 2384 2794 2385 2783 c 0,228,229
 2385 2629 2385 2629 2310 2494 c 0,230,231
 2276 2434 2276 2434 2235 2402 c 128,-1,232
 2194 2370 2194 2370 2103 2324 c 0,233,234
 1886 2214 1886 2214 1595 2188 c 0,235,236
 1562 2185 1562 2185 1529 2185 c 0,237,238
 1427 2185 1427 2185 1324 2214 c 0,239,240
 1189 2252 1189 2252 1171 2380 c 0,32,33
2134 680 m 1,241,242
 2337 865 2337 865 2337 1187 c 0,243,244
 2336 1198 2336 1198 2336 1210 c 0,245,246
 2336 1232 2336 1232 2332 1295 c 128,-1,247
 2328 1358 2328 1358 2327 1377.5 c 128,-1,248
 2326 1397 2326 1397 2323.5 1448.5 c 128,-1,249
 2321 1500 2321 1500 2319 1518 c 0,250,251
 2316 1536 2316 1536 2310 1573 c 0,252,253
 2276 1766 2276 1766 2141 1766 c 0,254,255
 2118 1766 2118 1766 2093 1761 c 0,256,257
 2031 1749 2031 1749 2001 1720 c 0,258,259
 1970 1690 1970 1690 1954 1580 c 0,260,261
 1936 1459 1936 1459 1936 1348 c 0,262,263
 1936 1091 1936 1091 2032 884 c 0,264,265
 2071 798 2071 798 2134 680 c 1,241,242
EndSplineSet
EndChar

StartChar: u1058A
Encoding: 66954 66954 23
Width: 2228
VWidth: 0
Flags: W
VStem: 66 196<2927.2 3126.64> 537 311<354.005 1526.37> 1249 193<1077.26 1401 1556 1925.56> 1974 189<1535.07 1700 1860 2064>
LayerCount: 2
Fore
SplineSet
179.5 2935.5 m 128,-1,1
 163 2911 163 2911 136 2900 c 128,-1,2
 109 2889 109 2889 86 2921 c 128,-1,3
 63 2953 63 2953 68 3001 c 0,4,5
 82 3138 82 3138 196 3206 c 0,6,7
 295 3265 295 3265 403 3265 c 0,8,9
 504 3265 504 3265 614 3215 c 1,10,11
 698 3182 698 3182 760 3096.5 c 128,-1,12
 822 3011 822 3011 844 2946 c 128,-1,13
 866 2881 866 2881 879 2681 c 128,-1,14
 892 2481 892 2481 892 2186 c 0,15,16
 892 1892 892 1892 882 1678 c 0,17,18
 848 997 848 997 848 569 c 0,19,20
 848 395 848 395 1016 296 c 0,21,22
 1144 220 1144 220 1208 220 c 128,-1,23
 1272 220 1272 220 1314 236 c 128,-1,24
 1356 252 1356 252 1379.5 267.5 c 128,-1,25
 1403 283 1403 283 1416 296 c 128,-1,26
 1429 309 1429 309 1453.5 336.5 c 128,-1,27
 1478 364 1478 364 1506 392 c 128,-1,28
 1534 420 1534 420 1564 456 c 128,-1,29
 1594 492 1594 492 1634 545 c 128,-1,30
 1674 598 1674 598 1692.5 621.5 c 128,-1,31
 1711 645 1711 645 1720.5 658 c 128,-1,32
 1730 671 1730 671 1739 686 c 128,-1,33
 1748 701 1748 701 1754 710 c 128,-1,34
 1760 719 1760 719 1769 737 c 128,-1,35
 1778 755 1778 755 1781 760.5 c 128,-1,36
 1784 766 1784 766 1794 787.5 c 128,-1,37
 1804 809 1804 809 1805.5 812.5 c 128,-1,38
 1807 816 1807 816 1818.5 842.5 c 128,-1,39
 1830 869 1830 869 1836 884 c 128,-1,40
 1842 899 1842 899 1859.5 940 c 0,41,42
 1876 980 1876 980 1886 1004 c 0,43,44
 1933 1119 1933 1119 1948 1233 c 0,45,46
 1974 1430 1974 1430 1974 1485 c 128,-1,47
 1974 1540 1974 1540 1976 1616 c 0,48,49
 1976 1636 1976 1636 1976 1655 c 0,50,51
 1976 1996 1976 1996 1852 2098 c 0,52,53
 1819 2125 1819 2125 1744.5 2116.5 c 128,-1,54
 1670 2108 1670 2108 1639 2087.5 c 128,-1,55
 1608 2067 1608 2067 1597 2053.5 c 128,-1,56
 1586 2040 1586 2040 1581.5 2030.5 c 128,-1,57
 1577 2021 1577 2021 1569 2002.5 c 128,-1,58
 1561 1984 1561 1984 1555.5 1972.5 c 128,-1,59
 1550 1961 1550 1961 1537.5 1937.5 c 0,60,61
 1526 1914 1526 1914 1520 1904 c 0,62,63
 1442 1756 1442 1756 1442 1556 c 0,64,65
 1442 1511 1442 1511 1446.5 1444 c 128,-1,66
 1451 1377 1451 1377 1452 1340 c 128,-1,67
 1453 1303 1453 1303 1454 1285 c 0,68,69
 1460 1180 1460 1180 1496 1085 c 128,-1,70
 1532 990 1532 990 1542.5 958.5 c 128,-1,71
 1553 927 1553 927 1580.5 873.5 c 128,-1,72
 1608 820 1608 820 1620.5 800 c 128,-1,73
 1633 780 1633 780 1642 765.5 c 128,-1,74
 1651 751 1651 751 1657 736 c 0,75,76
 1677 684 1677 684 1599 700 c 0,77,78
 1563 707 1563 707 1527 752.5 c 128,-1,79
 1491 798 1491 798 1481.5 809.5 c 128,-1,80
 1472 821 1472 821 1463.5 834 c 128,-1,81
 1455 847 1455 847 1446 863 c 128,-1,82
 1437 879 1437 879 1432.5 888 c 128,-1,83
 1428 897 1428 897 1416.5 919 c 128,-1,84
 1405 941 1405 941 1381.5 982.5 c 128,-1,85
 1358 1024 1358 1024 1339 1074.5 c 128,-1,86
 1320 1125 1320 1125 1310 1151 c 0,87,88
 1256 1291 1256 1291 1249 1380 c 0,89,90
 1244 1439 1244 1439 1244 1498 c 0,91,92
 1244 1760 1244 1760 1335 2032 c 0,93,94
 1418 2271 1418 2271 1540 2335 c 0,95,96
 1703 2426 1703 2426 1799 2426 c 0,97,98
 1810 2426 1810 2426 1820 2424 c 0,99,100
 1970 2406 1970 2406 2040 2298 c 1,101,102
 2124 2177 2124 2177 2143 2066 c 0,103,104
 2164 1941 2164 1941 2164 1798 c 0,105,106
 2164 1482 2164 1482 2060 1076 c 0,107,108
 2024 933 2024 933 1962.5 808.5 c 128,-1,109
 1901 684 1901 684 1877 636 c 0,110,111
 1603 82 1603 82 1196 29 c 0,112,113
 1164 25 1164 25 1129 25 c 0,114,115
 999 24 999 24 828 80 c 0,116,117
 811 86 811 86 801.5 90.5 c 0,118,119
 792 96 792 96 778 102 c 0,120,121
 748 116 748 116 715 145.5 c 128,-1,122
 682 175 682 175 668 187 c 128,-1,123
 654 199 654 199 647.5 206.5 c 0,124,125
 640 214 640 214 630 225 c 0,126,127
 551 308 551 308 542 444 c 0,128,129
 517 819 517 819 517 1101 c 0,130,131
 517 1243 517 1243 523 1361 c 0,132,133
 542 1717 542 1717 557.5 1905 c 128,-1,134
 573 2093 573 2093 581.5 2195 c 128,-1,135
 590 2297 590 2297 592 2337 c 0,136,137
 599 2476 599 2476 599 2555 c 0,138,139
 599 2598 599 2598 597 2623 c 0,140,141
 556 3114 556 3114 401 3129 c 0,142,143
 387 3131 387 3131 376 3131 c 128,-1,144
 365 3131 365 3131 354.5 3129 c 128,-1,145
 344 3127 344 3127 337 3125 c 128,-1,146
 330 3123 330 3123 319.5 3117 c 128,-1,147
 309 3111 309 3111 303 3107.5 c 128,-1,148
 297 3104 297 3104 283.5 3094.5 c 128,-1,149
 270 3085 270 3085 254 3074.5 c 128,-1,150
 238 3064 238 3064 222.5 3036 c 128,-1,151
 207 3008 207 3008 201.5 2984 c 128,-1,0
 196 2960 196 2960 179.5 2935.5 c 128,-1,1
EndSplineSet
EndChar

StartChar: u1058B
Encoding: 66955 66955 24
Width: 2433
VWidth: 0
Flags: W
HStem: 2736 189<179 711.999>
VStem: 66 102<2404.65 2693.89> 774 336<358.306 1520>
LayerCount: 2
Fore
SplineSet
451 2923 m 2,0,-1
 492 2925 l 2,1,2
 539 2928 539 2928 558 2925.5 c 128,-1,3
 577 2923 577 2923 597.5 2920.5 c 128,-1,4
 618 2918 618 2918 629.5 2916 c 128,-1,5
 641 2914 641 2914 658.5 2911.5 c 128,-1,6
 676 2909 676 2909 681.5 2908 c 128,-1,7
 687 2907 687 2907 698.5 2904.5 c 128,-1,8
 710 2902 710 2902 715 2899.5 c 0,9,10
 720 2896 720 2896 730 2892 c 0,11,12
 745 2885 745 2885 768.5 2868.5 c 128,-1,13
 792 2852 792 2852 813 2839 c 1,14,15
 825 3000 825 3000 845 3039.5 c 128,-1,16
 865 3079 865 3079 885 3108.5 c 128,-1,17
 905 3138 905 3138 918.5 3151.5 c 128,-1,18
 932 3165 932 3165 941.5 3171.5 c 128,-1,19
 951 3178 951 3178 971.5 3190.5 c 128,-1,20
 992 3203 992 3203 1002 3209.5 c 128,-1,21
 1012 3216 1012 3216 1026 3224 c 128,-1,22
 1040 3232 1040 3232 1045 3235.5 c 128,-1,23
 1050 3239 1050 3239 1060.5 3244.5 c 128,-1,24
 1071 3250 1071 3250 1078 3252 c 0,25,26
 1135 3272 1135 3272 1192 3273 c 0,27,28
 1219 3273 1219 3273 1245 3268 c 0,29,30
 1346 3251 1346 3251 1409 3211 c 128,-1,31
 1472 3171 1472 3171 1491 3135 c 128,-1,32
 1510 3099 1510 3099 1517.5 3077.5 c 128,-1,33
 1525 3056 1525 3056 1532 3029 c 0,34,35
 1538 3002 1538 3002 1546 2976 c 0,36,37
 1548 2968 1548 2968 1549 2950 c 0,38,39
 1550 2912 1550 2912 1538 2832 c 0,40,41
 1522 2715 1522 2715 1496 2649 c 128,-1,42
 1470 2583 1470 2583 1427 2534.5 c 128,-1,43
 1384 2486 1384 2486 1352 2474 c 0,44,45
 1312 2458 1312 2458 1269 2458 c 2,46,-1
 1221 2458 l 2,47,48
 1187 2458 1187 2458 1118 2477 c 1,49,50
 1153 2159 1153 2159 1153 1909 c 0,51,52
 1153 1810 1153 1810 1147 1721 c 0,53,54
 1108 1094 1108 1094 1108 690 c 0,55,56
 1108 606 1108 606 1110 532 c 0,57,58
 1110 514 1110 514 1107 484 c 0,59,60
 1103 448 1103 448 1103 433 c 0,61,62
 1103 364 1103 364 1193 311 c 0,63,64
 1233 287 1233 287 1295.5 268.5 c 128,-1,65
 1358 250 1358 250 1382.5 241.5 c 128,-1,66
 1407 233 1407 233 1430.5 231.5 c 128,-1,67
 1454 230 1454 230 1478 238 c 0,68,69
 1644 289 1644 289 1753 446 c 1,70,71
 1984 748 1984 748 2052 891 c 128,-1,72
 2120 1034 2120 1034 2143.5 1115 c 128,-1,73
 2167 1196 2167 1196 2182 1292.5 c 0,74,75
 2196 1389 2196 1389 2198 1449 c 0,76,77
 2198 1464 2198 1464 2199 1479 c 0,78,79
 2199 1541 2199 1541 2193 1611 c 0,80,81
 2185 1699 2185 1699 2181.5 1749 c 128,-1,82
 2178 1799 2178 1799 2175.5 1824.5 c 128,-1,83
 2173 1850 2173 1850 2168 1888 c 0,84,85
 2147 2047 2147 2047 2099 2085.5 c 128,-1,86
 2051 2124 2051 2124 1999 2124 c 0,87,88
 1973 2124 1973 2124 1946 2114 c 0,89,90
 1937 2110 1937 2110 1911 2099 c 128,-1,91
 1885 2088 1885 2088 1876.5 2083.5 c 128,-1,92
 1868 2079 1868 2079 1849 2068 c 128,-1,93
 1830 2057 1830 2057 1822 2048 c 0,94,95
 1796 2021 1796 2021 1754 1902 c 0,96,97
 1671 1668 1671 1668 1671 1448 c 0,98,99
 1671 1402 1671 1402 1675 1356 c 0,100,101
 1686 1227 1686 1227 1732.5 1141 c 0,102,103
 1779 1056 1779 1056 1807 1004 c 0,104,105
 1876 878 1876 878 1892 754 c 0,106,107
 1893 749 1893 749 1893 745 c 0,108,109
 1893 726 1893 726 1878 726 c 0,110,111
 1842 726 1842 726 1715 844 c 0,112,113
 1676 880 1676 880 1664 900 c 128,-1,114
 1652 920 1652 920 1636.5 945 c 128,-1,115
 1621 970 1621 970 1601 1000 c 0,116,117
 1476 1190 1476 1190 1476 1472 c 0,118,119
 1476 1536 1476 1536 1482 1604 c 0,120,121
 1488 1674 1488 1674 1498 1738 c 128,-1,122
 1508 1802 1508 1802 1513 1837.5 c 128,-1,123
 1518 1873 1518 1873 1519.5 1881 c 128,-1,124
 1521 1889 1521 1889 1525.5 1917 c 128,-1,125
 1530 1945 1530 1945 1534 1957 c 0,126,127
 1538 1970 1538 1970 1544 1992 c 0,128,129
 1636 2310 1636 2310 1832 2391 c 0,130,131
 1929 2431 1929 2431 2016 2431 c 0,132,133
 2097 2431 2097 2431 2167 2396 c 0,134,135
 2228 2365 2228 2365 2271 2291 c 0,136,137
 2333 2186 2333 2186 2352.5 2056.5 c 128,-1,138
 2372 1927 2372 1927 2372 1811 c 128,-1,139
 2372 1695 2372 1695 2371 1665.5 c 128,-1,140
 2370 1636 2370 1636 2366.5 1603 c 0,141,142
 2362 1570 2362 1570 2360 1551 c 0,143,144
 2354 1507 2354 1507 2345.5 1448 c 128,-1,145
 2337 1389 2337 1389 2327.5 1322 c 0,146,147
 2318 1256 2318 1256 2312 1224 c 0,148,149
 2290 1100 2290 1100 2263 1028.5 c 128,-1,150
 2236 957 2236 957 2229 938 c 128,-1,151
 2222 919 2222 919 2209.5 892 c 128,-1,152
 2197 865 2197 865 2191 852 c 128,-1,153
 2185 839 2185 839 2169 808.5 c 128,-1,154
 2153 778 2153 778 2148 768 c 0,155,156
 2133 738 2133 738 2104.5 685.5 c 0,157,158
 2076 634 2076 634 2044 564 c 0,159,160
 1946 348 1946 348 1819 250 c 0,161,162
 1800 236 1800 236 1762 207.5 c 0,163,164
 1724 180 1724 180 1680 146 c 0,165,166
 1587 74 1587 74 1458 35 c 0,167,168
 1354 4 1354 4 1294 5 c 0,169,170
 1280 4 1280 4 1268 6 c 0,171,172
 1208 16 1208 16 1187 22.5 c 128,-1,173
 1166 29 1166 29 1155 34.5 c 128,-1,174
 1144 40 1144 40 1121 52.5 c 128,-1,175
 1098 65 1098 65 1066 81 c 0,176,177
 1006 112 1006 112 930 201 c 1,178,179
 858 276 858 276 825.5 328.5 c 128,-1,180
 793 381 793 381 779 475.5 c 0,181,182
 766 570 766 570 760 675 c 0,183,184
 756 747 756 747 756 803 c 0,185,186
 756 828 756 828 756 850 c 0,187,188
 758 920 758 920 765 1044 c 128,-1,189
 772 1168 772 1168 775 1287 c 128,-1,190
 778 1406 778 1406 800 1669 c 0,191,192
 824 1968 824 1968 824 2186 c 0,193,194
 824 2240 824 2240 822 2289 c 0,195,196
 815 2536 815 2536 814 2596 c 1,197,198
 764 2630 764 2630 703 2649.5 c 128,-1,199
 642 2669 642 2669 596 2688.5 c 128,-1,200
 550 2708 550 2708 542 2711 c 128,-1,201
 534 2714 534 2714 519 2718 c 128,-1,202
 504 2722 504 2722 486.5 2728.5 c 128,-1,203
 469 2735 469 2735 460 2736 c 128,-1,204
 451 2737 451 2737 442.5 2735.5 c 128,-1,205
 434 2734 434 2734 417 2735.5 c 128,-1,206
 400 2737 400 2737 393.5 2738.5 c 128,-1,207
 387 2740 387 2740 384.5 2740.5 c 128,-1,208
 382 2741 382 2741 378 2741.5 c 128,-1,209
 374 2742 374 2742 354 2739.5 c 128,-1,210
 334 2737 334 2737 320 2736 c 0,211,212
 244 2731 244 2731 227.5 2707 c 128,-1,213
 211 2683 211 2683 196.5 2670.5 c 128,-1,214
 182 2658 182 2658 178 2646.5 c 128,-1,215
 174 2635 174 2635 173 2614 c 128,-1,216
 172 2593 172 2593 168.5 2579 c 128,-1,217
 165 2565 165 2565 161 2539 c 128,-1,218
 157 2513 157 2513 153 2490.5 c 0,219,220
 150 2468 150 2468 144 2446 c 0,221,222
 132 2398 132 2398 111 2404 c 0,223,224
 66 2419 66 2419 66 2585 c 0,225,226
 66 2628 66 2628 80 2694 c 128,-1,227
 94 2760 94 2760 118 2785 c 0,228,229
 214 2887 214 2887 356 2908 c 0,230,231
 367 2910 367 2910 379 2912.5 c 128,-1,232
 391 2915 391 2915 397 2916 c 128,-1,233
 403 2917 403 2917 409 2918.5 c 128,-1,234
 415 2920 415 2920 420 2920.5 c 0,235,236
 424 2922 424 2922 428 2922 c 0,237,238
 438 2924 438 2924 451 2923 c 2,0,-1
1422 2903 m 1,239,-1
 1422 2920 l 2,240,241
 1422 2968 1422 2968 1399 2996 c 0,242,243
 1323 3088 1323 3088 1278 3088 c 0,244,245
 1264 3088 1264 3088 1234 3090 c 0,246,247
 1177 3093 1177 3093 1154 3083 c 0,248,249
 1086 3054 1086 3054 1065 2978 c 0,250,251
 1062 2963 1062 2963 1058 2949 c 128,-1,252
 1054 2935 1054 2935 1053 2928.5 c 128,-1,253
 1052 2922 1052 2922 1050.5 2916 c 128,-1,254
 1049 2910 1049 2910 1050 2902 c 0,255,256
 1053 2878 1053 2878 1070 2792 c 0,257,258
 1092 2681 1092 2681 1099 2625 c 1,259,260
 1176 2579 1176 2579 1226 2579 c 0,261,262
 1248 2578 1248 2578 1266 2588 c 0,263,264
 1406 2662 1406 2662 1422 2903 c 1,239,-1
EndSplineSet
EndChar

StartChar: u1058C
Encoding: 66956 66956 25
Width: 3170
VWidth: 0
Flags: W
HStem: 2953 213<247.329 678.675>
VStem: 770 422<552.536 2305.82> 1987 176<1853.67 2601.96>
LayerCount: 2
Fore
SplineSet
2888 2187 m 1,0,-1
 2892 2335 l 1,1,2
 2892 2605 2892 2605 2873.5 2673 c 128,-1,3
 2855 2741 2855 2741 2846.5 2768.5 c 128,-1,4
 2838 2796 2838 2796 2832 2810 c 0,5,6
 2796 2908 2796 2908 2708 2912 c 0,7,8
 2622 2915 2622 2915 2587.5 2901.5 c 128,-1,9
 2553 2888 2553 2888 2523 2875 c 128,-1,10
 2493 2862 2493 2862 2453.5 2826 c 128,-1,11
 2414 2790 2414 2790 2406 2783 c 128,-1,12
 2398 2776 2398 2776 2365 2748.5 c 128,-1,13
 2332 2721 2332 2721 2316 2705 c 128,-1,14
 2300 2689 2300 2689 2294 2682.5 c 128,-1,15
 2288 2676 2288 2676 2282.5 2667 c 128,-1,16
 2277 2658 2277 2658 2275 2654 c 0,17,18
 2161 2455 2161 2455 2161 2173 c 0,19,20
 2161 2136 2161 2136 2163 2097 c 0,21,22
 2170 2032 2170 2032 2187.5 1970.5 c 0,23,24
 2204 1908 2204 1908 2212 1874 c 0,25,26
 2223 1822 2223 1822 2253.5 1777 c 128,-1,27
 2284 1732 2284 1732 2297 1708 c 0,28,29
 2331 1647 2331 1647 2363.5 1624.5 c 128,-1,30
 2396 1602 2396 1602 2417 1589.5 c 128,-1,31
 2438 1577 2438 1577 2459 1562.5 c 128,-1,32
 2480 1548 2480 1548 2525 1526 c 128,-1,33
 2570 1504 2570 1504 2592 1500 c 0,34,35
 2634 1491 2634 1491 2642 1465 c 128,-1,36
 2650 1439 2650 1439 2653.5 1423 c 0,37,38
 2656 1408 2656 1408 2658 1388 c 0,39,40
 2663 1328 2663 1328 2595 1336 c 0,41,42
 2546 1342 2546 1342 2507 1366.5 c 128,-1,43
 2468 1391 2468 1391 2434 1411 c 0,44,45
 2253 1516 2253 1516 2134 1720 c 0,46,47
 2104 1765 2104 1765 2093.5 1798 c 128,-1,48
 2083 1831 2083 1831 2066 1873.5 c 0,49,50
 2048 1916 2048 1916 2042 1934 c 0,51,52
 1986 2088 1986 2088 1986.5 2240.5 c 0,53,54
 1987 2392 1987 2392 1988 2428 c 0,55,56
 1993 2617 1993 2617 2031 2716 c 0,57,58
 2068 2816 2068 2816 2108 2884 c 0,59,60
 2183 3014 2183 3014 2251 3066.5 c 128,-1,61
 2319 3119 2319 3119 2339 3134 c 0,62,63
 2395 3176 2395 3176 2515 3198 c 0,64,65
 2555 3205 2555 3205 2597 3205 c 0,66,67
 2681 3204 2681 3204 2773 3176 c 0,68,69
 2912 3134 2912 3134 2966 3026 c 0,70,71
 3068 2823 3068 2823 3087.5 2704.5 c 128,-1,72
 3107 2586 3107 2586 3111 2532 c 128,-1,73
 3115 2478 3115 2478 3112.5 2415.5 c 128,-1,74
 3110 2353 3110 2353 3107.5 2319 c 128,-1,75
 3105 2285 3105 2285 3096 2203 c 0,76,77
 3086 2121 3086 2121 3078 2031 c 0,78,79
 3062 1857 3062 1857 3016 1689.5 c 128,-1,80
 2970 1522 2970 1522 2962 1492.5 c 128,-1,81
 2954 1463 2954 1463 2947.5 1442 c 128,-1,82
 2941 1421 2941 1421 2930 1390.5 c 128,-1,83
 2919 1360 2919 1360 2914 1345.5 c 128,-1,84
 2909 1331 2909 1331 2894.5 1296.5 c 128,-1,85
 2880 1262 2880 1262 2875.5 1251 c 128,-1,86
 2871 1240 2871 1240 2853 1197.5 c 0,87,88
 2834 1156 2834 1156 2808 1092 c 0,89,90
 2749 951 2749 951 2696 873 c 128,-1,91
 2643 795 2643 795 2611.5 745 c 128,-1,92
 2580 695 2580 695 2562 667 c 0,93,94
 2510 589 2510 589 2475 554 c 0,95,96
 2428 507 2428 507 2400 479 c 128,-1,97
 2372 451 2372 451 2350 429.5 c 128,-1,98
 2328 408 2328 408 2318 398.5 c 128,-1,99
 2308 389 2308 389 2288 371 c 128,-1,100
 2268 353 2268 353 2254.5 341.5 c 0,101,102
 2242 330 2242 330 2222 314 c 0,103,104
 2087 204 2087 204 1988 155.5 c 128,-1,105
 1889 107 1889 107 1823 73 c 128,-1,106
 1757 39 1757 39 1684.5 35.5 c 128,-1,107
 1612 32 1612 32 1580 35.5 c 128,-1,108
 1548 39 1548 39 1527 44 c 128,-1,109
 1506 49 1506 49 1468 59 c 128,-1,110
 1430 69 1430 69 1412.5 73 c 128,-1,111
 1395 77 1395 77 1369.5 82.5 c 128,-1,112
 1344 88 1344 88 1333 91 c 128,-1,113
 1322 94 1322 94 1302 99.5 c 128,-1,114
 1282 105 1282 105 1268 111 c 0,115,116
 1226 129 1226 129 1205 141.5 c 128,-1,117
 1184 154 1184 154 1154.5 169.5 c 128,-1,118
 1125 185 1125 185 1111.5 193 c 128,-1,119
 1098 201 1098 201 1076 215 c 0,120,121
 925 311 925 311 865 530 c 128,-1,122
 805 749 805 749 789 878 c 0,123,124
 773 1008 773 1008 771 1160 c 0,125,126
 770 1211 770 1211 770 1256 c 0,127,128
 770 1346 770 1346 773 1414 c 0,129,130
 777 1516 777 1516 783 1582.5 c 128,-1,131
 789 1649 789 1649 801 1769.5 c 128,-1,132
 813 1890 813 1890 822.5 1997 c 128,-1,133
 832 2104 832 2104 836 2168 c 0,134,135
 840 2230 840 2230 840 2287 c 0,136,137
 840 2606 840 2606 721 2802 c 1,138,139
 629 2960 629 2960 487 2960 c 0,140,141
 440 2960 440 2960 388 2942 c 0,142,143
 380 2940 380 2940 368 2934.5 c 128,-1,144
 356 2929 356 2929 350.5 2926.5 c 128,-1,145
 345 2924 345 2924 329.5 2915.5 c 128,-1,146
 314 2907 314 2907 290 2895 c 0,147,148
 230 2865 230 2865 219 2808 c 0,149,150
 210 2761 210 2761 211 2710 c 0,151,152
 211 2646 211 2646 224 2574 c 0,153,154
 248 2445 248 2445 249.5 2435 c 128,-1,155
 251 2425 251 2425 254.5 2397.5 c 128,-1,156
 258 2370 258 2370 255.5 2357.5 c 0,157,158
 253 2344 253 2344 248 2324 c 0,159,160
 240 2291 240 2291 204.5 2263.5 c 128,-1,161
 169 2236 169 2236 152 2281.5 c 128,-1,162
 135 2327 135 2327 128 2386 c 128,-1,163
 121 2445 121 2445 106.5 2502.5 c 128,-1,164
 92 2560 92 2560 87.5 2591.5 c 0,165,166
 82 2622 82 2622 76 2656 c 0,167,168
 62 2726 62 2726 66 2773 c 2,169,-1
 69 2816 l 1,170,171
 69 2899 69 2899 118 2954 c 128,-1,172
 167 3009 167 3009 194.5 3032.5 c 128,-1,173
 222 3056 222 3056 235 3067.5 c 128,-1,174
 248 3079 248 3079 253 3083 c 128,-1,175
 258 3087 258 3087 269.5 3096.5 c 128,-1,176
 281 3106 281 3106 286.5 3109.5 c 128,-1,177
 292 3113 292 3113 303 3120.5 c 128,-1,178
 314 3128 314 3128 321.5 3131.5 c 128,-1,179
 329 3135 329 3135 340 3140 c 0,180,181
 414 3173 414 3173 545 3173 c 0,182,183
 580 3173 580 3173 619 3171 c 0,184,185
 805 3160 805 3160 899 3119.5 c 128,-1,186
 993 3079 993 3079 1032 3049 c 0,187,188
 1071 3018 1071 3018 1116 2948 c 0,189,190
 1204 2810 1204 2810 1219 2684.5 c 128,-1,191
 1234 2559 1234 2559 1234 2483 c 128,-1,192
 1234 2407 1234 2407 1230 2352 c 0,193,194
 1214 2154 1214 2154 1212 2065.5 c 128,-1,195
 1210 1977 1210 1977 1201 1811.5 c 128,-1,196
 1192 1646 1192 1646 1192 1561.5 c 0,197,198
 1192 1476 1192 1476 1190 1338 c 0,199,200
 1189 1255 1189 1255 1190 1202 c 0,201,202
 1190 1166 1190 1166 1190 1143 c 0,203,204
 1193 967 1193 967 1209.5 865 c 128,-1,205
 1226 763 1226 763 1230 735 c 128,-1,206
 1234 707 1234 707 1235 700.5 c 128,-1,207
 1236 694 1236 694 1240 671 c 128,-1,208
 1244 648 1244 648 1246.5 640 c 128,-1,209
 1249 632 1249 632 1254.5 613 c 128,-1,210
 1260 594 1260 594 1265.5 583.5 c 0,211,212
 1271 572 1271 572 1279 556 c 0,213,214
 1292 529 1292 529 1319 496 c 0,215,216
 1426 360 1426 360 1542 314 c 0,217,218
 1654 269 1654 269 1724 268 c 0,219,220
 1726 268 1726 268 1728 268 c 0,221,222
 1798 270 1798 270 1876 314 c 0,223,224
 2134 458 2134 458 2343 692 c 0,225,226
 2386 739 2386 739 2436.5 813 c 128,-1,227
 2487 887 2487 887 2515.5 926.5 c 128,-1,228
 2544 966 2544 966 2584.5 1045 c 128,-1,229
 2625 1124 2625 1124 2639 1147.5 c 128,-1,230
 2653 1171 2653 1171 2668.5 1196 c 128,-1,231
 2684 1221 2684 1221 2689.5 1231 c 128,-1,232
 2695 1241 2695 1241 2706.5 1261 c 0,233,234
 2718 1280 2718 1280 2724 1294 c 0,235,236
 2774 1407 2774 1407 2789 1495.5 c 128,-1,237
 2804 1584 2804 1584 2824 1672 c 128,-1,238
 2844 1760 2844 1760 2853.5 1849 c 0,239,240
 2864 1938 2864 1938 2872 1994 c 0,241,242
 2888 2103 2888 2103 2888 2187 c 1,0,-1
EndSplineSet
EndChar

StartChar: u1058D
Encoding: 66957 66957 26
Width: 2867
VWidth: 0
Flags: W
HStem: 2990 168<652.257 1151 1982 2344.34>
VStem: 705 376<464.536 2048.41> 1798 156<1653.75 2317.47>
LayerCount: 2
Fore
SplineSet
711 1368 m 1,0,-1
 760 1962 l 2,1,2
 760 1972 760 1972 761.5 2006 c 128,-1,3
 763 2040 763 2040 762 2055 c 128,-1,4
 761 2070 761 2070 760.5 2100.5 c 128,-1,5
 760 2131 760 2131 757.5 2152.5 c 128,-1,6
 755 2174 755 2174 752 2203 c 0,7,8
 750 2232 750 2232 742 2282 c 0,9,10
 729 2369 729 2369 678.5 2459 c 128,-1,11
 628 2549 628 2549 603 2577 c 0,12,13
 578 2604 578 2604 540 2624 c 0,14,15
 490 2650 490 2650 438 2650 c 0,16,17
 376 2650 376 2650 310 2614 c 0,18,19
 292 2604 292 2604 274 2596 c 128,-1,20
 256 2588 256 2588 241.5 2579 c 128,-1,21
 227 2570 227 2570 212 2552 c 128,-1,22
 197 2534 197 2534 193 2511 c 128,-1,23
 189 2488 189 2488 188.5 2468 c 128,-1,24
 188 2448 188 2448 189.5 2436 c 128,-1,25
 191 2424 191 2424 195 2400.5 c 128,-1,26
 199 2377 199 2377 201.5 2346.5 c 128,-1,27
 204 2316 204 2316 219.5 2241 c 128,-1,28
 235 2166 235 2166 237 2136 c 0,29,30
 237 2129 237 2129 237 2124 c 0,31,32
 237 2055 237 2055 184 2015 c 0,33,34
 157 1993 157 1993 142 2033.5 c 128,-1,35
 127 2074 127 2074 120 2126.5 c 128,-1,36
 113 2179 113 2179 102.5 2230 c 128,-1,37
 92 2281 92 2281 87.5 2311.5 c 0,38,39
 82 2342 82 2342 76 2372 c 0,40,41
 63 2433 63 2433 63 2481 c 0,42,43
 63 2550 63 2550 90 2596 c 0,44,45
 136 2674 136 2674 171 2703 c 128,-1,46
 206 2732 206 2732 224 2747.5 c 128,-1,47
 242 2763 242 2763 248 2768 c 128,-1,48
 254 2773 254 2773 269.5 2784 c 128,-1,49
 285 2795 285 2795 295 2800 c 0,50,51
 380 2843 380 2843 512 2843 c 0,52,53
 551 2843 551 2843 594 2839 c 1,54,55
 721 2834 721 2834 807.5 2798 c 128,-1,56
 894 2762 894 2762 925 2734 c 128,-1,57
 956 2706 956 2706 1000 2638 c 0,58,59
 1084 2509 1084 2509 1099.5 2396 c 128,-1,60
 1115 2283 1115 2283 1116 2215.5 c 128,-1,61
 1117 2148 1117 2148 1113 2100 c 0,62,63
 1100 1940 1100 1940 1098 1855 c 128,-1,64
 1096 1770 1096 1770 1088.5 1617 c 128,-1,65
 1081 1464 1081 1464 1081 1360 c 2,66,-1
 1078 1010 l 1,67,68
 1078 582 1078 582 1184 442.5 c 128,-1,69
 1290 303 1290 303 1395 261.5 c 128,-1,70
 1500 220 1500 220 1558 220 c 0,71,72
 1559 220 1559 220 1560 219 c 0,73,74
 1618 219 1618 219 1698 261 c 0,75,76
 1849 339 1849 339 1954 438 c 1,77,78
 2112 575 2112 575 2153 632.5 c 128,-1,79
 2194 690 2194 690 2220 731 c 128,-1,80
 2246 772 2246 772 2268.5 804 c 128,-1,81
 2291 836 2291 836 2311 870 c 128,-1,82
 2331 904 2331 904 2356 951 c 128,-1,83
 2381 998 2381 998 2390.5 1014.5 c 128,-1,84
 2400 1031 2400 1031 2412 1052.5 c 128,-1,85
 2424 1074 2424 1074 2427 1080 c 128,-1,86
 2430 1086 2430 1086 2439 1102.5 c 128,-1,87
 2448 1119 2448 1119 2451.5 1127.5 c 128,-1,88
 2455 1136 2455 1136 2462 1151 c 0,89,90
 2505 1242 2505 1242 2541 1431.5 c 128,-1,91
 2577 1621 2577 1621 2582.5 1669 c 128,-1,92
 2588 1717 2588 1717 2593.5 1760 c 0,93,94
 2600 1803 2600 1803 2602 1825 c 0,95,96
 2610 1891 2610 1891 2609 1954 c 1,97,-1
 2617 2089 l 1,98,99
 2617 2337 2617 2337 2594 2414 c 0,100,101
 2558 2533 2558 2533 2520 2571 c 128,-1,102
 2482 2609 2482 2609 2413.5 2607 c 128,-1,103
 2345 2605 2345 2605 2301.5 2583 c 128,-1,104
 2258 2561 2258 2561 2241.5 2547 c 128,-1,105
 2225 2533 2225 2533 2204 2513 c 128,-1,106
 2183 2493 2183 2493 2173.5 2485 c 128,-1,107
 2164 2477 2164 2477 2136 2454.5 c 128,-1,108
 2108 2432 2108 2432 2091.5 2415.5 c 0,109,110
 2074 2398 2074 2398 2066 2386 c 0,111,112
 1991 2276 1991 2276 1971 2107 c 0,113,114
 1954 1965 1954 1965 1953 1906 c 0,115,116
 1953 1895 1953 1895 1954 1886 c 0,117,118
 1958 1835 1958 1835 1964 1807 c 128,-1,119
 1970 1779 1970 1779 1981.5 1740.5 c 128,-1,120
 1993 1702 1993 1702 2004.5 1655 c 128,-1,121
 2016 1608 2016 1608 2038 1576.5 c 0,122,123
 2060 1546 2060 1546 2075 1522 c 0,124,125
 2132 1433 2132 1433 2267 1365 c 0,126,127
 2299 1349 2299 1349 2310.5 1342.5 c 128,-1,128
 2322 1336 2322 1336 2341 1330 c 0,129,130
 2376 1320 2376 1320 2384 1294 c 0,131,132
 2393 1262 2393 1262 2393 1239 c 0,133,134
 2394 1184 2394 1184 2340 1184 c 1,135,136
 2307 1184 2307 1184 2270 1208 c 128,-1,137
 2233 1232 2233 1232 2217.5 1241 c 128,-1,138
 2202 1250 2202 1250 2184.5 1263.5 c 128,-1,139
 2167 1277 2167 1277 2144.5 1295.5 c 128,-1,140
 2122 1314 2122 1314 2084.5 1343 c 128,-1,141
 2047 1372 2047 1372 2024.5 1398 c 128,-1,142
 2002 1424 2002 1424 1991 1439 c 128,-1,143
 1980 1454 1980 1454 1973.5 1464.5 c 128,-1,144
 1967 1475 1967 1475 1955.5 1495.5 c 128,-1,145
 1944 1516 1944 1516 1938 1526 c 128,-1,146
 1932 1536 1932 1536 1923 1550 c 128,-1,147
 1914 1564 1914 1564 1909 1572 c 0,148,149
 1896 1594 1896 1594 1887.5 1619 c 0,150,151
 1878 1644 1878 1644 1862 1685 c 0,152,153
 1798 1845 1798 1845 1798 1989.5 c 128,-1,154
 1798 2134 1798 2134 1799 2168 c 0,155,156
 1806 2457 1806 2457 1970 2681 c 0,157,158
 2003 2726 2003 2726 2068 2772 c 0,159,160
 2201 2867 2201 2867 2351 2867 c 0,161,162
 2433 2867 2433 2867 2519 2839 c 0,163,164
 2634 2805 2634 2805 2682 2710 c 0,165,166
 2809 2457 2809 2457 2809 2171 c 0,167,168
 2809 2118 2809 2118 2805 2064 c 0,169,170
 2801 2014 2801 2014 2793.5 1945.5 c 128,-1,171
 2786 1877 2786 1877 2778 1806 c 0,172,173
 2764 1671 2764 1671 2711 1465 c 0,174,175
 2632 1161 2632 1161 2589.5 1072.5 c 128,-1,176
 2547 984 2547 984 2524 934.5 c 0,177,178
 2502 886 2502 886 2490 862 c 0,179,180
 2456 793 2456 793 2428.5 751 c 128,-1,181
 2401 709 2401 709 2372.5 664.5 c 128,-1,182
 2344 620 2344 620 2333.5 605.5 c 0,183,184
 2322 591 2322 591 2300 559 c 0,185,186
 2263 507 2263 507 2225.5 469 c 128,-1,187
 2188 431 2188 431 2146 387.5 c 128,-1,188
 2104 344 2104 344 2084 324 c 0,189,190
 1978 218 1978 218 1898.5 173 c 128,-1,191
 1819 128 1819 128 1764.5 102.5 c 128,-1,192
 1710 77 1710 77 1651 46 c 128,-1,193
 1592 15 1592 15 1523 11 c 128,-1,194
 1454 7 1454 7 1425 9.5 c 128,-1,195
 1396 12 1396 12 1383 14.5 c 128,-1,196
 1370 17 1370 17 1330.5 27.5 c 128,-1,197
 1291 38 1291 38 1251 48 c 0,198,199
 1169 67 1169 67 1122 93 c 128,-1,200
 1075 119 1075 119 1043 135.5 c 128,-1,201
 1011 152 1011 152 994 162 c 0,202,203
 906 212 906 212 822 358 c 0,204,205
 779 434 779 434 752.5 553 c 128,-1,206
 726 672 726 672 721.5 715 c 128,-1,207
 717 758 717 758 714.5 777.5 c 128,-1,208
 712 797 712 797 710 848 c 0,209,210
 708 900 708 900 708 914 c 0,211,212
 706 986 706 986 705 1073 c 0,213,214
 707 1160 707 1160 704.5 1179.5 c 128,-1,215
 702 1199 702 1199 706.5 1276.5 c 128,-1,216
 711 1354 711 1354 711 1368 c 1,0,-1
385 3183 m 1,217,218
 386 3192 386 3192 382 3214 c 0,219,220
 375 3260 375 3260 401 3260 c 0,221,222
 558 3258 558 3258 787.5 3219.5 c 128,-1,223
 1017 3181 1017 3181 1123.5 3175 c 128,-1,224
 1230 3169 1230 3169 1306 3166 c 128,-1,225
 1382 3163 1382 3163 1435.5 3161 c 128,-1,226
 1489 3159 1489 3159 1569.5 3158.5 c 128,-1,227
 1650 3158 1650 3158 1691 3158 c 0,228,229
 1837 3158 1837 3158 1951 3158 c 128,-1,230
 2065 3158 2065 3158 2351 3174 c 1,231,232
 2356 3153 2356 3153 2379 3123 c 0,233,234
 2416 3073 2416 3073 2375.5 3053 c 128,-1,235
 2335 3033 2335 3033 2284 3020.5 c 128,-1,236
 2233 3008 2233 3008 2200.5 3005.5 c 128,-1,237
 2168 3003 2168 3003 2097.5 3001.5 c 128,-1,238
 2027 3000 2027 3000 1808 2990 c 0,239,240
 1680 2984 1680 2984 1524 2983 c 0,241,242
 1412 2982 1412 2982 1286 2986 c 0,243,244
 982 2994 982 2994 862 3004 c 128,-1,245
 742 3014 742 3014 597.5 3030.5 c 128,-1,246
 453 3047 453 3047 344 3056 c 1,247,-1
 385 3183 l 1,217,218
EndSplineSet
EndChar

StartChar: u10591
Encoding: 66961 66961 27
Width: 2916
VWidth: 0
Flags: W
HStem: -471 201<2175.92 2591.78> 262 156<1929 2546.65>
VStem: 479 373<900.094 1409 2634 2891.41> 1839 320<399.715 598 905 1243.91 1359.31 1503.06 3129.93 3164.53>
LayerCount: 2
Fore
SplineSet
479 2318 m 1,0,-1
 484 2532 l 1,1,2
 484 2704 484 2704 426 2828 c 0,3,4
 422 2836 422 2836 421 2839 c 128,-1,5
 420 2842 420 2842 417 2848.5 c 128,-1,6
 414 2855 414 2855 412.5 2858 c 128,-1,7
 411 2861 411 2861 407.5 2866.5 c 128,-1,8
 404 2872 404 2872 401.5 2875.5 c 128,-1,9
 399 2879 399 2879 395.5 2884 c 128,-1,10
 392 2889 392 2889 388 2893 c 0,11,12
 317 2964 317 2964 254 2972 c 0,13,14
 247 2973 247 2973 240 2973 c 0,15,16
 186 2973 186 2973 139 2920 c 0,17,18
 131 2910 131 2910 105.5 2864 c 128,-1,19
 80 2818 80 2818 75 2835 c 0,20,21
 57 2871 57 2871 68 2931 c 128,-1,22
 79 2991 79 2991 119 3031 c 0,23,24
 257 3169 257 3169 457 3169 c 0,25,26
 485 3168 485 3168 515 3166 c 0,27,28
 681 3150 681 3150 770 3031 c 0,29,30
 820 2959 820 2959 824 2908 c 128,-1,31
 828 2857 828 2857 836.5 2678.5 c 128,-1,32
 845 2500 845 2500 845 2069.5 c 0,33,34
 845 1640 845 1640 849 1504 c 0,35,36
 851 1427 851 1427 851 1364 c 0,37,38
 851 1318 851 1318 850 1280 c 0,39,40
 849 1260 849 1260 849 1241 c 0,41,42
 850 1007 850 1007 952 885 c 0,43,44
 994 834 994 834 1057 794 c 0,45,46
 1123 752 1123 752 1190 752 c 0,47,48
 1296 752 1296 752 1402 856 c 0,49,50
 1420 874 1420 874 1457 915.5 c 128,-1,51
 1494 957 1494 957 1511.5 976 c 128,-1,52
 1529 995 1529 995 1544.5 1013 c 128,-1,53
 1560 1031 1560 1031 1575.5 1052.5 c 128,-1,54
 1591 1074 1591 1074 1600 1086 c 128,-1,55
 1609 1098 1609 1098 1626 1125.5 c 128,-1,56
 1643 1153 1643 1153 1648 1161.5 c 128,-1,57
 1653 1170 1653 1170 1674 1205 c 128,-1,58
 1695 1240 1695 1240 1704.5 1256.5 c 128,-1,59
 1714 1273 1714 1273 1741.5 1319.5 c 128,-1,60
 1769 1366 1769 1366 1781.5 1389.5 c 128,-1,61
 1794 1413 1794 1413 1811 1450 c 0,62,63
 1864 1565 1864 1565 1864 1755 c 0,64,65
 1864 1856 1864 1856 1848 1980 c 0,66,67
 1820 2208 1820 2208 1819 2330 c 128,-1,68
 1818 2452 1818 2452 1807.5 2570 c 0,69,70
 1798 2688 1798 2688 1790 2764 c 0,71,72
 1784 2820 1784 2820 1784 2876 c 0,73,74
 1784 3017 1784 3017 1819 3158 c 0,75,76
 1830 3211 1830 3211 1908 3188.5 c 128,-1,77
 1986 3166 1986 3166 2007 3166 c 128,-1,78
 2028 3166 2028 3166 2052 3171 c 128,-1,79
 2076 3176 2076 3176 2095 3180.5 c 0,80,81
 2114 3184 2114 3184 2132 3186 c 0,82,83
 2170 3189 2170 3189 2171 3154 c 0,84,85
 2199 2718 2199 2718 2199 2396 c 0,86,87
 2199 2295 2199 2295 2197 2205 c 0,88,89
 2185 1828 2185 1828 2174 1494.5 c 128,-1,90
 2163 1161 2163 1161 2161 1015 c 0,91,92
 2159 870 2159 870 2146 640 c 0,93,94
 2134 427 2134 427 2134 411 c 1,95,-1
 2293 418 l 2,96,97
 2370 418 2370 418 2400 414 c 0,98,99
 2642 386 2642 386 2757 276 c 0,100,101
 2791 243 2791 243 2821 158 c 0,102,103
 2858 53 2858 53 2857 -42 c 0,104,105
 2857 -149 2857 -149 2810 -242 c 0,106,107
 2775 -310 2775 -310 2667 -398 c 0,108,109
 2576 -471 2576 -471 2400 -471 c 0,110,111
 2347 -469 2347 -469 2283 -454.5 c 128,-1,112
 2219 -440 2219 -440 2207 -437.5 c 128,-1,113
 2195 -435 2195 -435 2175 -431 c 0,114,115
 2156 -426 2156 -426 2144 -424 c 0,116,117
 2051 -404 2051 -404 1998 -351.5 c 0,118,119
 1945 -298 1945 -298 1932 -284 c 0,120,121
 1862 -206 1862 -206 1850.5 -136 c 128,-1,122
 1839 -66 1839 -66 1839 0 c 2,123,-1
 1839 236 l 1,124,125
 1727 205 1727 205 1678.5 173 c 128,-1,126
 1630 141 1630 141 1594 111 c 128,-1,127
 1558 81 1558 81 1542 67.5 c 128,-1,128
 1526 54 1526 54 1518 46 c 0,129,130
 1436 -42 1436 -42 1408 -70 c 0,131,132
 1336 -142 1336 -142 1257 -365 c 0,133,134
 1235 -430 1235 -430 1191 -501.5 c 128,-1,135
 1147 -573 1147 -573 1131 -603 c 0,136,137
 1075 -709 1075 -709 1031 -722 c 0,138,139
 933 -751 933 -751 938 -700 c 0,140,141
 942 -643 942 -643 942 -612 c 0,142,143
 942 -558 942 -558 946 -525.5 c 128,-1,144
 950 -493 950 -493 958 -422 c 128,-1,145
 966 -351 966 -351 975 -280 c 128,-1,146
 984 -209 984 -209 1013.5 -158.5 c 128,-1,147
 1043 -108 1043 -108 1053 -93.5 c 128,-1,148
 1063 -79 1063 -79 1077 -65 c 0,149,150
 1104 -38 1104 -38 1124.5 -21.5 c 128,-1,151
 1145 -5 1145 -5 1163 12.5 c 128,-1,152
 1181 30 1181 30 1207 47 c 128,-1,153
 1233 64 1233 64 1272.5 83.5 c 128,-1,154
 1312 103 1312 103 1336.5 117 c 128,-1,155
 1361 131 1361 131 1410 160 c 0,156,157
 1597 271 1597 271 1682 296 c 0,158,159
 1811 335 1811 335 1839 346 c 1,160,-1
 1839 1049 l 2,161,162
 1839 1060 1839 1060 1848 1158 c 128,-1,163
 1857 1256 1857 1256 1851 1255.5 c 128,-1,164
 1845 1255 1845 1255 1839 1241 c 1,165,166
 1839 1264 1839 1264 1835 1264 c 0,167,168
 1830 1263 1830 1263 1791.5 1148.5 c 128,-1,169
 1753 1034 1753 1034 1734 1009.5 c 0,170,171
 1715 984 1715 984 1666 920 c 0,172,173
 1635 879 1635 879 1576 817.5 c 128,-1,174
 1517 756 1517 756 1480.5 720 c 128,-1,175
 1444 684 1444 684 1426 668 c 0,176,177
 1300 553 1300 553 1225 527.5 c 128,-1,178
 1150 502 1150 502 1090.5 496 c 128,-1,179
 1031 490 1031 490 1023 489.5 c 128,-1,180
 1015 489 1015 489 978 495.5 c 128,-1,181
 941 502 941 502 885.5 508.5 c 128,-1,182
 830 515 830 515 756.5 557 c 128,-1,183
 683 599 683 599 658.5 618 c 128,-1,184
 634 637 634 637 592 686 c 0,185,186
 512 780 512 780 495 890 c 0,187,188
 474 1034 474 1034 474 1504 c 1,189,-1
 479 2318 l 1,0,-1
2114 262 m 1,190,191
 2112 248 2112 248 2103 195 c 128,-1,192
 2094 142 2094 142 2091 104.5 c 0,193,194
 2088 68 2088 68 2083 34 c 0,195,196
 2080 15 2080 15 2080 -5 c 0,197,198
 2080 -90 2080 -90 2138 -182 c 0,199,200
 2162 -220 2162 -220 2200 -245.5 c 128,-1,201
 2238 -271 2238 -271 2262 -274.5 c 128,-1,202
 2286 -278 2286 -278 2327 -274 c 128,-1,203
 2368 -270 2368 -270 2385.5 -270 c 128,-1,204
 2403 -270 2403 -270 2433.5 -271.5 c 0,205,206
 2464 -272 2464 -272 2479 -272 c 0,207,208
 2548 -270 2548 -270 2575.5 -243.5 c 128,-1,209
 2603 -217 2603 -217 2610 -209 c 128,-1,210
 2617 -201 2617 -201 2626.5 -180 c 128,-1,211
 2636 -159 2636 -159 2638 -153 c 128,-1,212
 2640 -147 2640 -147 2647 -127 c 128,-1,213
 2654 -107 2654 -107 2656 -96 c 128,-1,214
 2658 -85 2658 -85 2659 -77.5 c 128,-1,215
 2660 -70 2660 -70 2659 -59 c 128,-1,216
 2658 -48 2658 -48 2657 -42 c 0,217,218
 2653 -18 2653 -18 2649 7 c 128,-1,219
 2645 32 2645 32 2642 46 c 0,220,221
 2626 118 2626 118 2585.5 154 c 128,-1,222
 2545 190 2545 190 2518.5 198.5 c 0,223,224
 2492 208 2492 208 2452 222 c 0,225,226
 2353 258 2353 258 2247.5 259.5 c 128,-1,227
 2142 261 2142 261 2114 262 c 1,190,191
EndSplineSet
EndChar

StartChar: u1058E
Encoding: 66958 66958 28
Width: 1634
VWidth: 0
Flags: W
HStem: 1495 107<509.627 745 1016 1254.66> 3064 41<410.19 629.688>
VStem: 745 263<57.1882 1503 1602 3105.27>
LayerCount: 2
Fore
SplineSet
434 3064 m 0,0,1
 388 3049 388 3049 417 3032 c 128,-1,2
 446 3015 446 3015 466 3016 c 0,3,4
 496 3017 496 3017 496 2998 c 1,5,6
 488 2981 488 2981 473 2980 c 128,-1,7
 458 2979 458 2979 453 2977 c 128,-1,8
 448 2975 448 2975 436 2969 c 0,9,10
 380 2942 380 2942 344 2978 c 0,11,12
 341 2980 341 2980 336 2982.5 c 0,13,14
 330 2984 330 2984 328 2986 c 0,15,16
 291 3008 291 3008 336 3076 c 0,17,18
 356 3106 356 3106 400 3106 c 1,19,-1
 422 3105 l 2,20,21
 434 3105 434 3105 441.5 3101.5 c 128,-1,22
 449 3098 449 3098 455 3096.5 c 128,-1,23
 461 3095 461 3095 471 3094.5 c 128,-1,24
 481 3094 481 3094 494.5 3090.5 c 128,-1,25
 508 3087 508 3087 523 3090.5 c 128,-1,26
 538 3094 538 3094 555 3096 c 0,27,28
 604 3103 604 3103 617.5 3114.5 c 128,-1,29
 631 3126 631 3126 636.5 3129.5 c 128,-1,30
 642 3133 642 3133 654 3138 c 128,-1,31
 666 3143 666 3143 672 3146 c 128,-1,32
 678 3149 678 3149 686 3152 c 0,33,34
 718 3163 718 3163 726.5 3186 c 128,-1,35
 735 3209 735 3209 751 3219.5 c 128,-1,36
 767 3230 767 3230 782.5 3232.5 c 128,-1,37
 798 3235 798 3235 823.5 3231.5 c 128,-1,38
 849 3228 849 3228 869 3228 c 128,-1,39
 889 3228 889 3228 913 3231.5 c 128,-1,40
 937 3235 937 3235 969 3231.5 c 128,-1,41
 1001 3228 1001 3228 1001 3226 c 2,42,-1
 999 3215 l 1,43,44
 999 3013 999 3013 1008 1593 c 1,45,46
 1027 1597 1027 1597 1057.5 1601.5 c 128,-1,47
 1088 1606 1088 1606 1103.5 1609.5 c 128,-1,48
 1119 1613 1119 1613 1137 1616 c 0,49,50
 1205 1627 1205 1627 1233.5 1643 c 128,-1,51
 1262 1659 1262 1659 1273 1665 c 128,-1,52
 1284 1671 1284 1671 1302 1683.5 c 128,-1,53
 1320 1696 1320 1696 1338 1706 c 0,54,55
 1410 1748 1410 1748 1442 1840 c 0,56,57
 1450 1864 1450 1864 1454 1873.5 c 128,-1,58
 1458 1883 1458 1883 1462.5 1900.5 c 128,-1,59
 1467 1918 1467 1918 1469.5 1926.5 c 128,-1,60
 1472 1935 1472 1935 1476.5 1945.5 c 128,-1,61
 1481 1956 1481 1956 1483 1962 c 128,-1,62
 1485 1968 1485 1968 1483 1976 c 0,63,64
 1478 1995 1478 1995 1489 1991 c 0,65,66
 1507 1986 1507 1986 1515.5 1965 c 128,-1,67
 1524 1944 1524 1944 1532 1931.5 c 128,-1,68
 1540 1919 1540 1919 1544 1908 c 128,-1,69
 1548 1897 1548 1897 1552.5 1878 c 0,70,71
 1557 1860 1557 1860 1565 1834 c 0,72,73
 1574 1804 1574 1804 1574 1778 c 0,74,75
 1574 1715 1574 1715 1520 1671 c 1,76,77
 1452 1603 1452 1603 1376 1581.5 c 128,-1,78
 1300 1560 1300 1560 1287.5 1555.5 c 128,-1,79
 1275 1551 1275 1551 1263 1548 c 128,-1,80
 1251 1545 1251 1545 1235.5 1542 c 128,-1,81
 1220 1539 1220 1539 1206 1535.5 c 128,-1,82
 1192 1532 1192 1532 1163 1528 c 128,-1,83
 1134 1524 1134 1524 1117.5 1520 c 128,-1,84
 1101 1516 1101 1516 1075 1511.5 c 128,-1,85
 1049 1507 1049 1507 1039.5 1503.5 c 128,-1,86
 1030 1500 1030 1500 1024 1501.5 c 128,-1,87
 1018 1503 1018 1503 1016 1503 c 1,88,-1
 1008 82 l 1,89,90
 1006 78 1006 78 1009.5 68 c 128,-1,91
 1013 58 1013 58 1004 55.5 c 0,92,93
 994 53 994 53 982 53 c 2,94,-1
 930 57 l 1,95,-1
 840 57 l 1,96,-1
 780 53 l 1,97,98
 742 52 742 52 744 68 c 0,99,100
 744 72 744 72 745 74 c 2,101,-1
 745 1495 l 1,102,103
 686 1503 686 1503 667 1508 c 0,104,105
 648 1512 648 1512 618 1518 c 0,106,107
 520 1536 520 1536 410.5 1595 c 128,-1,108
 301 1654 301 1654 269 1681 c 128,-1,109
 237 1708 237 1708 220 1722 c 128,-1,110
 203 1736 203 1736 194 1744 c 0,111,112
 68 1864 68 1864 68 2082 c 0,113,114
 68 2222 68 2222 86 2268 c 0,115,116
 126 2376 126 2376 209 2417 c 0,117,118
 307 2467 307 2467 408 2467 c 0,119,120
 452 2467 452 2467 496 2458 c 0,121,122
 537 2446 537 2446 573.5 2416 c 128,-1,123
 610 2386 610 2386 628.5 2368.5 c 128,-1,124
 647 2351 647 2351 677.5 2314 c 128,-1,125
 708 2277 708 2277 721 2264.5 c 128,-1,126
 734 2252 734 2252 739.5 2251 c 128,-1,127
 745 2250 745 2250 745 2245 c 1,128,-1
 745 3080 l 1,129,-1
 750 3114 l 1,130,131
 750 3122 750 3122 744.5 3130 c 128,-1,132
 739 3138 739 3138 736 3127 c 0,133,134
 734 3116 734 3116 732 3110 c 0,135,136
 726 3087 726 3087 712.5 3082.5 c 128,-1,137
 699 3078 699 3078 687 3074 c 0,138,139
 657 3064 657 3064 617.5 3060 c 128,-1,140
 578 3056 578 3056 538.5 3056 c 128,-1,141
 499 3056 499 3056 473.5 3062 c 128,-1,142
 448 3068 448 3068 434 3064 c 0,0,1
472 2257 m 2,143,-1
 422 2257 l 2,144,145
 374 2257 374 2257 322 2222.5 c 128,-1,146
 270 2188 270 2188 255 2162 c 128,-1,147
 240 2136 240 2136 232 2114 c 0,148,149
 211 2057 211 2057 209 2029 c 128,-1,150
 207 2001 207 2001 206.5 1995 c 128,-1,151
 206 1989 206 1989 207.5 1979 c 128,-1,152
 209 1969 209 1969 209.5 1965 c 128,-1,153
 210 1961 210 1961 213.5 1949 c 0,154,155
 218 1937 218 1937 218 1935 c 0,156,157
 250 1805 250 1805 377 1720 c 0,158,159
 518 1620 518 1620 644 1608 c 0,160,161
 674 1605 674 1605 681.5 1602 c 128,-1,162
 689 1599 689 1599 716.5 1600.5 c 128,-1,163
 744 1602 744 1602 745 1602 c 1,164,-1
 745 2085 l 1,165,166
 736 2106 736 2106 733 2114 c 0,167,168
 727 2128 727 2128 715.5 2139.5 c 128,-1,169
 704 2151 704 2151 688 2169 c 0,170,171
 672 2188 672 2188 662 2198 c 0,172,173
 634 2229 634 2229 590.5 2239.5 c 128,-1,174
 547 2250 547 2250 537 2252 c 0,175,176
 519 2256 519 2256 472 2257 c 2,143,-1
EndSplineSet
EndChar

StartChar: u1058F
Encoding: 66959 66959 29
Width: 1679
VWidth: 0
Flags: W
HStem: 57 205<983.29 1424.3>
VStem: 70 401<1302.61 2736.76> 864 94<1699.01 2937.44>
LayerCount: 2
Fore
SplineSet
86 33 m 0,0,1
 65 47 65 47 65 70 c 0,2,3
 65 107 65 107 119 168 c 0,4,5
 162 218 162 218 246 269 c 0,6,7
 336 324 336 324 402.5 393 c 128,-1,8
 469 462 469 462 473 466 c 1,9,10
 458 494 458 494 432.5 545.5 c 128,-1,11
 407 597 407 597 391 626.5 c 128,-1,12
 375 656 375 656 363.5 678.5 c 128,-1,13
 352 701 352 701 341.5 726.5 c 128,-1,14
 331 752 331 752 324.5 767 c 128,-1,15
 318 782 318 782 308 813 c 128,-1,16
 298 844 298 844 294 855.5 c 128,-1,17
 290 867 290 867 278 906 c 2,18,-1
 262 958 l 1,19,20
 136 1324 136 1324 94 1717 c 0,21,22
 88 1773 88 1773 77 1871 c 0,23,24
 69 1940 69 1940 69 2029 c 0,25,26
 69 2123 69 2123 78 2239 c 0,27,28
 95 2464 95 2464 121 2584 c 0,29,30
 163 2775 163 2775 209.5 2880.5 c 128,-1,31
 256 2986 256 2986 259 2993.5 c 128,-1,32
 262 3001 262 3001 271 3020.5 c 128,-1,33
 280 3040 280 3040 285.5 3048.5 c 128,-1,34
 291 3057 291 3057 300.5 3073.5 c 128,-1,35
 310 3090 310 3090 318 3101 c 0,36,37
 454 3278 454 3278 606 3278 c 0,38,39
 646 3278 646 3278 688 3265 c 0,40,41
 779 3234 779 3234 815 3211 c 128,-1,42
 851 3188 851 3188 873 3146.5 c 0,43,44
 894 3105 894 3105 908 3064 c 0,45,46
 963 2898 963 2898 963 2587 c 0,47,48
 963 2491 963 2491 958 2380 c 0,49,50
 957 2357 957 2357 954 2279.5 c 128,-1,51
 951 2202 951 2202 950 2181.5 c 128,-1,52
 949 2161 949 2161 946 2097.5 c 128,-1,53
 943 2034 943 2034 941 2008 c 128,-1,54
 939 1982 939 1982 935 1928 c 128,-1,55
 931 1874 931 1874 927 1837 c 0,56,57
 912 1702 912 1702 904.5 1646.5 c 128,-1,58
 897 1591 897 1591 881.5 1469 c 128,-1,59
 866 1347 866 1347 858 1293 c 0,60,61
 806 943 806 943 708 693 c 1,62,63
 775 573 775 573 816.5 526 c 128,-1,64
 858 479 858 479 892 442.5 c 128,-1,65
 926 406 926 406 952 377 c 128,-1,66
 978 348 978 348 1042.5 309 c 128,-1,67
 1107 270 1107 270 1161 263 c 0,68,69
 1186 260 1186 260 1209 260 c 0,70,71
 1264 260 1264 260 1309 278 c 0,72,73
 1374 304 1374 304 1400 327 c 0,74,75
 1517 431 1517 431 1560 589 c 0,76,77
 1578 656 1578 656 1585.5 656 c 128,-1,78
 1593 656 1593 656 1597 643 c 0,79,80
 1625 571 1625 571 1625 488 c 0,81,82
 1625 460 1625 460 1622 430 c 0,83,84
 1609 313 1609 313 1588 283 c 128,-1,85
 1567 253 1567 253 1555.5 237.5 c 128,-1,86
 1544 222 1544 222 1540 216.5 c 128,-1,87
 1536 211 1536 211 1527.5 200 c 0,88,89
 1518 188 1518 188 1512 182 c 0,90,91
 1432 102 1432 102 1313 75 c 0,92,93
 1219 53 1219 53 1125 53 c 0,94,95
 962 53 962 53 799 119 c 0,96,97
 719 150 719 150 681 189 c 0,98,99
 584 288 584 288 535 361 c 1,100,101
 411 184 411 184 299 107.5 c 128,-1,102
 187 31 187 31 154 21 c 128,-1,103
 121 11 121 11 86 33 c 0,0,1
471 2142 m 1,104,-1
 467 1853 l 1,105,106
 467 1635 467 1635 498.5 1451.5 c 128,-1,107
 530 1268 530 1268 533.5 1247 c 128,-1,108
 537 1226 537 1226 545 1184.5 c 0,109,110
 554 1142 554 1142 560 1116 c 0,111,112
 611 909 611 909 661 791 c 1,113,114
 728 954 728 954 758 1113 c 128,-1,115
 788 1272 788 1272 793.5 1302 c 128,-1,116
 799 1332 799 1332 805 1379 c 128,-1,117
 811 1426 811 1426 813.5 1447 c 128,-1,118
 816 1468 816 1468 822 1527.5 c 128,-1,119
 828 1587 828 1587 833 1631 c 128,-1,120
 838 1675 838 1675 843 1729.5 c 128,-1,121
 848 1784 848 1784 851.5 1845.5 c 128,-1,122
 855 1907 855 1907 856 1939.5 c 128,-1,123
 857 1972 857 1972 860 2055.5 c 0,124,125
 863 2138 863 2138 865 2162 c 0,126,127
 866 2175 866 2175 866 2229 c 0,128,129
 866 2269 866 2269 866 2330 c 0,130,131
 864 2474 864 2474 864 2486 c 2,132,-1
 868 2624 l 1,133,134
 868 2658 868 2658 863 2705 c 128,-1,135
 858 2752 858 2752 857 2762.5 c 128,-1,136
 856 2773 856 2773 854 2791.5 c 128,-1,137
 852 2810 852 2810 849 2823 c 0,138,139
 841 2859 841 2859 835 2877 c 128,-1,140
 829 2895 829 2895 825 2911 c 128,-1,141
 821 2927 821 2927 819 2933 c 128,-1,142
 817 2939 817 2939 812.5 2951 c 128,-1,143
 808 2963 808 2963 804.5 2969.5 c 0,144,145
 800 2976 800 2976 794 2985 c 0,146,147
 761 3030 761 3030 741 3021.5 c 128,-1,148
 721 3013 721 3013 716 3010.5 c 0,149,150
 710 3008 710 3008 686 2992 c 0,151,152
 602 2935 602 2935 541 2755 c 0,153,154
 466 2536 466 2536 466 2356 c 1,155,-1
 471 2142 l 1,104,-1
EndSplineSet
EndChar

StartChar: u10590
Encoding: 66960 66960 30
Width: 3096
VWidth: 0
Flags: W
LayerCount: 2
Fore
SplineSet
268 2520 m 0,0,1
 155 2454 155 2454 136 2356 c 0,2,3
 133 2342 133 2342 133 2323 c 0,4,5
 133 2282 133 2282 146 2218 c 0,6,7
 165 2124 165 2124 162 2123.5 c 128,-1,8
 159 2123 159 2123 135 2160 c 128,-1,9
 111 2197 111 2197 88.5 2279.5 c 128,-1,10
 66 2362 66 2362 66 2418 c 128,-1,11
 66 2474 66 2474 70 2504.5 c 128,-1,12
 74 2535 74 2535 82.5 2578.5 c 0,13,14
 90 2622 90 2622 98 2666 c 0,15,16
 132 2866 132 2866 291 2988 c 0,17,18
 306 3000 306 3000 310 3002 c 0,19,20
 419 3095 419 3095 517 3100 c 0,21,22
 543 3101 543 3101 567 3101 c 0,23,24
 687 3101 687 3101 759 3072 c 0,25,26
 846 3037 846 3037 878 3022.5 c 128,-1,27
 910 3008 910 3008 951 2984 c 0,28,29
 1140 2874 1140 2874 1262 2474 c 0,30,31
 1272 2442 1272 2442 1294 2363.5 c 128,-1,32
 1316 2285 1316 2285 1338 2210.5 c 128,-1,33
 1360 2136 1360 2136 1375 2039.5 c 128,-1,34
 1390 1943 1390 1943 1399 1805.5 c 128,-1,35
 1408 1668 1408 1668 1426 1492 c 128,-1,36
 1444 1316 1444 1316 1460 914 c 0,37,38
 1481 384 1481 384 1500 384 c 0,39,40
 1503 384 1503 384 1507 401 c 1,41,42
 1513 332 1513 332 1530 414 c 0,43,44
 1538 451 1538 451 1560 582 c 0,45,46
 1593 786 1593 786 1641 954 c 128,-1,47
 1689 1122 1689 1122 1754.5 1387 c 128,-1,48
 1820 1652 1820 1652 1835 1722.5 c 128,-1,49
 1850 1793 1850 1793 1867.5 1891.5 c 128,-1,50
 1885 1990 1885 1990 1898.5 2062 c 128,-1,51
 1912 2134 1912 2134 1934.5 2267 c 128,-1,52
 1957 2400 1957 2400 1970 2468 c 128,-1,53
 1983 2536 1983 2536 2004 2632.5 c 128,-1,54
 2025 2729 2025 2729 2031.5 2767.5 c 128,-1,55
 2038 2806 2038 2806 2039 2819.5 c 128,-1,56
 2040 2833 2040 2833 2040 2846 c 128,-1,57
 2040 2859 2040 2859 2038 2875 c 0,58,59
 2033 2915 2033 2915 2029 2932 c 128,-1,60
 2025 2949 2025 2949 2022.5 2960 c 128,-1,61
 2020 2971 2020 2971 2015 2989 c 128,-1,62
 2010 3007 2010 3007 2007 3016.5 c 128,-1,63
 2004 3026 2004 3026 1998 3044.5 c 128,-1,64
 1992 3063 1992 3063 1985 3085 c 128,-1,65
 1978 3107 1978 3107 1973 3124 c 128,-1,66
 1968 3141 1968 3141 1963 3165.5 c 128,-1,67
 1958 3190 1958 3190 1962.5 3196.5 c 128,-1,68
 1967 3203 1967 3203 1977 3208 c 0,69,70
 1979 3209 1979 3209 1982 3209 c 0,71,72
 2010 3209 2010 3209 2127 3137 c 0,73,74
 2257 3056 2257 3056 2298 3036.5 c 128,-1,75
 2339 3017 2339 3017 2379.5 3009 c 128,-1,76
 2420 3001 2420 3001 2440 2999 c 128,-1,77
 2460 2997 2460 2997 2485 2999 c 128,-1,78
 2510 3001 2510 3001 2520.5 3002 c 128,-1,79
 2531 3003 2531 3003 2565.5 3008.5 c 128,-1,80
 2600 3014 2600 3014 2621 3017 c 128,-1,81
 2642 3020 2642 3020 2669.5 3030 c 128,-1,82
 2697 3040 2697 3040 2732.5 3057 c 128,-1,83
 2768 3074 2768 3074 2795 3085.5 c 128,-1,84
 2822 3097 2822 3097 2878 3128.5 c 128,-1,85
 2934 3160 2934 3160 2956.5 3168.5 c 128,-1,86
 2979 3177 2979 3177 2987 3184 c 128,-1,87
 2995 3191 2995 3191 2999.5 3197.5 c 128,-1,88
 3004 3204 3004 3204 3008 3208 c 0,89,90
 3017 3216 3017 3216 3025.5 3196.5 c 128,-1,91
 3034 3177 3034 3177 3032 3152 c 0,92,93
 3025 3061 3025 3061 2949.5 2995.5 c 128,-1,94
 2874 2930 2874 2930 2853.5 2906 c 128,-1,95
 2833 2882 2833 2882 2799 2827 c 0,96,97
 2766 2772 2766 2772 2728 2737 c 0,98,99
 2582 2601 2582 2601 2327 2601 c 0,100,101
 2288 2601 2288 2601 2206 2637.5 c 128,-1,102
 2124 2674 2124 2674 2122 2662 c 1,103,104
 2099 2670 2099 2670 2097 2638 c 0,105,106
 2096 2624 2096 2624 2101.5 2580 c 128,-1,107
 2107 2536 2107 2536 2098 2491 c 128,-1,108
 2089 2446 2089 2446 2067 2323.5 c 128,-1,109
 2045 2201 2045 2201 2020.5 2091 c 128,-1,110
 1996 1981 1996 1981 1980.5 1903.5 c 128,-1,111
 1965 1826 1965 1826 1946.5 1709 c 128,-1,112
 1928 1592 1928 1592 1918 1539 c 0,113,114
 1824 1016 1824 1016 1771 809 c 128,-1,115
 1718 602 1718 602 1709 567 c 0,116,117
 1660 377 1660 377 1585.5 212 c 128,-1,118
 1511 47 1511 47 1495 8 c 1,119,-1
 1368 66 l 1,120,121
 1352 151 1352 151 1347 180 c 128,-1,122
 1342 209 1342 209 1330 266 c 0,123,124
 1296 422 1296 422 1258 702.5 c 128,-1,125
 1220 983 1220 983 1210.5 1046.5 c 128,-1,126
 1201 1110 1201 1110 1191 1154 c 128,-1,127
 1181 1198 1181 1198 1166.5 1250.5 c 128,-1,128
 1152 1303 1152 1303 1144 1339.5 c 128,-1,129
 1136 1376 1136 1376 1128 1424 c 0,130,131
 1112 1522 1112 1522 1092 1584 c 128,-1,132
 1072 1646 1072 1646 1051 1716 c 0,133,134
 972 1981 972 1981 932.5 2049 c 0,135,136
 893 2116 893 2116 890 2122 c 0,137,138
 809 2270 809 2270 771.5 2308 c 128,-1,139
 734 2346 734 2346 728.5 2352 c 0,140,141
 724 2358 724 2358 712 2368 c 0,142,143
 654 2419 654 2419 580 2461.5 c 128,-1,144
 506 2504 506 2504 483 2509.5 c 128,-1,145
 460 2515 460 2515 432 2524 c 0,146,147
 358 2548 358 2548 329 2540 c 128,-1,148
 300 2532 300 2532 291 2530 c 128,-1,149
 282 2528 282 2528 268 2520 c 0,0,1
EndSplineSet
EndChar

StartChar: u10592
Encoding: 66962 66962 31
Width: 1613
VWidth: 0
Flags: W
HStem: 1638 250<1103.36 1441.02>
VStem: 143 103<411.465 651 852 1155.38> 1552 4<1964.27 2007.81>
LayerCount: 2
Fore
SplineSet
552 1465 m 1,0,1
 548 1440 548 1440 522 1440 c 0,2,3
 465 1440 465 1440 446 1425 c 0,4,5
 402 1381 402 1381 376.5 1338 c 128,-1,6
 351 1295 351 1295 337 1274 c 128,-1,7
 323 1253 323 1253 319.5 1247 c 0,8,9
 316 1242 316 1242 307 1226 c 0,10,11
 225 1085 225 1085 225 837 c 0,12,13
 225 712 225 712 246 561 c 0,14,15
 263 414 263 414 360 295 c 0,16,17
 376 271 376 271 381 264 c 128,-1,18
 386 257 386 257 392 248.5 c 128,-1,19
 398 240 398 240 402 236.5 c 128,-1,20
 406 233 406 233 413 226 c 0,21,22
 506 133 506 133 676 133 c 0,23,24
 765 133 765 133 812 166.5 c 0,25,26
 860 200 860 200 900 240 c 0,27,28
 1016 354 1016 354 1028 520 c 0,29,30
 1030 552 1030 552 1036 612 c 0,31,32
 1039 638 1039 638 1039 668 c 0,33,34
 1038 704 1038 704 1034 746 c 0,35,36
 1026 822 1026 822 1024 842 c 0,37,38
 996 1032 996 1032 842 1194 c 0,39,40
 802 1236 802 1236 785.5 1255 c 128,-1,41
 769 1274 769 1274 753.5 1290 c 128,-1,42
 738 1306 738 1306 718 1324 c 128,-1,43
 698 1342 698 1342 680 1360 c 128,-1,44
 662 1378 662 1378 626 1394 c 0,45,46
 552 1426 552 1426 553 1465 c 1,47,-1
 552 1465 l 1,48,49
 553 1467 553 1467 553 1469 c 1,50,51
 553 1467 553 1467 553 1465 c 1,52,53
 616 1522 616 1522 619 1567 c 128,-1,54
 622 1612 622 1612 598 1635 c 1,55,56
 562 1566 562 1566 553 1471 c 1,57,58
 556 1502 556 1502 526.5 1525 c 128,-1,59
 497 1548 497 1548 471 1542 c 1,60,-1
 590 1641 l 1,61,62
 558 1664 558 1664 517 1631 c 128,-1,63
 476 1598 476 1598 469.5 1570 c 128,-1,64
 463 1542 463 1542 462 1540 c 1,65,-1
 463 1540 l 1,66,67
 467 1542 467 1542 471 1542 c 1,68,-1
 463 1536 l 1,69,70
 463 1537 463 1537 462 1537 c 0,71,72
 460 1504 460 1504 491 1473 c 128,-1,73
 522 1442 522 1442 549 1462 c 0,74,75
 551 1463 551 1463 552 1465 c 1,0,1
706 1763 m 1,76,77
 720 1777 720 1777 736 1776 c 1,78,79
 746 1803 746 1803 789 1813 c 0,80,81
 878 1833 878 1833 950 1905 c 0,82,83
 965 1920 965 1920 972 1939.5 c 128,-1,84
 979 1959 979 1959 991 1993 c 128,-1,85
 1003 2027 1003 2027 1022.5 2046 c 128,-1,86
 1042 2065 1042 2065 1049 2048 c 0,87,88
 1082 1927 1082 1927 1192 1892 c 0,89,90
 1214 1885 1214 1885 1245.5 1886.5 c 128,-1,91
 1277 1888 1277 1888 1304 1888 c 128,-1,92
 1331 1888 1331 1888 1357.5 1895.5 c 128,-1,93
 1384 1903 1384 1903 1414 1931 c 128,-1,94
 1444 1959 1444 1959 1457.5 1968 c 128,-1,95
 1471 1977 1471 1977 1524 2055 c 0,96,97
 1553 2098 1553 2098 1553 2089.5 c 128,-1,98
 1553 2081 1553 2081 1549.5 2068 c 128,-1,99
 1546 2055 1546 2055 1551 2016.5 c 128,-1,100
 1556 1978 1556 1978 1557 1957 c 128,-1,101
 1558 1936 1558 1936 1554 1919.5 c 128,-1,102
 1550 1903 1550 1903 1538 1878 c 128,-1,103
 1526 1853 1526 1853 1521.5 1839 c 128,-1,104
 1517 1825 1517 1825 1513 1816 c 128,-1,105
 1509 1807 1509 1807 1502 1797 c 128,-1,106
 1495 1787 1495 1787 1492 1781.5 c 128,-1,107
 1489 1776 1489 1776 1478.5 1765.5 c 0,108,109
 1468 1754 1468 1754 1466 1752 c 0,110,111
 1409 1681 1409 1681 1296 1658 c 0,112,113
 1191 1636 1191 1636 1132 1636 c 0,114,115
 1126 1636 1126 1636 1122 1636 c 0,116,117
 972 1641 972 1641 913 1683 c 0,118,119
 895 1695 895 1695 889 1761 c 1,120,121
 874 1700 874 1700 801 1696 c 1,122,123
 817 1669 817 1669 884 1609 c 0,124,125
 1036 1471 1036 1471 1080.5 1419.5 c 128,-1,126
 1125 1368 1125 1368 1147 1343.5 c 128,-1,127
 1169 1319 1169 1319 1174.5 1312.5 c 128,-1,128
 1180 1306 1180 1306 1195.5 1288 c 0,129,130
 1210 1270 1210 1270 1218 1259 c 0,131,132
 1246 1219 1246 1219 1273 1168 c 0,133,134
 1300 1118 1300 1118 1314 998 c 0,135,136
 1322 926 1322 926 1322 858 c 0,137,138
 1322 696 1322 696 1274 561 c 0,139,140
 1270 551 1270 551 1261 526.5 c 128,-1,141
 1252 502 1252 502 1248 492.5 c 128,-1,142
 1244 483 1244 483 1236 463.5 c 128,-1,143
 1228 444 1228 444 1221.5 432.5 c 128,-1,144
 1215 421 1215 421 1205 405 c 0,145,146
 1124 275 1124 275 922 119 c 1,147,148
 816 43 816 43 695 43 c 0,149,150
 628 43 628 43 557 66 c 0,151,152
 541 70 541 70 513 78 c 0,153,154
 353 121 353 121 266 273 c 0,155,156
 254 294 254 294 228 336 c 0,157,158
 154 458 154 458 143 616 c 0,159,160
 134 741 134 741 133 804 c 0,161,162
 133 820 133 820 134 833 c 0,163,164
 137 893 137 893 147 947.5 c 128,-1,165
 157 1002 157 1002 160 1028.5 c 128,-1,166
 163 1055 163 1055 168 1077.5 c 0,167,168
 174 1100 174 1100 178 1112 c 0,169,170
 198 1164 198 1164 209.5 1200.5 c 128,-1,171
 221 1237 221 1237 244.5 1271.5 c 128,-1,172
 268 1306 268 1306 288 1342 c 128,-1,173
 308 1378 308 1378 324.5 1399 c 128,-1,174
 341 1420 341 1420 367 1456 c 0,175,176
 414 1521 414 1521 461 1539 c 1,177,178
 432 1576 432 1576 385 1630 c 0,179,180
 220 1820 220 1820 148 1996 c 0,181,182
 66 2200 66 2200 66 2352 c 0,183,184
 66 2546 66 2546 242 2757 c 1,185,186
 420 2955 420 2955 451 3011.5 c 128,-1,187
 482 3068 482 3068 496 3090.5 c 128,-1,188
 510 3113 510 3113 524 3128 c 128,-1,189
 538 3143 538 3143 555 3153 c 0,190,191
 594 3176 594 3176 669 3133.5 c 128,-1,192
 744 3091 744 3091 775.5 3066 c 0,193,194
 808 3040 808 3040 828 3026 c 0,195,196
 882 2988 882 2988 927 2970.5 c 128,-1,197
 972 2953 972 2953 1003.5 2940.5 c 128,-1,198
 1035 2928 1035 2928 1052 2922 c 0,199,200
 1098 2904 1098 2904 1144 2904 c 0,201,202
 1249 2904 1249 2904 1347 3004 c 0,203,204
 1370 3028 1370 3028 1382.5 3057.5 c 0,205,206
 1394 3086 1394 3086 1414 3118 c 0,207,208
 1439 3159 1439 3159 1450.5 3187.5 c 128,-1,209
 1462 3216 1462 3216 1470.5 3234 c 128,-1,210
 1479 3252 1479 3252 1495 3228 c 0,211,212
 1517 3188 1517 3188 1500 3155 c 0,213,214
 1467 3091 1467 3091 1458 3056.5 c 128,-1,215
 1449 3022 1449 3022 1447 3015 c 128,-1,216
 1445 3008 1445 3008 1440 2991.5 c 128,-1,217
 1435 2975 1435 2975 1431.5 2966.5 c 128,-1,218
 1428 2958 1428 2958 1422 2944 c 0,219,220
 1373 2818 1373 2818 1307 2771 c 0,221,222
 1171 2675 1171 2675 1002 2675 c 0,223,224
 868 2675 868 2675 783.5 2706 c 128,-1,225
 699 2737 699 2737 653.5 2761 c 128,-1,226
 608 2785 608 2785 591.5 2805 c 128,-1,227
 575 2825 575 2825 564.5 2844 c 128,-1,228
 554 2863 554 2863 539.5 2880 c 128,-1,229
 525 2897 525 2897 514.5 2897 c 128,-1,230
 504 2897 504 2897 487 2879 c 1,231,232
 445 2907 445 2907 420 2835 c 0,233,234
 414 2818 414 2818 410 2804 c 0,235,236
 401 2775 401 2775 382 2727 c 0,237,238
 344 2631 344 2631 344 2528 c 0,239,240
 344 2246 344 2246 512 1991 c 0,241,242
 540 1944 540 1944 588 1891.5 c 128,-1,243
 636 1839 636 1839 651 1820.5 c 128,-1,244
 666 1802 666 1802 677 1792 c 0,245,246
 700 1771 700 1771 706 1763 c 1,76,77
602 1642 m 1,247,248
 623 1619 623 1619 643 1637 c 0,249,250
 669 1661 669 1661 694.5 1694.5 c 128,-1,251
 720 1728 720 1728 732 1740 c 1,252,253
 729 1750 729 1750 731 1760 c 1,254,255
 723 1772 723 1772 718 1769 c 128,-1,256
 713 1766 713 1766 707 1763 c 1,257,258
 715 1756 715 1756 721 1749 c 1,259,-1
 611 1659 l 1,260,261
 644 1712 644 1712 701 1759 c 1,262,263
 697 1756 697 1756 686 1751 c 128,-1,264
 675 1746 675 1746 662 1739 c 128,-1,265
 649 1732 649 1732 635 1723.5 c 128,-1,266
 621 1715 621 1715 611.5 1707 c 0,267,268
 602 1700 602 1700 596 1690 c 0,269,270
 583 1671 583 1671 598 1647 c 1,271,-1
 590 1641 l 1,272,-1
 598 1635 l 1,273,274
 600 1637 600 1637 600.5 1638.5 c 128,-1,275
 601 1640 601 1640 602 1642 c 1,247,248
598 1647 m 1,276,-1
 611 1659 l 1,277,278
 606 1651 606 1651 602 1642 c 1,279,280
 600 1644 600 1644 598 1647 c 1,276,-1
EndSplineSet
EndChar

StartChar: u10593
Encoding: 66963 66963 32
Width: 2576
VWidth: 0
Flags: W
HStem: 16 414<1520.04 1770.37> 2089 336<1797.66 2133.96>
VStem: 1950 241<602.377 1472.78>
LayerCount: 2
Fore
SplineSet
1950 936 m 2,0,-1
 1950 999 l 2,1,2
 1950 1177 1950 1177 1932 1277 c 128,-1,3
 1914 1377 1914 1377 1908.5 1410.5 c 128,-1,4
 1903 1444 1903 1444 1900.5 1459.5 c 0,5,6
 1898 1476 1898 1476 1892 1500 c 0,7,8
 1854 1674 1854 1674 1684 1956 c 0,9,10
 1648 2015 1648 2015 1634 2040.5 c 128,-1,11
 1620 2066 1620 2066 1606 2088 c 0,12,13
 1588 2116 1588 2116 1583 2130 c 128,-1,14
 1578 2144 1578 2144 1576 2149 c 1,15,16
 1477 2185 1477 2185 1448.5 2194 c 128,-1,17
 1420 2203 1420 2203 1374.5 2229.5 c 128,-1,18
 1329 2256 1329 2256 1299.5 2267 c 128,-1,19
 1270 2278 1270 2278 1251.5 2287.5 c 128,-1,20
 1233 2297 1233 2297 1212.5 2309.5 c 128,-1,21
 1192 2322 1192 2322 1168.5 2333 c 128,-1,22
 1145 2344 1145 2344 1109 2370 c 0,23,24
 948 2484 948 2484 925 2487.5 c 128,-1,25
 902 2491 902 2491 895 2491.5 c 128,-1,26
 888 2492 888 2492 876.5 2490.5 c 128,-1,27
 865 2489 865 2489 858.5 2487.5 c 128,-1,28
 852 2486 852 2486 837.5 2483 c 128,-1,29
 823 2480 823 2480 814 2478 c 128,-1,30
 805 2476 805 2476 794.5 2471 c 128,-1,31
 784 2466 784 2466 776.5 2460.5 c 128,-1,32
 769 2455 769 2455 760 2445 c 128,-1,33
 751 2435 751 2435 745.5 2429 c 128,-1,34
 740 2423 740 2423 731 2409.5 c 128,-1,35
 722 2396 722 2396 719 2390 c 0,36,37
 704 2362 704 2362 679 2323 c 0,38,39
 634 2249 634 2249 620 2194.5 c 128,-1,40
 606 2140 606 2140 604 2132.5 c 128,-1,41
 602 2125 602 2125 593.5 2104 c 128,-1,42
 585 2083 585 2083 577 2075 c 0,43,44
 540 2038 540 2038 507 2038 c 0,45,46
 482 2038 482 2038 460 2059 c 0,47,48
 410 2106 410 2106 404 2248 c 0,49,50
 401 2311 401 2311 427.5 2351 c 128,-1,51
 454 2391 454 2391 465.5 2407 c 128,-1,52
 477 2423 477 2423 485.5 2434.5 c 128,-1,53
 494 2446 494 2446 507 2460 c 128,-1,54
 520 2474 520 2474 525.5 2480.5 c 128,-1,55
 531 2487 531 2487 548 2502.5 c 128,-1,56
 565 2518 565 2518 570.5 2523 c 128,-1,57
 576 2528 576 2528 600 2548 c 0,58,59
 664 2604 664 2604 668.5 2604 c 128,-1,60
 673 2604 673 2604 715 2629 c 0,61,62
 799 2679 799 2679 855 2679 c 128,-1,63
 911 2679 911 2679 996 2666 c 0,64,65
 1154 2642 1154 2642 1368 2523 c 0,66,67
 1377 2518 1377 2518 1385.5 2513.5 c 128,-1,68
 1394 2509 1394 2509 1400 2505.5 c 128,-1,69
 1406 2502 1406 2502 1415 2498.5 c 128,-1,70
 1424 2495 1424 2495 1428 2493.5 c 128,-1,71
 1432 2492 1432 2492 1443 2489 c 128,-1,72
 1454 2486 1454 2486 1458 2484.5 c 128,-1,73
 1462 2483 1462 2483 1476 2479.5 c 128,-1,74
 1490 2476 1490 2476 1501 2472 c 128,-1,75
 1512 2468 1512 2468 1534 2463 c 1,76,77
 1548 2722 1548 2722 1638 2953 c 0,78,79
 1663 3016 1663 3016 1707 3057.5 c 128,-1,80
 1751 3099 1751 3099 1790 3135 c 0,81,82
 1930 3265 1930 3265 2112 3265 c 0,83,84
 2116 3264 2116 3264 2120 3264 c 0,85,86
 2228 3263 2228 3263 2302 3192 c 0,87,88
 2323 3172 2323 3172 2359 3145 c 0,89,90
 2429 3093 2429 3093 2465 2985 c 0,91,92
 2515 2837 2515 2837 2516 2704 c 0,93,94
 2516 2491 2516 2491 2387 2317 c 0,95,96
 2317 2222 2317 2222 2197 2164.5 c 128,-1,97
 2077 2107 2077 2107 2013 2095 c 0,98,99
 1948 2083 1948 2083 1916 2083 c 0,100,101
 1872 2083 1872 2083 1838 2090 c 1,102,103
 1842 2082 1842 2082 1856 2057.5 c 128,-1,104
 1870 2033 1870 2033 1887 1993.5 c 128,-1,105
 1904 1954 1904 1954 1931 1898.5 c 128,-1,106
 1958 1843 1958 1843 1972 1811 c 128,-1,107
 1986 1779 1986 1779 2006 1740 c 0,108,109
 2078 1597 2078 1597 2104 1468.5 c 128,-1,110
 2130 1340 2130 1340 2150 1256 c 0,111,112
 2194 1073 2194 1073 2194 935 c 0,113,114
 2194 920 2194 920 2193 906 c 0,115,116
 2188 759 2188 759 2176 668 c 128,-1,117
 2164 577 2164 577 2157.5 525 c 128,-1,118
 2151 473 2151 473 2147 452 c 0,119,120
 2090 154 2090 154 1882 66 c 0,121,122
 1762 16 1762 16 1552 16 c 1,123,124
 1494 16 1494 16 1466.5 36.5 c 128,-1,125
 1439 57 1439 57 1418 73.5 c 0,126,127
 1396 90 1396 90 1390 95 c 0,128,129
 1357 120 1357 120 1346 132 c 0,130,131
 1338 142 1338 142 1312 168 c 1,132,133
 1184 82 1184 82 915 54 c 0,134,135
 819 44 819 44 736 44 c 0,136,137
 454 44 454 44 308 158 c 0,138,139
 272 186 272 186 229 242 c 1,140,141
 128 359 128 359 86 520 c 0,142,143
 66 588 66 588 66 660 c 0,144,145
 66 701 66 701 72 743 c 0,146,147
 90 859 90 859 104 924.5 c 128,-1,148
 118 990 118 990 140 1051.5 c 128,-1,149
 162 1113 162 1113 169.5 1139 c 128,-1,150
 177 1165 177 1165 189 1195 c 128,-1,151
 201 1225 201 1225 210 1243.5 c 128,-1,152
 219 1262 219 1262 237.5 1297 c 128,-1,153
 256 1332 256 1332 267.5 1355 c 128,-1,154
 279 1378 279 1378 288 1390.5 c 128,-1,155
 297 1403 297 1403 314 1420.5 c 128,-1,156
 331 1438 331 1438 344.5 1453.5 c 128,-1,157
 358 1469 358 1469 368.5 1479 c 0,158,159
 379 1490 379 1490 399 1502 c 0,160,161
 511 1572 511 1572 553 1580 c 128,-1,162
 595 1588 595 1588 631 1586.5 c 128,-1,163
 667 1585 667 1585 734 1587.5 c 128,-1,164
 801 1590 801 1590 809.5 1577.5 c 128,-1,165
 818 1565 818 1565 799 1544.5 c 128,-1,166
 780 1524 780 1524 744 1504.5 c 0,167,168
 708 1486 708 1486 680 1476 c 0,169,170
 607 1452 607 1452 565 1380 c 0,171,172
 559 1369 559 1369 545 1345.5 c 128,-1,173
 531 1322 531 1322 526.5 1312.5 c 128,-1,174
 522 1303 522 1303 514 1285 c 0,175,176
 500 1253 500 1253 487 1144 c 0,177,178
 477 1054 477 1054 477 999 c 0,179,180
 478 988 478 988 478 978 c 0,181,182
 480 920 480 920 478 878 c 0,183,184
 477 849 477 849 477 825 c 0,185,186
 477 771 477 771 484 747 c 0,187,188
 495 712 495 712 507.5 671.5 c 128,-1,189
 520 631 520 631 529.5 603.5 c 128,-1,190
 539 576 539 576 548.5 557 c 128,-1,191
 558 538 558 538 563.5 530.5 c 128,-1,192
 569 523 569 523 590 500 c 128,-1,193
 611 477 611 477 634 450.5 c 128,-1,194
 657 424 657 424 729 393 c 128,-1,195
 801 362 801 362 935 340 c 0,196,197
 1003 329 1003 329 1062 328 c 0,198,199
 1120 328 1120 328 1169 339 c 1,200,201
 1154 356 1154 356 1125.5 391 c 128,-1,202
 1097 426 1097 426 1054.5 476 c 128,-1,203
 1012 526 1012 526 973 594 c 0,204,205
 914 696 914 696 898 798 c 0,206,207
 884 886 884 886 884 921 c 0,208,209
 884 926 884 926 884 930 c 0,210,211
 886 960 886 960 901 1028 c 0,212,213
 954 1285 954 1285 1114 1323 c 0,214,215
 1202 1344 1202 1344 1272 1344 c 0,216,217
 1346 1344 1346 1344 1402 1320 c 0,218,219
 1616 1228 1616 1228 1662 1004 c 0,220,221
 1687 880 1687 880 1687 819 c 0,222,223
 1687 797 1687 797 1684 783 c 0,224,225
 1672 728 1672 728 1666 702 c 128,-1,226
 1660 676 1660 676 1650 633.5 c 128,-1,227
 1640 591 1640 591 1636 578 c 0,228,229
 1632 564 1632 564 1622 534 c 0,230,231
 1606 483 1606 483 1573 430 c 1,232,233
 1676 435 1676 435 1748 497.5 c 128,-1,234
 1820 560 1820 560 1840 578 c 0,235,236
 1904 637 1904 637 1915.5 683 c 128,-1,237
 1927 729 1927 729 1931.5 749.5 c 128,-1,238
 1936 770 1936 770 1939.5 785 c 128,-1,239
 1943 800 1943 800 1945 821 c 128,-1,240
 1947 842 1947 842 1948 853 c 0,241,242
 1950 874 1950 874 1950 936 c 2,0,-1
1738 2435 m 1,243,244
 1826 2424 1826 2424 1868.5 2424 c 128,-1,245
 1911 2424 1911 2424 1918 2424.5 c 128,-1,246
 1925 2425 1925 2425 1935.5 2427 c 128,-1,247
 1946 2429 1946 2429 1950.5 2429.5 c 128,-1,248
 1955 2430 1955 2430 1966.5 2433.5 c 128,-1,249
 1978 2437 1978 2437 1981 2438 c 128,-1,250
 1984 2439 1984 2439 1998 2443.5 c 128,-1,251
 2012 2448 2012 2448 2050 2460 c 0,252,253
 2123 2482 2123 2482 2150 2535 c 0,254,255
 2186 2608 2186 2608 2186 2671 c 0,256,257
 2186 2692 2186 2692 2182 2712 c 0,258,259
 2166 2792 2166 2792 2148 2819.5 c 128,-1,260
 2130 2847 2130 2847 2089 2871 c 0,261,262
 2045 2901 2045 2901 2000 2901 c 0,263,264
 1966 2901 1966 2901 1932 2884 c 0,265,266
 1816 2826 1816 2826 1768 2636 c 0,267,268
 1764 2618 1764 2618 1761.5 2608.5 c 128,-1,269
 1759 2599 1759 2599 1755.5 2579 c 0,270,271
 1752 2560 1752 2560 1751 2552 c 0,272,273
 1744 2500 1744 2500 1743 2492 c 0,274,275
 1738 2460 1738 2460 1738 2435 c 1,243,244
1341 515 m 0,276,277
 1364 502 1364 502 1369 500 c 128,-1,278
 1374 498 1374 498 1385 492 c 128,-1,279
 1396 486 1396 486 1397 486 c 0,280,281
 1409 486 1409 486 1449 573 c 0,282,283
 1522 733 1522 733 1523 844 c 0,284,285
 1523 848 1523 848 1522 851 c 0,286,287
 1520 963 1520 963 1485 1067.5 c 128,-1,288
 1450 1172 1450 1172 1426 1208 c 0,289,290
 1394 1255 1394 1255 1332 1256 c 0,291,292
 1309 1256 1309 1256 1282 1249 c 1,293,294
 1193 1233 1193 1233 1159 1098 c 0,295,296
 1148 1065 1148 1065 1145 1054 c 128,-1,297
 1142 1043 1142 1043 1137.5 1027.5 c 128,-1,298
 1133 1012 1133 1012 1132 1005.5 c 128,-1,299
 1131 999 1131 999 1128.5 985.5 c 128,-1,300
 1126 972 1126 972 1125.5 963.5 c 128,-1,301
 1125 955 1125 955 1124 942.5 c 128,-1,302
 1123 930 1123 930 1124 918.5 c 0,303,304
 1125 906 1125 906 1131 854 c 0,305,306
 1158 618 1158 618 1341 515 c 0,276,277
EndSplineSet
EndChar

StartChar: u10594
Encoding: 66964 66964 33
Width: 2558
VWidth: 0
Flags: W
HStem: 2759 147<1047.98 1657.55>
LayerCount: 2
Fore
SplineSet
89 1823 m 0,0,1
 16 1945 16 1945 16 2046 c 128,-1,2
 16 2147 16 2147 32 2231 c 0,3,4
 58 2372 58 2372 140 2496 c 0,5,6
 146 2505 146 2505 157.5 2516 c 128,-1,7
 169 2527 169 2527 173.5 2532 c 128,-1,8
 178 2537 178 2537 193 2549 c 0,9,10
 208 2562 208 2562 212 2564 c 0,11,12
 254 2594 254 2594 287 2616.5 c 128,-1,13
 320 2639 320 2639 404 2644 c 0,14,15
 424 2645 424 2645 443 2645 c 0,16,17
 620 2644 620 2644 782 2548 c 0,18,19
 834 2516 834 2516 880 2458 c 1,20,21
 957 2339 957 2339 986 2254 c 128,-1,22
 1015 2169 1015 2169 1043.5 2070 c 128,-1,23
 1072 1971 1072 1971 1093.5 1902 c 128,-1,24
 1115 1833 1115 1833 1127.5 1752 c 128,-1,25
 1140 1671 1140 1671 1147.5 1552.5 c 128,-1,26
 1155 1434 1155 1434 1172.5 1278.5 c 128,-1,27
 1190 1123 1190 1123 1202 787 c 0,28,29
 1218 344 1218 344 1231 344 c 0,30,31
 1232 344 1232 344 1232 345 c 0,32,33
 1234 347 1234 347 1236 356 c 1,34,35
 1240 297 1240 297 1256 372 c 0,36,37
 1264 403 1264 403 1282 510 c 0,38,39
 1308 658 1308 658 1346.5 796.5 c 128,-1,40
 1385 935 1385 935 1404 1008.5 c 128,-1,41
 1423 1082 1423 1082 1447 1184.5 c 128,-1,42
 1471 1287 1471 1287 1504.5 1429 c 128,-1,43
 1538 1571 1538 1571 1562.5 1702.5 c 128,-1,44
 1587 1834 1587 1834 1607.5 1945 c 128,-1,45
 1628 2056 1628 2056 1640 2116.5 c 128,-1,46
 1652 2177 1652 2177 1666.5 2259 c 128,-1,47
 1681 2341 1681 2341 1693 2401 c 0,48,49
 1696 2415 1696 2415 1696 2432 c 0,50,51
 1696 2488 1696 2488 1664 2582 c 0,52,53
 1624 2704 1624 2704 1624 2724 c 0,54,55
 1624 2743 1624 2743 1643 2743 c 0,56,57
 1686 2743 1686 2743 1826 2646 c 1,58,59
 1947 2572 1947 2572 2076 2572 c 0,60,61
 2106 2572 2106 2572 2136 2576 c 0,62,63
 2164 2580 2164 2580 2184 2582 c 128,-1,64
 2204 2584 2204 2584 2228.5 2592.5 c 128,-1,65
 2253 2601 2253 2601 2286 2618 c 128,-1,66
 2319 2635 2319 2635 2338 2643.5 c 128,-1,67
 2357 2652 2357 2652 2405 2678.5 c 128,-1,68
 2453 2705 2453 2705 2473 2712 c 128,-1,69
 2493 2719 2493 2719 2500 2725.5 c 128,-1,70
 2507 2732 2507 2732 2511.5 2737 c 128,-1,71
 2516 2742 2516 2742 2520 2745 c 0,72,73
 2529 2751 2529 2751 2534 2738.5 c 128,-1,74
 2539 2726 2539 2726 2541 2717 c 128,-1,75
 2543 2708 2543 2708 2542 2698 c 128,-1,76
 2541 2688 2541 2688 2540.5 2682.5 c 128,-1,77
 2540 2677 2540 2677 2534 2665 c 128,-1,78
 2528 2653 2528 2653 2526.5 2650.5 c 128,-1,79
 2525 2648 2525 2648 2516 2633.5 c 128,-1,80
 2507 2619 2507 2619 2499 2605.5 c 128,-1,81
 2491 2592 2491 2592 2474 2573 c 128,-1,82
 2457 2554 2457 2554 2433 2530.5 c 128,-1,83
 2409 2507 2409 2507 2391.5 2487 c 128,-1,84
 2374 2467 2374 2467 2342 2419 c 128,-1,85
 2310 2371 2310 2371 2283.5 2347 c 128,-1,86
 2257 2323 2257 2323 2236 2310 c 0,87,88
 2211 2294 2211 2294 2126 2265 c 0,89,90
 2010 2224 2010 2224 1955.5 2224 c 128,-1,91
 1901 2224 1901 2224 1859 2244 c 128,-1,92
 1817 2264 1817 2264 1792 2277.5 c 128,-1,93
 1767 2291 1767 2291 1765 2281 c 1,94,95
 1747 2286 1747 2286 1744.5 2265.5 c 128,-1,96
 1742 2245 1742 2245 1746.5 2209.5 c 128,-1,97
 1751 2174 1751 2174 1745.5 2146 c 128,-1,98
 1740 2118 1740 2118 1729.5 2052.5 c 128,-1,99
 1719 1987 1719 1987 1708.5 1936.5 c 128,-1,100
 1698 1886 1698 1886 1680 1791.5 c 128,-1,101
 1662 1697 1662 1697 1652.5 1650 c 128,-1,102
 1643 1603 1643 1603 1629 1540 c 0,103,104
 1590 1364 1590 1364 1571 1232 c 0,105,106
 1538 996 1538 996 1491 815 c 128,-1,107
 1444 634 1444 634 1431.5 580 c 0,108,109
 1420 526 1420 526 1412 496 c 0,110,111
 1372 334 1372 334 1308.5 200.5 c 128,-1,112
 1245 67 1245 67 1228 25 c 1,113,-1
 1121 66 l 1,114,115
 1117 84 1117 84 1113 112.5 c 128,-1,116
 1109 141 1109 141 1105 167 c 128,-1,117
 1101 193 1101 193 1090.5 239.5 c 128,-1,118
 1080 286 1080 286 1074 326 c 128,-1,119
 1068 366 1068 366 1058 448.5 c 128,-1,120
 1048 531 1048 531 1039 587.5 c 128,-1,121
 1030 644 1030 644 1013 750.5 c 128,-1,122
 996 857 996 857 986.5 916.5 c 128,-1,123
 977 976 977 976 958.5 1052 c 128,-1,124
 940 1128 940 1128 932.5 1159.5 c 0,125,126
 926 1190 926 1190 914 1256 c 0,127,128
 870 1509 870 1509 760 1738 c 0,129,130
 748 1762 748 1762 739 1777 c 0,131,132
 716 1816 716 1816 698.5 1847 c 128,-1,133
 681 1878 681 1878 672 1893.5 c 128,-1,134
 663 1909 663 1909 659 1916.5 c 128,-1,135
 655 1924 655 1924 648 1934 c 0,136,137
 637 1950 637 1950 623.5 1964.5 c 128,-1,138
 610 1979 610 1979 602.5 1987 c 128,-1,139
 595 1995 595 1995 592 1998.5 c 128,-1,140
 589 2002 589 2002 583 2008.5 c 128,-1,141
 577 2015 577 2015 573.5 2018.5 c 128,-1,142
 570 2022 570 2022 564.5 2027 c 128,-1,143
 559 2032 559 2032 554 2036 c 128,-1,144
 549 2040 549 2040 542.5 2045.5 c 128,-1,145
 536 2051 536 2051 522.5 2059.5 c 0,146,147
 510 2068 510 2068 482 2088 c 0,148,149
 434 2124 434 2124 398.5 2133.5 c 128,-1,150
 363 2143 363 2143 318 2156 c 0,151,152
 285 2165 285 2165 255 2165 c 0,153,154
 190 2165 190 2165 134 2122 c 0,155,156
 80 2079 80 2079 80 1974 c 0,157,158
 80 1925 80 1925 92 1862 c 0,159,160
 101 1814 101 1814 97.5 1814.5 c 128,-1,161
 94 1815 94 1815 89 1823 c 0,0,1
515 3141 m 0,162,163
 596 3263 596 3263 722 3263 c 0,164,165
 815 3263 815 3263 847 3223 c 0,166,167
 891 3168 891 3168 908.5 3128 c 128,-1,168
 926 3088 926 3088 926 3087 c 1,169,170
 902 3097 902 3097 886 3089 c 128,-1,171
 870 3081 870 3081 839.5 3068.5 c 128,-1,172
 809 3056 809 3056 792 3048 c 128,-1,173
 775 3040 775 3040 746 3026 c 128,-1,174
 717 3012 717 3012 700.5 3001.5 c 128,-1,175
 684 2991 684 2991 662.5 2976 c 128,-1,176
 641 2961 641 2961 631 2947 c 0,177,178
 622 2933 622 2933 614 2917 c 0,179,180
 590 2867 590 2867 630 2840 c 1,181,182
 508 2902 508 2902 496 3036 c 0,183,184
 490 3101 490 3101 515 3141 c 0,162,163
630 2840 m 1,185,186
 684 2813 684 2813 732 2813 c 0,187,188
 824 2813 824 2813 897 2910 c 0,189,190
 939 2967 939 2967 939 3024 c 0,191,192
 939 3055 939 3055 926 3087 c 1,193,194
 927 3086 927 3086 940.5 3080 c 128,-1,195
 954 3074 954 3074 973 3053 c 0,196,197
 1037 2983 1037 2983 1078.5 2957.5 c 128,-1,198
 1120 2932 1120 2932 1181 2918.5 c 128,-1,199
 1242 2905 1242 2905 1263.5 2903.5 c 128,-1,200
 1285 2902 1285 2902 1298 2902.5 c 128,-1,201
 1311 2903 1311 2903 1338 2904.5 c 128,-1,202
 1365 2906 1365 2906 1422.5 2908 c 128,-1,203
 1480 2910 1480 2910 1546 2921 c 128,-1,204
 1612 2932 1612 2932 1643.5 2943 c 128,-1,205
 1675 2954 1675 2954 1713.5 2969.5 c 128,-1,206
 1752 2985 1752 2985 1767 2990.5 c 128,-1,207
 1782 2996 1782 2996 1813 3021 c 128,-1,208
 1844 3046 1844 3046 1866 3042 c 128,-1,209
 1888 3038 1888 3038 1891 3013 c 128,-1,210
 1894 2988 1894 2988 1882 2964 c 0,211,212
 1858 2917 1858 2917 1797 2890 c 0,213,214
 1636 2818 1636 2818 1542 2798 c 0,215,216
 1355 2760 1355 2760 1196 2759 c 0,217,218
 929 2759 929 2759 791.5 2792.5 c 128,-1,219
 654 2826 654 2826 630 2840 c 1,185,186
EndSplineSet
EndChar

StartChar: u10595
Encoding: 66965 66965 34
Width: 3651
VWidth: 0
Flags: W
HStem: 111 143<2260.36 2752.75>
VStem: 17 450<1096.46 2185.5> 1704 119<1973.55 2240.55> 1880 119<968.544 1463.19> 2359 111<1798.95 1980.46> 3224 409<1043.45 2164.78>
LayerCount: 2
Fore
SplineSet
1122 3183 m 1,0,-1
 1135 3052 l 1,1,2
 1114 3042 1114 3042 1096 3034 c 0,3,4
 1003 2991 1003 2991 881 2900 c 1,5,6
 637 2696 637 2696 541 2324 c 0,7,8
 526 2266 526 2266 502 2172 c 0,9,10
 459 2009 459 2009 459 1814 c 0,11,12
 459 1626 459 1626 498 1410 c 0,13,14
 516 1314 516 1314 524.5 1260 c 0,15,16
 534 1206 534 1206 538 1180 c 0,17,18
 549 1114 549 1114 569 1058.5 c 128,-1,19
 589 1003 589 1003 600 967 c 0,20,21
 612 932 612 932 618 912 c 0,22,23
 657 794 657 794 727 705.5 c 0,24,25
 796 616 796 616 850 570 c 0,26,27
 942 490 942 490 1112 490 c 0,28,29
 1157 490 1157 490 1208 496 c 0,30,31
 1481 531 1481 531 1680 754 c 1,32,33
 1824 898 1824 898 1880 1159 c 0,34,35
 1890 1203 1890 1203 1884.5 1261 c 128,-1,36
 1879 1319 1879 1319 1876 1354 c 128,-1,37
 1873 1389 1873 1389 1897 1450 c 0,38,39
 1909 1478 1909 1478 1954 1475 c 128,-1,40
 1999 1472 1999 1472 1999 1442 c 0,41,42
 2000 1415 2000 1415 2000 1387 c 0,43,44
 2000 1128 2000 1128 1880 782 c 0,45,46
 1828 639 1828 639 1782 572.5 c 128,-1,47
 1736 506 1736 506 1715 473.5 c 128,-1,48
 1694 441 1694 441 1684.5 427.5 c 128,-1,49
 1675 414 1675 414 1658 390 c 0,50,51
 1520 199 1520 199 1360 147 c 0,52,53
 1205 100 1205 100 1100 100 c 0,54,55
 1095 100 1095 100 1090 100 c 0,56,57
 983 102 983 102 846.5 149 c 128,-1,58
 710 196 710 196 663 219 c 128,-1,59
 616 242 616 242 564 282 c 128,-1,60
 512 322 512 322 474 360 c 0,61,62
 318 517 318 517 214 727 c 0,63,64
 48 1056 48 1056 28 1348 c 0,65,66
 26 1382 26 1382 24.5 1396 c 128,-1,67
 23 1410 23 1410 21.5 1450.5 c 128,-1,68
 20 1491 20 1491 20 1501 c 0,69,70
 15 1592 15 1592 15 1658 c 0,71,72
 15 1734 15 1734 21 1779 c 0,73,74
 32 1863 32 1863 52 1990 c 128,-1,75
 72 2117 72 2117 103.5 2182.5 c 128,-1,76
 135 2248 135 2248 153 2286.5 c 128,-1,77
 171 2325 171 2325 178.5 2340 c 0,78,79
 186 2356 186 2356 200 2384 c 0,80,81
 367 2712 367 2712 574 2892 c 0,82,83
 834 3118 834 3118 1036 3160 c 0,84,85
 1088 3171 1088 3171 1122 3183 c 1,0,-1
2361 1928 m 0,86,87
 2360 1963 2360 1963 2374 1980 c 0,88,89
 2403 2017 2403 2017 2432.5 1998.5 c 128,-1,90
 2462 1980 2462 1980 2466 1967.5 c 0,91,92
 2470 1956 2470 1956 2470 1916 c 0,93,94
 2470 1828 2470 1828 2429 1747.5 c 128,-1,95
 2388 1667 2388 1667 2359.5 1639 c 0,96,97
 2330 1611 2330 1611 2282 1582 c 0,98,99
 2201 1533 2201 1533 2149 1524.5 c 0,100,101
 2096 1516 2096 1516 2066 1510 c 0,102,103
 2005 1497 2005 1497 1946 1497 c 0,104,105
 1902 1497 1902 1497 1859 1504 c 0,106,107
 1757 1520 1757 1520 1726.5 1531.5 c 128,-1,108
 1696 1543 1696 1543 1658 1570 c 0,109,110
 1581 1625 1581 1625 1581 1718 c 0,111,112
 1581 1762 1581 1762 1598 1815 c 0,113,114
 1627 1906 1627 1906 1709 1950 c 1,115,116
 1704 1973 1704 1973 1704 2016 c 128,-1,117
 1704 2059 1704 2059 1703.5 2105.5 c 0,118,119
 1704 2152 1704 2152 1704 2174 c 0,120,121
 1707 2307 1707 2307 1730.5 2394 c 128,-1,122
 1754 2481 1754 2481 1760 2506.5 c 128,-1,123
 1766 2532 1766 2532 1772.5 2553 c 128,-1,124
 1779 2574 1779 2574 1783.5 2588.5 c 128,-1,125
 1788 2603 1788 2603 1798 2626.5 c 128,-1,126
 1808 2650 1808 2650 1812 2659.5 c 128,-1,127
 1816 2669 1816 2669 1829.5 2698 c 128,-1,128
 1843 2727 1843 2727 1861.5 2769 c 128,-1,129
 1880 2811 1880 2811 1905 2860.5 c 128,-1,130
 1930 2910 1930 2910 1940 2923.5 c 128,-1,131
 1950 2937 1950 2937 1968 2955.5 c 128,-1,132
 1986 2974 1986 2974 2020 3013.5 c 128,-1,133
 2054 3053 2054 3053 2083.5 3069 c 128,-1,134
 2113 3085 2113 3085 2129.5 3095.5 c 128,-1,135
 2146 3106 2146 3106 2154 3110 c 0,136,137
 2288 3190 2288 3190 2609 3191 c 0,138,139
 2655 3191 2655 3191 2705.5 3184 c 0,140,141
 2756 3178 2756 3178 2803 3172 c 0,142,143
 2962 3153 2962 3153 3097 3035 c 0,144,145
 3108 3026 3108 3026 3128 3010 c 0,146,147
 3222 2935 3222 2935 3289 2830 c 1,148,149
 3442 2630 3442 2630 3520 2370 c 0,150,151
 3534 2322 3534 2322 3550 2275 c 128,-1,152
 3566 2228 3566 2228 3581 2164 c 0,153,154
 3599 2086 3599 2086 3621 1902 c 0,155,156
 3637 1771 3637 1771 3637 1671 c 0,157,158
 3637 1630 3637 1630 3634 1594 c 0,159,160
 3625 1470 3625 1470 3621 1423 c 0,161,162
 3610 1296 3610 1296 3576 1162 c 0,163,164
 3518 937 3518 937 3451 820.5 c 128,-1,165
 3384 704 3384 704 3285 580 c 128,-1,166
 3186 456 3186 456 3138.5 408.5 c 128,-1,167
 3091 361 3091 361 3023 304 c 0,168,169
 2793 111 2793 111 2495 111 c 0,170,171
 2440 111 2440 111 2388 131 c 128,-1,172
 2336 151 2336 151 2313.5 158 c 128,-1,173
 2291 165 2291 165 2256 184.5 c 128,-1,174
 2221 204 2221 204 2200 213 c 1,175,-1
 2216 287 l 1,176,177
 2240 284 2240 284 2275 274 c 0,178,179
 2353 251 2353 251 2446 251 c 0,180,181
 2530 251 2530 251 2626 270 c 0,182,183
 2728 292 2728 292 2799.5 349.5 c 128,-1,184
 2871 407 2871 407 2896.5 444.5 c 128,-1,185
 2922 482 2922 482 2945 520.5 c 128,-1,186
 2968 559 2968 559 2981.5 586.5 c 128,-1,187
 2995 614 2995 614 3018 661 c 0,188,189
 3182 994 3182 994 3213 1262 c 0,190,191
 3214 1270 3214 1270 3218.5 1301.5 c 128,-1,192
 3223 1333 3223 1333 3229 1375 c 0,193,194
 3241 1458 3241 1458 3241 1550 c 0,195,196
 3241 1738 3241 1738 3191 1962 c 0,197,198
 3131 2241 3131 2241 2978 2490 c 0,199,200
 2814 2758 2814 2758 2589 2769 c 0,201,202
 2568 2770 2568 2770 2554 2771 c 128,-1,203
 2540 2772 2540 2772 2516 2770 c 128,-1,204
 2492 2768 2492 2768 2482 2767.5 c 128,-1,205
 2472 2767 2472 2767 2444.5 2762 c 128,-1,206
 2417 2757 2417 2757 2409 2755.5 c 128,-1,207
 2401 2754 2401 2754 2368 2748 c 128,-1,208
 2335 2742 2335 2742 2313.5 2738 c 128,-1,209
 2292 2734 2292 2734 2262 2720 c 0,210,211
 2223 2702 2223 2702 2184.5 2669 c 128,-1,212
 2146 2636 2146 2636 2122 2617 c 128,-1,213
 2098 2598 2098 2598 2089 2590.5 c 128,-1,214
 2080 2583 2080 2583 2063.5 2568 c 0,215,216
 2048 2554 2048 2554 2038 2542 c 0,217,218
 1932 2413 1932 2413 1847 2130 c 0,219,220
 1836 2091 1836 2091 1838 2043 c 128,-1,221
 1840 1995 1840 1995 1840 1984 c 1,222,223
 1940 1984 1940 1984 1964.5 1963.5 c 128,-1,224
 1989 1943 1989 1943 1996.5 1930.5 c 128,-1,225
 2004 1918 2004 1918 2010.5 1899 c 128,-1,226
 2017 1880 2017 1880 2022 1871 c 128,-1,227
 2027 1862 2027 1862 2032.5 1849 c 128,-1,228
 2038 1836 2038 1836 2042 1828 c 0,229,230
 2070 1769 2070 1769 2127 1758 c 128,-1,231
 2184 1747 2184 1747 2216.5 1755 c 128,-1,232
 2249 1763 2249 1763 2261.5 1766 c 128,-1,233
 2274 1769 2274 1769 2278 1770 c 0,234,235
 2341 1788 2341 1788 2354 1860 c 0,236,237
 2357 1876 2357 1876 2359 1884.5 c 128,-1,238
 2361 1893 2361 1893 2361 1928 c 0,86,87
EndSplineSet
EndChar

StartChar: u10596
Encoding: 66966 66966 35
Width: 3203
VWidth: 0
Flags: W
HStem: 66 122<1956.03 2401.96> 1241 414<1601.25 1764.03> 2961 160<1004.66 1454 2290 2647.34>
VStem: 1495 107<1643.36 1893.89> 1647 106<812.551 1212.05> 2056 90<1499.94 1662.43> 2785 353<815.785 1850.64>
LayerCount: 2
Fore
SplineSet
1004 2671 m 1,0,-1
 1016 2560 l 1,1,2
 1003 2554 1003 2554 985 2548 c 0,3,4
 899 2519 899 2519 819 2453.5 c 128,-1,5
 739 2388 739 2388 711 2347.5 c 128,-1,6
 683 2307 683 2307 662.5 2278 c 0,7,8
 642 2248 642 2248 630 2232 c 0,9,10
 562 2134 562 2134 536 2045 c 0,11,12
 500 1924 500 1924 479 1847 c 0,13,14
 442 1707 442 1707 442 1520 c 128,-1,15
 442 1333 442 1333 479 1098 c 0,16,17
 507 933 507 933 527.5 876 c 128,-1,18
 548 819 548 819 560 780 c 0,19,20
 623 576 623 576 762 455 c 0,21,22
 782 437 782 437 798.5 429.5 c 128,-1,23
 815 422 815 422 820.5 419 c 128,-1,24
 826 416 826 416 842 411 c 128,-1,25
 858 406 858 406 862 405 c 128,-1,26
 866 404 866 404 888 399 c 0,27,28
 936 388 936 388 991 388 c 0,29,30
 1032 388 1032 388 1077 394 c 0,31,32
 1266 418 1266 418 1378 508 c 0,33,34
 1486 595 1486 595 1549.5 711 c 128,-1,35
 1613 827 1613 827 1624 858.5 c 128,-1,36
 1635 890 1635 890 1646 946 c 128,-1,37
 1657 1002 1657 1002 1651 1037.5 c 128,-1,38
 1645 1073 1645 1073 1645 1118 c 128,-1,39
 1645 1163 1645 1163 1658.5 1192.5 c 128,-1,40
 1672 1222 1672 1222 1712.5 1219 c 128,-1,41
 1753 1216 1753 1216 1753 1192 c 0,42,43
 1754 1166 1754 1166 1754 1141 c 0,44,45
 1754 1039 1754 1039 1736 963 c 0,46,47
 1668 672 1668 672 1619 573 c 128,-1,48
 1570 474 1570 474 1542 431.5 c 128,-1,49
 1514 389 1514 389 1497 361 c 0,50,51
 1480 334 1480 334 1470 318 c 0,52,53
 1390 196 1390 196 1266 120 c 0,54,55
 1159 56 1159 56 994 56 c 0,56,57
 976 56 976 56 958 57 c 0,58,59
 877 57 877 57 772 90 c 128,-1,60
 667 123 667 123 626.5 145.5 c 128,-1,61
 586 168 586 168 532.5 210.5 c 0,62,63
 478 254 478 254 454 274 c 0,64,65
 337 372 337 372 276 487 c 0,66,67
 72 872 72 872 68 1266 c 0,68,69
 68 1318 68 1318 65 1372 c 0,70,71
 65 1383 65 1383 65 1395 c 0,72,73
 65 1483 65 1483 87 1615 c 0,74,75
 154 2004 154 2004 476 2366 c 0,76,77
 618 2525 618 2525 848 2626 c 0,78,79
 884 2642 884 2642 928.5 2651 c 128,-1,80
 973 2660 973 2660 1004 2671 c 1,0,-1
2163 2683 m 2,81,-1
 2265 2679 l 1,82,83
 2311 2679 2311 2679 2357 2671.5 c 128,-1,84
 2403 2664 2403 2664 2421 2661.5 c 128,-1,85
 2439 2659 2439 2659 2471 2650 c 0,86,87
 2502 2641 2502 2641 2522 2636 c 0,88,89
 2606 2614 2606 2614 2648.5 2577.5 c 0,90,91
 2690 2541 2690 2541 2708 2527 c 0,92,93
 2847 2416 2847 2416 2970 2159 c 1,94,95
 3091 1920 3091 1920 3129 1602 c 0,96,97
 3140 1512 3140 1512 3140 1416 c 0,98,99
 3140 1195 3140 1195 3080 942 c 0,100,101
 3076 927 3076 927 3067 888.5 c 128,-1,102
 3058 850 3058 850 3055 838 c 128,-1,103
 3052 826 3052 826 3043.5 797 c 128,-1,104
 3035 768 3035 768 3027 751 c 0,105,106
 2961 610 2961 610 2890 524 c 2,107,-1
 2810 426 l 1,108,109
 2504 77 2504 77 2248 67 c 0,110,111
 2224 66 2224 66 2172 66 c 0,112,113
 2050 66 2050 66 1992.5 103 c 128,-1,114
 1935 140 1935 140 1921 147 c 1,115,-1
 1929 217 l 1,116,117
 1950 215 1950 215 1983 207 c 0,118,119
 2061 188 2061 188 2144 188 c 128,-1,120
 2227 188 2227 188 2255.5 195 c 128,-1,121
 2284 202 2284 202 2318 210 c 0,122,123
 2337 214 2337 214 2404 251.5 c 128,-1,124
 2471 289 2471 289 2506 338 c 128,-1,125
 2541 387 2541 387 2561.5 423.5 c 128,-1,126
 2582 460 2582 460 2607 513 c 0,127,128
 2752 820 2752 820 2774 1026 c 0,129,130
 2780 1076 2780 1076 2790 1148 c 0,131,132
 2796 1194 2796 1194 2796 1269 c 0,133,134
 2796 1313 2796 1313 2794 1366 c 0,135,136
 2788 1512 2788 1512 2764 1620 c 0,137,138
 2712 1852 2712 1852 2616 2019 c 0,139,140
 2612 2026 2612 2026 2601 2046.5 c 128,-1,141
 2590 2067 2590 2067 2584 2075.5 c 128,-1,142
 2578 2084 2578 2084 2566.5 2101 c 0,143,144
 2556 2118 2556 2118 2546 2130 c 0,145,146
 2461 2232 2461 2232 2418 2264 c 128,-1,147
 2375 2296 2375 2296 2336.5 2305.5 c 128,-1,148
 2298 2315 2298 2315 2277.5 2317.5 c 128,-1,149
 2257 2320 2257 2320 2243 2321.5 c 128,-1,150
 2229 2323 2229 2323 2206 2322 c 128,-1,151
 2183 2321 2183 2321 2174.5 2321 c 128,-1,152
 2166 2321 2166 2321 2138.5 2317 c 128,-1,153
 2111 2313 2111 2313 2106 2312 c 128,-1,154
 2101 2311 2101 2311 2067 2305 c 128,-1,155
 2033 2299 2033 2299 2015 2295.5 c 0,156,157
 1996 2292 1996 2292 1970 2279 c 0,158,159
 1938 2263 1938 2263 1891 2222.5 c 128,-1,160
 1844 2182 1844 2182 1837.5 2176.5 c 128,-1,161
 1831 2171 1831 2171 1817.5 2158.5 c 128,-1,162
 1804 2146 1804 2146 1797 2138 c 128,-1,163
 1790 2130 1790 2130 1780 2118 c 0,164,165
 1676 1988 1676 1988 1618 1778 c 0,166,167
 1610 1740 1610 1740 1612 1701.5 c 128,-1,168
 1614 1663 1614 1663 1614 1656 c 1,169,-1
 1625 1656 l 2,170,171
 1733 1656 1733 1656 1759 1580 c 0,172,173
 1764 1566 1764 1566 1769 1557 c 128,-1,174
 1774 1548 1774 1548 1784 1523 c 0,175,176
 1811 1452 1811 1452 1888 1452 c 0,177,178
 1917 1452 1917 1452 1954 1462 c 1,179,180
 2034 1478 2034 1478 2046 1530 c 0,181,182
 2048 1536 2048 1536 2051 1549 c 128,-1,183
 2054 1562 2054 1562 2056 1569.5 c 128,-1,184
 2058 1577 2058 1577 2059.5 1607.5 c 128,-1,185
 2061 1638 2061 1638 2078.5 1661 c 128,-1,186
 2096 1684 2096 1684 2116 1672 c 128,-1,187
 2136 1660 2136 1660 2139.5 1655.5 c 128,-1,188
 2143 1651 2143 1651 2144.5 1643 c 128,-1,189
 2146 1635 2146 1635 2146.5 1631.5 c 128,-1,190
 2147 1628 2147 1628 2146.5 1616 c 128,-1,191
 2146 1604 2146 1604 2146 1582 c 0,192,193
 2146 1516 2146 1516 2103 1434 c 128,-1,194
 2060 1352 2060 1352 2008 1320 c 0,195,196
 1906 1257 1906 1257 1712 1241 c 1,197,198
 1579 1241 1579 1241 1535 1258 c 128,-1,199
 1491 1275 1491 1275 1458 1299 c 0,200,201
 1407 1336 1407 1336 1397 1402 c 0,202,203
 1394 1420 1394 1420 1395 1437 c 0,204,205
 1395 1517 1395 1517 1450 1585 c 0,206,207
 1466 1605 1466 1605 1498 1622 c 1,208,-1
 1498 1623 l 1,209,210
 1495 1629 1495 1629 1495 1655 c 2,211,-1
 1495 1704 l 2,212,213
 1495 1901 1495 1901 1508 1954 c 128,-1,214
 1521 2007 1521 2007 1533 2043.5 c 128,-1,215
 1545 2080 1545 2080 1559 2132 c 0,216,217
 1590 2245 1590 2245 1640 2344 c 128,-1,218
 1690 2443 1690 2443 1699 2455 c 128,-1,219
 1708 2467 1708 2467 1724.5 2482.5 c 128,-1,220
 1741 2498 1741 2498 1771 2532 c 0,221,222
 1872 2649 1872 2649 2114 2679 c 0,223,224
 2139 2683 2139 2683 2163 2683 c 2,81,-1
2290 3121 m 1,225,-1
 2654 3146 l 1,226,227
 2659 3127 2659 3127 2682 3092 c 0,228,229
 2721 3032 2721 3032 2673.5 3008.5 c 128,-1,230
 2626 2985 2626 2985 2561 2975.5 c 128,-1,231
 2496 2966 2496 2966 2438 2970 c 0,232,233
 2423 2971 2423 2971 2393 2972 c 0,234,235
 2313 2972 2313 2972 2129 2962 c 0,236,237
 1969 2954 1969 2954 1796 2954 c 0,238,239
 1700 2954 1700 2954 1598 2957 c 0,240,241
 1316 2964 1316 2964 1210.5 2970 c 128,-1,242
 1105 2976 1105 2976 1040.5 2981 c 128,-1,243
 976 2986 976 2986 847.5 2997.5 c 128,-1,244
 719 3009 719 3009 647 3015 c 1,245,-1
 688 3154 l 1,246,247
 689 3163 689 3163 687 3177 c 0,248,249
 685 3190 685 3190 684 3200 c 0,250,251
 682 3224 682 3224 705 3224 c 0,252,253
 864 3222 864 3222 1093 3188 c 0,254,255
 1534 3122 1534 3122 2290 3121 c 1,225,-1
EndSplineSet
EndChar

